%TF.GenerationSoftware,KiCad,Pcbnew,(6.0.0)*%
%TF.CreationDate,2022-11-04T15:31:48+01:00*%
%TF.ProjectId,Supersonic Quantumbox,53757065-7273-46f6-9e69-63205175616e,rev?*%
%TF.SameCoordinates,Original*%
%TF.FileFunction,Soldermask,Bot*%
%TF.FilePolarity,Negative*%
%FSLAX46Y46*%
G04 Gerber Fmt 4.6, Leading zero omitted, Abs format (unit mm)*
G04 Created by KiCad (PCBNEW (6.0.0)) date 2022-11-04 15:31:48*
%MOMM*%
%LPD*%
G01*
G04 APERTURE LIST*
G04 Aperture macros list*
%AMRoundRect*
0 Rectangle with rounded corners*
0 $1 Rounding radius*
0 $2 $3 $4 $5 $6 $7 $8 $9 X,Y pos of 4 corners*
0 Add a 4 corners polygon primitive as box body*
4,1,4,$2,$3,$4,$5,$6,$7,$8,$9,$2,$3,0*
0 Add four circle primitives for the rounded corners*
1,1,$1+$1,$2,$3*
1,1,$1+$1,$4,$5*
1,1,$1+$1,$6,$7*
1,1,$1+$1,$8,$9*
0 Add four rect primitives between the rounded corners*
20,1,$1+$1,$2,$3,$4,$5,0*
20,1,$1+$1,$4,$5,$6,$7,0*
20,1,$1+$1,$6,$7,$8,$9,0*
20,1,$1+$1,$8,$9,$2,$3,0*%
%AMHorizOval*
0 Thick line with rounded ends*
0 $1 width*
0 $2 $3 position (X,Y) of the first rounded end (center of the circle)*
0 $4 $5 position (X,Y) of the second rounded end (center of the circle)*
0 Add line between two ends*
20,1,$1,$2,$3,$4,$5,0*
0 Add two circle primitives to create the rounded ends*
1,1,$1,$2,$3*
1,1,$1,$4,$5*%
%AMFreePoly0*
4,1,6,1.000000,0.000000,0.500000,-0.750000,-0.500000,-0.750000,-0.500000,0.750000,0.500000,0.750000,1.000000,0.000000,1.000000,0.000000,$1*%
%AMFreePoly1*
4,1,6,0.500000,-0.750000,-0.650000,-0.750000,-0.150000,0.000000,-0.650000,0.750000,0.500000,0.750000,0.500000,-0.750000,0.500000,-0.750000,$1*%
G04 Aperture macros list end*
%ADD10C,0.800000*%
%ADD11C,6.400000*%
%ADD12HorizOval,4.000000X-0.866025X-0.500000X0.866025X0.500000X0*%
%ADD13C,2.000000*%
%ADD14O,4.000000X6.000000*%
%ADD15HorizOval,4.000000X-0.866025X0.500000X0.866025X-0.500000X0*%
%ADD16O,2.000000X1.500000*%
%ADD17HorizOval,4.000000X0.866025X-0.500000X-0.866025X0.500000X0*%
%ADD18C,1.524000*%
%ADD19R,1.700000X1.700000*%
%ADD20O,1.700000X1.700000*%
%ADD21R,2.000000X2.000000*%
%ADD22R,2.500000X3.000000*%
%ADD23HorizOval,4.000000X0.866025X0.500000X-0.866025X-0.500000X0*%
%ADD24RoundRect,0.250000X-0.450000X0.350000X-0.450000X-0.350000X0.450000X-0.350000X0.450000X0.350000X0*%
%ADD25RoundRect,0.250000X0.450000X-0.350000X0.450000X0.350000X-0.450000X0.350000X-0.450000X-0.350000X0*%
%ADD26RoundRect,0.250000X0.350000X0.450000X-0.350000X0.450000X-0.350000X-0.450000X0.350000X-0.450000X0*%
%ADD27RoundRect,0.100000X0.100000X-0.637500X0.100000X0.637500X-0.100000X0.637500X-0.100000X-0.637500X0*%
%ADD28RoundRect,0.250000X0.337500X0.475000X-0.337500X0.475000X-0.337500X-0.475000X0.337500X-0.475000X0*%
%ADD29RoundRect,0.250000X0.475000X-0.337500X0.475000X0.337500X-0.475000X0.337500X-0.475000X-0.337500X0*%
%ADD30R,2.000000X1.500000*%
%ADD31R,2.000000X3.800000*%
%ADD32RoundRect,0.020500X-0.764500X-0.184500X0.764500X-0.184500X0.764500X0.184500X-0.764500X0.184500X0*%
%ADD33O,5.200000X2.500000*%
%ADD34R,1.300000X1.550000*%
%ADD35RoundRect,0.250000X-0.650000X0.325000X-0.650000X-0.325000X0.650000X-0.325000X0.650000X0.325000X0*%
%ADD36RoundRect,0.250000X-0.337500X-0.475000X0.337500X-0.475000X0.337500X0.475000X-0.337500X0.475000X0*%
%ADD37RoundRect,0.250000X-0.325000X-0.650000X0.325000X-0.650000X0.325000X0.650000X-0.325000X0.650000X0*%
%ADD38RoundRect,0.250000X-0.350000X-0.450000X0.350000X-0.450000X0.350000X0.450000X-0.350000X0.450000X0*%
%ADD39R,2.200000X1.200000*%
%ADD40R,6.400000X5.800000*%
%ADD41FreePoly0,270.000000*%
%ADD42FreePoly1,270.000000*%
%ADD43R,3.500000X3.500000*%
%ADD44RoundRect,0.750000X-0.750000X-1.000000X0.750000X-1.000000X0.750000X1.000000X-0.750000X1.000000X0*%
%ADD45RoundRect,0.875000X-0.875000X-0.875000X0.875000X-0.875000X0.875000X0.875000X-0.875000X0.875000X0*%
%ADD46RoundRect,0.250000X-0.325000X-0.450000X0.325000X-0.450000X0.325000X0.450000X-0.325000X0.450000X0*%
%ADD47RoundRect,0.250000X0.325000X0.650000X-0.325000X0.650000X-0.325000X-0.650000X0.325000X-0.650000X0*%
%ADD48C,0.650000*%
%ADD49R,1.450000X0.600000*%
%ADD50R,1.450000X0.300000*%
%ADD51O,2.100000X1.000000*%
%ADD52O,1.600000X1.000000*%
%ADD53RoundRect,0.250000X-0.475000X0.337500X-0.475000X-0.337500X0.475000X-0.337500X0.475000X0.337500X0*%
%ADD54R,0.900000X1.500000*%
%ADD55R,1.500000X0.900000*%
%ADD56R,4.100000X4.100000*%
%ADD57RoundRect,0.250000X0.650000X-0.325000X0.650000X0.325000X-0.650000X0.325000X-0.650000X-0.325000X0*%
%ADD58RoundRect,0.150000X0.150000X-0.825000X0.150000X0.825000X-0.150000X0.825000X-0.150000X-0.825000X0*%
G04 APERTURE END LIST*
D10*
%TO.C,H4*%
X164938428Y-24600000D03*
X167338428Y-27000000D03*
X162538428Y-27000000D03*
X164938428Y-29400000D03*
X166635484Y-28697056D03*
X166635484Y-25302944D03*
X163241372Y-25302944D03*
X163241372Y-28697056D03*
D11*
X164938428Y-27000000D03*
%TD*%
D12*
%TO.C,RV4*%
X103133301Y-85873428D03*
X98083301Y-77126572D03*
D13*
X111143555Y-79747595D03*
X109268555Y-76500000D03*
X107393555Y-73252405D03*
%TD*%
D14*
%TO.C,RV2*%
X133988428Y-32170250D03*
X123888428Y-32170250D03*
D13*
X125188428Y-42170250D03*
X128938428Y-42170250D03*
X132688428Y-42170250D03*
%TD*%
D15*
%TO.C,RV1*%
X103133301Y-44126572D03*
X98083301Y-52873428D03*
D13*
X107393555Y-56747595D03*
X109268555Y-53500000D03*
X111143555Y-50252405D03*
%TD*%
D16*
%TO.C,D4*%
X165938428Y-75000000D03*
X165938428Y-55000000D03*
%TD*%
D17*
%TO.C,RV6*%
X159793555Y-77126572D03*
X154743555Y-85873428D03*
D13*
X150483301Y-73252405D03*
X148608301Y-76500000D03*
X146733301Y-79747595D03*
%TD*%
D18*
%TO.C,SW4*%
X141438428Y-159000000D03*
X141438428Y-156500000D03*
X141438428Y-154000000D03*
X116438428Y-159000000D03*
X116438428Y-156500000D03*
X116438428Y-154000000D03*
%TD*%
D10*
%TO.C,H1*%
X90538428Y-169000000D03*
X94635484Y-167302944D03*
X92938428Y-166600000D03*
X91241372Y-170697056D03*
X91241372Y-167302944D03*
X94635484Y-170697056D03*
X92938428Y-171400000D03*
X95338428Y-169000000D03*
D11*
X92938428Y-169000000D03*
%TD*%
D19*
%TO.C,J4*%
X127675428Y-138596000D03*
D20*
X127675428Y-136056000D03*
X127675428Y-133516000D03*
X127675428Y-130976000D03*
X127675428Y-128436000D03*
%TD*%
D21*
%TO.C,SW3*%
X131438428Y-90450000D03*
D13*
X126438428Y-90450000D03*
X128938428Y-90450000D03*
D22*
X134538428Y-97950000D03*
X123338428Y-97950000D03*
D13*
X131438428Y-104950000D03*
X126438428Y-104950000D03*
%TD*%
D14*
%TO.C,RV5*%
X123888428Y-98000000D03*
X133988428Y-98000000D03*
D13*
X132688428Y-88000000D03*
X128938428Y-88000000D03*
X125188428Y-88000000D03*
%TD*%
D10*
%TO.C,H3*%
X94635484Y-25302944D03*
X90538428Y-27000000D03*
X91241372Y-28697056D03*
X94635484Y-28697056D03*
X92938428Y-24600000D03*
X95338428Y-27000000D03*
X92938428Y-29400000D03*
X91241372Y-25302944D03*
D11*
X92938428Y-27000000D03*
%TD*%
D16*
%TO.C,D3*%
X91938428Y-75000000D03*
X91938428Y-55000000D03*
%TD*%
D10*
%TO.C,H2*%
X164938428Y-171400000D03*
X163241372Y-170697056D03*
X163241372Y-167302944D03*
X166635484Y-167302944D03*
D11*
X164938428Y-169000000D03*
D10*
X162538428Y-169000000D03*
X166635484Y-170697056D03*
X164938428Y-166600000D03*
X167338428Y-169000000D03*
%TD*%
D23*
%TO.C,RV3*%
X159793555Y-52873428D03*
X154743555Y-44126572D03*
D13*
X146733301Y-50252405D03*
X148608301Y-53500000D03*
X150483301Y-56747595D03*
%TD*%
D19*
%TO.C,J5*%
X130215428Y-128436000D03*
D20*
X130215428Y-130976000D03*
X130215428Y-133516000D03*
X130215428Y-136056000D03*
X130215428Y-138596000D03*
%TD*%
D19*
%TO.C,J3*%
X127670428Y-141263000D03*
D20*
X130210428Y-141263000D03*
%TD*%
D24*
%TO.C,R2*%
X163938428Y-161000000D03*
X163938428Y-163000000D03*
%TD*%
D25*
%TO.C,R4*%
X163938428Y-158000000D03*
X163938428Y-156000000D03*
%TD*%
D26*
%TO.C,R12*%
X155938428Y-111500000D03*
X153938428Y-111500000D03*
%TD*%
D27*
%TO.C,U7*%
X107363428Y-159862500D03*
X106713428Y-159862500D03*
X106063428Y-159862500D03*
X105413428Y-159862500D03*
X104763428Y-159862500D03*
X104113428Y-159862500D03*
X103463428Y-159862500D03*
X102813428Y-159862500D03*
X102163428Y-159862500D03*
X101513428Y-159862500D03*
X101513428Y-154137500D03*
X102163428Y-154137500D03*
X102813428Y-154137500D03*
X103463428Y-154137500D03*
X104113428Y-154137500D03*
X104763428Y-154137500D03*
X105413428Y-154137500D03*
X106063428Y-154137500D03*
X106713428Y-154137500D03*
X107363428Y-154137500D03*
%TD*%
D24*
%TO.C,R10*%
X102438428Y-163500000D03*
X102438428Y-165500000D03*
%TD*%
D28*
%TO.C,C13*%
X99475928Y-99500000D03*
X97400928Y-99500000D03*
%TD*%
D29*
%TO.C,C11*%
X101438428Y-150537500D03*
X101438428Y-148462500D03*
%TD*%
D30*
%TO.C,U6*%
X140288428Y-37800000D03*
X140288428Y-35500000D03*
D31*
X146588428Y-35500000D03*
D30*
X140288428Y-33200000D03*
%TD*%
D29*
%TO.C,C14*%
X110938428Y-159537500D03*
X110938428Y-157462500D03*
%TD*%
D32*
%TO.C,U3*%
X143568428Y-118950000D03*
X143568428Y-118300000D03*
X143568428Y-117650000D03*
X143568428Y-117000000D03*
X143568428Y-116350000D03*
X143568428Y-115700000D03*
X143568428Y-115050000D03*
X149308428Y-115050000D03*
X149308428Y-115700000D03*
X149308428Y-116350000D03*
X149308428Y-117000000D03*
X149308428Y-117650000D03*
X149308428Y-118300000D03*
X149308428Y-118950000D03*
%TD*%
D33*
%TO.C,U1*%
X143688428Y-144250000D03*
X143688428Y-127750000D03*
X156188428Y-127750000D03*
X156188428Y-144250000D03*
%TD*%
D34*
%TO.C,SW2*%
X166688428Y-123975000D03*
X166688428Y-116025000D03*
X162188428Y-116025000D03*
X162188428Y-123975000D03*
%TD*%
D35*
%TO.C,C15*%
X97438428Y-150525000D03*
X97438428Y-153475000D03*
%TD*%
D36*
%TO.C,C6*%
X137400928Y-122500000D03*
X139475928Y-122500000D03*
%TD*%
D37*
%TO.C,C7*%
X112463428Y-28500000D03*
X115413428Y-28500000D03*
%TD*%
D24*
%TO.C,R9*%
X106438428Y-163500000D03*
X106438428Y-165500000D03*
%TD*%
D37*
%TO.C,C8*%
X110963428Y-42500000D03*
X113913428Y-42500000D03*
%TD*%
%TO.C,C10*%
X141938428Y-42000000D03*
X144888428Y-42000000D03*
%TD*%
D38*
%TO.C,R14*%
X117438428Y-90000000D03*
X119438428Y-90000000D03*
%TD*%
D39*
%TO.C,U4*%
X107738428Y-37780000D03*
D40*
X114038428Y-35500000D03*
D39*
X107738428Y-33220000D03*
%TD*%
D41*
%TO.C,JP1*%
X90938428Y-162500000D03*
D42*
X90938428Y-163950000D03*
%TD*%
D35*
%TO.C,C16*%
X97438428Y-156525000D03*
X97438428Y-159475000D03*
%TD*%
D37*
%TO.C,C9*%
X141963428Y-28500000D03*
X144913428Y-28500000D03*
%TD*%
%TO.C,C18*%
X106463428Y-149500000D03*
X109413428Y-149500000D03*
%TD*%
D43*
%TO.C,J2*%
X102938428Y-65000000D03*
D44*
X96938428Y-65000000D03*
D45*
X99938428Y-60300000D03*
%TD*%
D46*
%TO.C,D5*%
X153913428Y-96500000D03*
X155963428Y-96500000D03*
%TD*%
D38*
%TO.C,R13*%
X138438428Y-90000000D03*
X140438428Y-90000000D03*
%TD*%
D29*
%TO.C,C23*%
X146438428Y-72037500D03*
X146438428Y-69962500D03*
%TD*%
D28*
%TO.C,C5*%
X139475928Y-114000000D03*
X137400928Y-114000000D03*
%TD*%
D25*
%TO.C,R1*%
X159438428Y-166000000D03*
X159438428Y-164000000D03*
%TD*%
D26*
%TO.C,R11*%
X155938428Y-104500000D03*
X153938428Y-104500000D03*
%TD*%
D29*
%TO.C,C22*%
X111438428Y-72037500D03*
X111438428Y-69962500D03*
%TD*%
%TO.C,C1*%
X154438428Y-166037500D03*
X154438428Y-163962500D03*
%TD*%
D34*
%TO.C,SW1*%
X166688428Y-99975000D03*
X166688428Y-92025000D03*
X162188428Y-99975000D03*
X162188428Y-92025000D03*
%TD*%
D47*
%TO.C,C21*%
X145413428Y-122500000D03*
X142463428Y-122500000D03*
%TD*%
D29*
%TO.C,C17*%
X110938428Y-154537500D03*
X110938428Y-152462500D03*
%TD*%
D38*
%TO.C,R8*%
X97438428Y-124000000D03*
X99438428Y-124000000D03*
%TD*%
D48*
%TO.C,J1*%
X161838428Y-110890000D03*
X161838428Y-105110000D03*
D49*
X160393428Y-104750000D03*
X160393428Y-105550000D03*
D50*
X160393428Y-106750000D03*
X160393428Y-107750000D03*
X160393428Y-108250000D03*
X160393428Y-109250000D03*
D49*
X160393428Y-110450000D03*
X160393428Y-111250000D03*
X160393428Y-111250000D03*
X160393428Y-110450000D03*
D50*
X160393428Y-109750000D03*
X160393428Y-108750000D03*
X160393428Y-107250000D03*
X160393428Y-106250000D03*
D49*
X160393428Y-105550000D03*
X160393428Y-104750000D03*
D51*
X161308428Y-112320000D03*
X161308428Y-103680000D03*
D52*
X165488428Y-103680000D03*
X165488428Y-112320000D03*
%TD*%
D38*
%TO.C,R5*%
X147438428Y-100500000D03*
X149438428Y-100500000D03*
%TD*%
D28*
%TO.C,C4*%
X139475928Y-118000000D03*
X137400928Y-118000000D03*
%TD*%
D38*
%TO.C,R7*%
X147438428Y-96500000D03*
X149438428Y-96500000D03*
%TD*%
D24*
%TO.C,R3*%
X163952726Y-151586052D03*
X163952726Y-153586052D03*
%TD*%
D38*
%TO.C,R15*%
X153938428Y-100500000D03*
X155938428Y-100500000D03*
%TD*%
D26*
%TO.C,R6*%
X154438428Y-122500000D03*
X152438428Y-122500000D03*
%TD*%
D53*
%TO.C,C19*%
X110438428Y-163462500D03*
X110438428Y-165537500D03*
%TD*%
D54*
%TO.C,U5*%
X97163428Y-102875000D03*
X98663428Y-102875000D03*
X100163428Y-102875000D03*
X101663428Y-102875000D03*
X103163428Y-102875000D03*
X104663428Y-102875000D03*
X106163428Y-102875000D03*
X107663428Y-102875000D03*
X109163428Y-102875000D03*
X110663428Y-102875000D03*
X112163428Y-102875000D03*
X113663428Y-102875000D03*
X115163428Y-102875000D03*
X116663428Y-102875000D03*
X118163428Y-102875000D03*
X119663428Y-102875000D03*
D55*
X120413428Y-104750000D03*
X120413428Y-106250000D03*
X120413428Y-107750000D03*
X120413428Y-109250000D03*
X120413428Y-110750000D03*
X120413428Y-112250000D03*
X120413428Y-113750000D03*
X120413428Y-115250000D03*
X120413428Y-116750000D03*
X120413428Y-118250000D03*
D54*
X119763428Y-120125000D03*
X118263428Y-120125000D03*
X116763428Y-120125000D03*
X115263428Y-120125000D03*
X113763428Y-120125000D03*
X112263428Y-120125000D03*
X110763428Y-120125000D03*
X109263428Y-120125000D03*
X107763428Y-120125000D03*
X106263428Y-120125000D03*
X104763428Y-120125000D03*
X103263428Y-120125000D03*
X101763428Y-120125000D03*
X100163428Y-120125000D03*
X98663428Y-120125000D03*
X97263428Y-120125000D03*
D56*
X105203428Y-110310000D03*
%TD*%
D47*
%TO.C,C2*%
X166869157Y-148987206D03*
X163919157Y-148987206D03*
%TD*%
D18*
%TO.C,O1*%
X125128428Y-55500000D03*
X127668428Y-55500000D03*
X130208428Y-55500000D03*
X132748428Y-55500000D03*
%TD*%
D57*
%TO.C,C3*%
X154438428Y-152475000D03*
X154438428Y-149525000D03*
%TD*%
D58*
%TO.C,U2*%
X159843428Y-160475000D03*
X158573428Y-160475000D03*
X157303428Y-160475000D03*
X156033428Y-160475000D03*
X156033428Y-155525000D03*
X157303428Y-155525000D03*
X158573428Y-155525000D03*
X159843428Y-155525000D03*
%TD*%
D29*
%TO.C,C20*%
X159438428Y-152037500D03*
X159438428Y-149962500D03*
%TD*%
D28*
%TO.C,C12*%
X104475928Y-124000000D03*
X102400928Y-124000000D03*
%TD*%
D33*
%TO.C,U8*%
X114188428Y-144250000D03*
X114188428Y-127750000D03*
X101688428Y-144250000D03*
X101688428Y-127750000D03*
%TD*%
M02*
