%TF.GenerationSoftware,KiCad,Pcbnew,7.0.8*%
%TF.CreationDate,2023-12-03T14:11:45+01:00*%
%TF.ProjectId,Supersonic Quantumbox,53757065-7273-46f6-9e69-63205175616e,rev?*%
%TF.SameCoordinates,Original*%
%TF.FileFunction,Copper,L4,Bot*%
%TF.FilePolarity,Positive*%
%FSLAX46Y46*%
G04 Gerber Fmt 4.6, Leading zero omitted, Abs format (unit mm)*
G04 Created by KiCad (PCBNEW 7.0.8) date 2023-12-03 14:11:45*
%MOMM*%
%LPD*%
G01*
G04 APERTURE LIST*
G04 Aperture macros list*
%AMRoundRect*
0 Rectangle with rounded corners*
0 $1 Rounding radius*
0 $2 $3 $4 $5 $6 $7 $8 $9 X,Y pos of 4 corners*
0 Add a 4 corners polygon primitive as box body*
4,1,4,$2,$3,$4,$5,$6,$7,$8,$9,$2,$3,0*
0 Add four circle primitives for the rounded corners*
1,1,$1+$1,$2,$3*
1,1,$1+$1,$4,$5*
1,1,$1+$1,$6,$7*
1,1,$1+$1,$8,$9*
0 Add four rect primitives between the rounded corners*
20,1,$1+$1,$2,$3,$4,$5,0*
20,1,$1+$1,$4,$5,$6,$7,0*
20,1,$1+$1,$6,$7,$8,$9,0*
20,1,$1+$1,$8,$9,$2,$3,0*%
%AMFreePoly0*
4,1,6,1.000000,0.000000,0.500000,-0.750000,-0.500000,-0.750000,-0.500000,0.750000,0.500000,0.750000,1.000000,0.000000,1.000000,0.000000,$1*%
%AMFreePoly1*
4,1,6,0.500000,-0.750000,-0.650000,-0.750000,-0.150000,0.000000,-0.650000,0.750000,0.500000,0.750000,0.500000,-0.750000,0.500000,-0.750000,$1*%
G04 Aperture macros list end*
%TA.AperFunction,SMDPad,CuDef*%
%ADD10R,0.900000X1.500000*%
%TD*%
%TA.AperFunction,SMDPad,CuDef*%
%ADD11R,1.500000X0.900000*%
%TD*%
%TA.AperFunction,SMDPad,CuDef*%
%ADD12R,0.900000X0.900000*%
%TD*%
%TA.AperFunction,ComponentPad*%
%ADD13C,0.600000*%
%TD*%
%TA.AperFunction,SMDPad,CuDef*%
%ADD14R,1.000000X0.250000*%
%TD*%
%TA.AperFunction,SMDPad,CuDef*%
%ADD15R,0.250000X1.000000*%
%TD*%
%TA.AperFunction,SMDPad,CuDef*%
%ADD16R,3.100000X3.100000*%
%TD*%
%TA.AperFunction,ComponentPad*%
%ADD17R,1.700000X1.700000*%
%TD*%
%TA.AperFunction,ComponentPad*%
%ADD18O,1.700000X1.700000*%
%TD*%
%TA.AperFunction,ComponentPad*%
%ADD19C,0.700000*%
%TD*%
%TA.AperFunction,ComponentPad*%
%ADD20C,4.400000*%
%TD*%
%TA.AperFunction,ComponentPad*%
%ADD21C,1.800000*%
%TD*%
%TA.AperFunction,ComponentPad*%
%ADD22R,2.000000X2.000000*%
%TD*%
%TA.AperFunction,ComponentPad*%
%ADD23C,2.000000*%
%TD*%
%TA.AperFunction,ComponentPad*%
%ADD24R,2.500000X3.000000*%
%TD*%
%TA.AperFunction,ComponentPad*%
%ADD25R,1.800000X1.800000*%
%TD*%
%TA.AperFunction,ComponentPad*%
%ADD26RoundRect,0.750000X0.750000X-1.250000X0.750000X1.250000X-0.750000X1.250000X-0.750000X-1.250000X0*%
%TD*%
%TA.AperFunction,SMDPad,CuDef*%
%ADD27RoundRect,0.225000X-0.225000X-0.250000X0.225000X-0.250000X0.225000X0.250000X-0.225000X0.250000X0*%
%TD*%
%TA.AperFunction,SMDPad,CuDef*%
%ADD28RoundRect,0.200000X0.200000X0.275000X-0.200000X0.275000X-0.200000X-0.275000X0.200000X-0.275000X0*%
%TD*%
%TA.AperFunction,SMDPad,CuDef*%
%ADD29R,1.500000X2.000000*%
%TD*%
%TA.AperFunction,SMDPad,CuDef*%
%ADD30R,3.800000X2.000000*%
%TD*%
%TA.AperFunction,SMDPad,CuDef*%
%ADD31RoundRect,0.250000X0.325000X0.650000X-0.325000X0.650000X-0.325000X-0.650000X0.325000X-0.650000X0*%
%TD*%
%TA.AperFunction,SMDPad,CuDef*%
%ADD32RoundRect,0.250000X-0.275000X0.450000X-0.275000X-0.450000X0.275000X-0.450000X0.275000X0.450000X0*%
%TD*%
%TA.AperFunction,SMDPad,CuDef*%
%ADD33R,1.100000X0.300000*%
%TD*%
%TA.AperFunction,SMDPad,CuDef*%
%ADD34R,3.100000X2.300000*%
%TD*%
%TA.AperFunction,SMDPad,CuDef*%
%ADD35RoundRect,0.200000X-0.275000X0.200000X-0.275000X-0.200000X0.275000X-0.200000X0.275000X0.200000X0*%
%TD*%
%TA.AperFunction,ComponentPad*%
%ADD36R,1.600000X1.600000*%
%TD*%
%TA.AperFunction,ComponentPad*%
%ADD37C,1.600000*%
%TD*%
%TA.AperFunction,SMDPad,CuDef*%
%ADD38RoundRect,0.200000X-0.200000X-0.275000X0.200000X-0.275000X0.200000X0.275000X-0.200000X0.275000X0*%
%TD*%
%TA.AperFunction,SMDPad,CuDef*%
%ADD39RoundRect,0.250000X-0.650000X0.325000X-0.650000X-0.325000X0.650000X-0.325000X0.650000X0.325000X0*%
%TD*%
%TA.AperFunction,SMDPad,CuDef*%
%ADD40RoundRect,0.225000X0.225000X0.250000X-0.225000X0.250000X-0.225000X-0.250000X0.225000X-0.250000X0*%
%TD*%
%TA.AperFunction,ComponentPad*%
%ADD41C,2.400000*%
%TD*%
%TA.AperFunction,ComponentPad*%
%ADD42O,5.200000X2.500000*%
%TD*%
%TA.AperFunction,SMDPad,CuDef*%
%ADD43RoundRect,0.250000X0.650000X-0.325000X0.650000X0.325000X-0.650000X0.325000X-0.650000X-0.325000X0*%
%TD*%
%TA.AperFunction,SMDPad,CuDef*%
%ADD44RoundRect,0.225000X-0.250000X0.225000X-0.250000X-0.225000X0.250000X-0.225000X0.250000X0.225000X0*%
%TD*%
%TA.AperFunction,SMDPad,CuDef*%
%ADD45R,1.450000X0.600000*%
%TD*%
%TA.AperFunction,SMDPad,CuDef*%
%ADD46R,1.450000X0.300000*%
%TD*%
%TA.AperFunction,ComponentPad*%
%ADD47O,1.600000X1.000000*%
%TD*%
%TA.AperFunction,ComponentPad*%
%ADD48O,2.100000X1.000000*%
%TD*%
%TA.AperFunction,SMDPad,CuDef*%
%ADD49RoundRect,0.200000X0.275000X-0.200000X0.275000X0.200000X-0.275000X0.200000X-0.275000X-0.200000X0*%
%TD*%
%TA.AperFunction,SMDPad,CuDef*%
%ADD50RoundRect,0.250000X0.325000X0.450000X-0.325000X0.450000X-0.325000X-0.450000X0.325000X-0.450000X0*%
%TD*%
%TA.AperFunction,SMDPad,CuDef*%
%ADD51RoundRect,0.250000X-0.325000X-0.650000X0.325000X-0.650000X0.325000X0.650000X-0.325000X0.650000X0*%
%TD*%
%TA.AperFunction,SMDPad,CuDef*%
%ADD52FreePoly0,90.000000*%
%TD*%
%TA.AperFunction,SMDPad,CuDef*%
%ADD53FreePoly1,90.000000*%
%TD*%
%TA.AperFunction,ComponentPad*%
%ADD54R,3.500000X3.500000*%
%TD*%
%TA.AperFunction,ComponentPad*%
%ADD55RoundRect,0.750000X-1.000000X0.750000X-1.000000X-0.750000X1.000000X-0.750000X1.000000X0.750000X0*%
%TD*%
%TA.AperFunction,ComponentPad*%
%ADD56RoundRect,0.875000X-0.875000X0.875000X-0.875000X-0.875000X0.875000X-0.875000X0.875000X0.875000X0*%
%TD*%
%TA.AperFunction,SMDPad,CuDef*%
%ADD57RoundRect,0.150000X-0.150000X0.512500X-0.150000X-0.512500X0.150000X-0.512500X0.150000X0.512500X0*%
%TD*%
%TA.AperFunction,SMDPad,CuDef*%
%ADD58RoundRect,0.150000X0.150000X-0.825000X0.150000X0.825000X-0.150000X0.825000X-0.150000X-0.825000X0*%
%TD*%
%TA.AperFunction,ViaPad*%
%ADD59C,0.800000*%
%TD*%
%TA.AperFunction,Conductor*%
%ADD60C,0.400000*%
%TD*%
%TA.AperFunction,Conductor*%
%ADD61C,0.200000*%
%TD*%
%TA.AperFunction,Conductor*%
%ADD62C,0.250000*%
%TD*%
G04 APERTURE END LIST*
D10*
%TO.P,U9,1,GND*%
%TO.N,GNDREF*%
X77740000Y-77250000D03*
%TO.P,U9,2,3V3*%
%TO.N,+3V3*%
X79010000Y-77250000D03*
%TO.P,U9,3,EN*%
%TO.N,/EN*%
X80280000Y-77250000D03*
%TO.P,U9,4,IO4*%
%TO.N,/Pot1*%
X81550000Y-77250000D03*
%TO.P,U9,5,IO5*%
%TO.N,/Pot2*%
X82820000Y-77250000D03*
%TO.P,U9,6,IO6*%
%TO.N,/Pot3*%
X84090000Y-77250000D03*
%TO.P,U9,7,IO7*%
%TO.N,unconnected-(U9-IO7-Pad7)*%
X85360000Y-77250000D03*
%TO.P,U9,8,IO15*%
%TO.N,unconnected-(U9-IO15-Pad8)*%
X86630000Y-77250000D03*
%TO.P,U9,9,IO16*%
%TO.N,/ENC_SW*%
X87900000Y-77250000D03*
%TO.P,U9,10,IO17*%
%TO.N,/ENC_A*%
X89170000Y-77250000D03*
%TO.P,U9,11,IO18*%
%TO.N,/ENC_B*%
X90440000Y-77250000D03*
%TO.P,U9,12,IO8*%
%TO.N,unconnected-(U9-IO8-Pad12)*%
X91710000Y-77250000D03*
%TO.P,U9,13,IO19*%
%TO.N,/USB_D-*%
X92980000Y-77250000D03*
%TO.P,U9,14,IO20*%
%TO.N,/USB_D+*%
X94250000Y-77250000D03*
D11*
%TO.P,U9,15,IO3*%
%TO.N,unconnected-(U9-IO3-Pad15)*%
X95500000Y-79015000D03*
%TO.P,U9,16,IO46*%
%TO.N,unconnected-(U9-IO46-Pad16)*%
X95500000Y-80285000D03*
%TO.P,U9,17,IO9*%
%TO.N,unconnected-(U9-IO9-Pad17)*%
X95500000Y-81555000D03*
%TO.P,U9,18,IO10*%
%TO.N,/LCD_CS*%
X95500000Y-82825000D03*
%TO.P,U9,19,IO11*%
%TO.N,/LCD_MOSI*%
X95500000Y-84095000D03*
%TO.P,U9,20,IO12*%
%TO.N,/LCD_CLK*%
X95500000Y-85365000D03*
%TO.P,U9,21,IO13*%
%TO.N,/SPI_MISO*%
X95500000Y-86635000D03*
%TO.P,U9,22,IO14*%
%TO.N,/LCD_RST*%
X95500000Y-87905000D03*
%TO.P,U9,23,IO21*%
%TO.N,/LCD_DC*%
X95500000Y-89175000D03*
%TO.P,U9,24,IO47*%
%TO.N,unconnected-(U9-IO47-Pad24)*%
X95500000Y-90445000D03*
%TO.P,U9,25,IO48*%
%TO.N,unconnected-(U9-IO48-Pad25)*%
X95500000Y-91715000D03*
%TO.P,U9,26,IO45*%
%TO.N,unconnected-(U9-IO45-Pad26)*%
X95500000Y-92985000D03*
D10*
%TO.P,U9,27,IO0*%
%TO.N,/IO0*%
X94250000Y-94750000D03*
%TO.P,U9,28,IO35*%
%TO.N,/MCLK*%
X92980000Y-94750000D03*
%TO.P,U9,29,IO36*%
%TO.N,/DIN*%
X91710000Y-94750000D03*
%TO.P,U9,30,IO37*%
%TO.N,/BCLK*%
X90440000Y-94750000D03*
%TO.P,U9,31,IO38*%
%TO.N,/DOUT*%
X89170000Y-94750000D03*
%TO.P,U9,32,IO39*%
%TO.N,/LRCLK*%
X87900000Y-94750000D03*
%TO.P,U9,33,IO40*%
%TO.N,unconnected-(U9-IO40-Pad33)*%
X86630000Y-94750000D03*
%TO.P,U9,34,IO41*%
%TO.N,/IO41*%
X85360000Y-94750000D03*
%TO.P,U9,35,IO42*%
%TO.N,/IO42*%
X84090000Y-94750000D03*
%TO.P,U9,36,RXD0*%
%TO.N,unconnected-(U9-RXD0-Pad36)*%
X82820000Y-94750000D03*
%TO.P,U9,37,TXD0*%
%TO.N,unconnected-(U9-TXD0-Pad37)*%
X81550000Y-94750000D03*
%TO.P,U9,38,IO2*%
%TO.N,/IO2*%
X80280000Y-94750000D03*
%TO.P,U9,39,IO1*%
%TO.N,/IO1*%
X79010000Y-94750000D03*
%TO.P,U9,40,GND*%
%TO.N,GNDREF*%
X77740000Y-94750000D03*
D12*
%TO.P,U9,41*%
%TO.N,N/C*%
X84060000Y-83100000D03*
D13*
X84760000Y-83100000D03*
D12*
X85460000Y-83100000D03*
D13*
X86160000Y-83100000D03*
D12*
X86860000Y-83100000D03*
D13*
X84060000Y-83800000D03*
X85460000Y-83800000D03*
X86860000Y-83800000D03*
D12*
X84060000Y-84500000D03*
D13*
X84760000Y-84500000D03*
D12*
X85460000Y-84500000D03*
D13*
X86160000Y-84500000D03*
D12*
X86860000Y-84500000D03*
D13*
X84060000Y-85200000D03*
X85460000Y-85200000D03*
X86860000Y-85200000D03*
D12*
X84060000Y-85900000D03*
D13*
X84760000Y-85900000D03*
D12*
X85460000Y-85900000D03*
D13*
X86160000Y-85900000D03*
D12*
X86860000Y-85900000D03*
%TD*%
D14*
%TO.P,IC1,1,VCOC*%
%TO.N,GNDREF*%
X90650000Y-104500000D03*
%TO.P,IC1,2,PS*%
%TO.N,+3V3*%
X90650000Y-104000000D03*
%TO.P,IC1,3,CKS3*%
%TO.N,GNDREF*%
X90650000Y-103500000D03*
%TO.P,IC1,4,CKS2*%
%TO.N,+3V3*%
X90650000Y-103000000D03*
%TO.P,IC1,5,CKS1*%
%TO.N,GNDREF*%
X90650000Y-102500000D03*
%TO.P,IC1,6,CKS0/TDMI*%
%TO.N,+3V3*%
X90650000Y-102000000D03*
%TO.P,IC1,7,LRCK*%
%TO.N,/LRCLK*%
X90650000Y-101500000D03*
D15*
%TO.P,IC1,8,SDTO*%
%TO.N,/DOUT*%
X91500000Y-100650000D03*
%TO.P,IC1,9,BICK*%
%TO.N,/BCLK*%
X92000000Y-100650000D03*
%TO.P,IC1,10,SDTI*%
%TO.N,/DIN*%
X92500000Y-100650000D03*
%TO.P,IC1,11,MCKI*%
%TO.N,/MCLK*%
X93000000Y-100650000D03*
%TO.P,IC1,12,TVDD*%
%TO.N,+3V3*%
X93500000Y-100650000D03*
%TO.P,IC1,13,VSS2*%
%TO.N,GNDREF*%
X94000000Y-100650000D03*
%TO.P,IC1,14,VDD18*%
%TO.N,Net-(IC1-VDD18)*%
X94500000Y-100650000D03*
D14*
%TO.P,IC1,15,PDN*%
%TO.N,+3V3*%
X95350000Y-101500000D03*
%TO.P,IC1,16,PMADL/SCL*%
X95350000Y-102000000D03*
%TO.P,IC1,17,PMADR/SDA*%
X95350000Y-102500000D03*
%TO.P,IC1,18,PMDAL/CAD0*%
X95350000Y-103000000D03*
%TO.P,IC1,19,PMDAR/CAD1*%
X95350000Y-103500000D03*
%TO.P,IC1,20,LOPS*%
%TO.N,GNDREF*%
X95350000Y-104000000D03*
%TO.P,IC1,21,LDOE*%
%TO.N,+3V3*%
X95350000Y-104500000D03*
D15*
%TO.P,IC1,22,LIN*%
%TO.N,/LINE_IN*%
X94500000Y-105350000D03*
%TO.P,IC1,23,RIN*%
X94000000Y-105350000D03*
%TO.P,IC1,24,AVDD*%
%TO.N,+3.3VA*%
X93500000Y-105350000D03*
%TO.P,IC1,25,VSS1*%
%TO.N,GNDREF*%
X93000000Y-105350000D03*
%TO.P,IC1,26,VCOM*%
%TO.N,Net-(IC1-VCOM)*%
X92500000Y-105350000D03*
%TO.P,IC1,27,LOUT*%
%TO.N,Net-(IC1-LOUT)*%
X92000000Y-105350000D03*
%TO.P,IC1,28,ROUT*%
%TO.N,unconnected-(IC1-ROUT-Pad28)*%
X91500000Y-105350000D03*
D16*
%TO.P,IC1,29,THERMAL_PAD*%
%TO.N,GNDREF*%
X93000000Y-103000000D03*
%TD*%
D17*
%TO.P,J3,1,Pin_1*%
%TO.N,/IO42*%
X80500000Y-97920000D03*
D18*
%TO.P,J3,2,Pin_2*%
%TO.N,GNDREF*%
X77960000Y-97920000D03*
%TO.P,J3,3,Pin_3*%
%TO.N,/IO41*%
X80500000Y-100460000D03*
%TO.P,J3,4,Pin_4*%
%TO.N,/IO1*%
X77960000Y-100460000D03*
%TO.P,J3,5,Pin_5*%
%TO.N,+3V3*%
X80500000Y-103000000D03*
%TO.P,J3,6,Pin_6*%
%TO.N,/IO2*%
X77960000Y-103000000D03*
%TD*%
D19*
%TO.P,H4,1,1*%
%TO.N,unconnected-(H4-Pad1)*%
X135350000Y-152000000D03*
X135833274Y-150833274D03*
X135833274Y-153166726D03*
X137000000Y-150350000D03*
D20*
X137000000Y-152000000D03*
D19*
X137000000Y-153650000D03*
X138166726Y-150833274D03*
X138166726Y-153166726D03*
X138650000Y-152000000D03*
%TD*%
D21*
%TO.P,SW4,1,A*%
%TO.N,/DSP_IN*%
X108000000Y-144577500D03*
%TO.P,SW4,2,B*%
%TO.N,/JACK_IN*%
X108000000Y-139577500D03*
%TO.P,SW4,3,C*%
%TO.N,/BYPASS*%
X108000000Y-142077500D03*
%TO.P,SW4,4,A*%
%TO.N,/DSP_OUT*%
X102000000Y-139577500D03*
%TO.P,SW4,5,B*%
%TO.N,/JACK_OUT*%
X102000000Y-144577500D03*
%TO.P,SW4,6,C*%
%TO.N,/BYPASS*%
X102000000Y-142077500D03*
%TD*%
D19*
%TO.P,H2,1,1*%
%TO.N,unconnected-(H2-Pad1)*%
X135350000Y-58000000D03*
X135833274Y-56833274D03*
X135833274Y-59166726D03*
X137000000Y-56350000D03*
D20*
X137000000Y-58000000D03*
D19*
X137000000Y-59650000D03*
X138166726Y-56833274D03*
X138166726Y-59166726D03*
X138650000Y-58000000D03*
%TD*%
D22*
%TO.P,SW3,A,A*%
%TO.N,/ENC_A*%
X127500000Y-100000000D03*
D23*
%TO.P,SW3,B,B*%
%TO.N,/ENC_B*%
X132500000Y-100000000D03*
%TO.P,SW3,C,C*%
%TO.N,GNDREF*%
X130000000Y-100000000D03*
D24*
%TO.P,SW3,MP*%
%TO.N,N/C*%
X124400000Y-92500000D03*
X135600000Y-92500000D03*
D23*
%TO.P,SW3,S1,S1*%
%TO.N,GNDREF*%
X127500000Y-85500000D03*
%TO.P,SW3,S2,S2*%
%TO.N,/ENC_SW*%
X132500000Y-85500000D03*
%TD*%
D25*
%TO.P,RV3,1,1*%
%TO.N,GNDREF*%
X126100000Y-70000000D03*
D21*
%TO.P,RV3,2,2*%
%TO.N,/Pot3*%
X128600000Y-70000000D03*
%TO.P,RV3,3,3*%
%TO.N,Net-(R5-Pad2)*%
X131100000Y-70000000D03*
D26*
%TO.P,RV3,MP*%
%TO.N,N/C*%
X124200000Y-63000000D03*
X133000000Y-63000000D03*
%TD*%
D25*
%TO.P,RV2,1,1*%
%TO.N,GNDREF*%
X102500000Y-70000000D03*
D21*
%TO.P,RV2,2,2*%
%TO.N,/Pot2*%
X105000000Y-70000000D03*
%TO.P,RV2,3,3*%
%TO.N,Net-(R7-Pad2)*%
X107500000Y-70000000D03*
D26*
%TO.P,RV2,MP*%
%TO.N,N/C*%
X100600000Y-63000000D03*
X109400000Y-63000000D03*
%TD*%
D19*
%TO.P,H3,1,1*%
%TO.N,unconnected-(H3-Pad1)*%
X71350000Y-152000000D03*
X71833274Y-150833274D03*
X71833274Y-153166726D03*
X73000000Y-150350000D03*
D20*
X73000000Y-152000000D03*
D19*
X73000000Y-153650000D03*
X74166726Y-150833274D03*
X74166726Y-153166726D03*
X74650000Y-152000000D03*
%TD*%
D25*
%TO.P,RV1,1,1*%
%TO.N,GNDREF*%
X78900000Y-70000000D03*
D21*
%TO.P,RV1,2,2*%
%TO.N,/Pot1*%
X81400000Y-70000000D03*
%TO.P,RV1,3,3*%
%TO.N,Net-(R9-Pad2)*%
X83900000Y-70000000D03*
D26*
%TO.P,RV1,MP*%
%TO.N,N/C*%
X77000000Y-63000000D03*
X85800000Y-63000000D03*
%TD*%
D19*
%TO.P,H1,1,1*%
%TO.N,Net-(JP1-B)*%
X71350000Y-58000000D03*
X71833274Y-56833274D03*
X71833274Y-59166726D03*
X73000000Y-56350000D03*
D20*
X73000000Y-58000000D03*
D19*
X73000000Y-59650000D03*
X74166726Y-56833274D03*
X74166726Y-59166726D03*
X74650000Y-58000000D03*
%TD*%
D27*
%TO.P,C12,1*%
%TO.N,GNDREF*%
X80975000Y-74250000D03*
%TO.P,C12,2*%
%TO.N,/EN*%
X82525000Y-74250000D03*
%TD*%
D28*
%TO.P,R13,1*%
%TO.N,/ENC_A*%
X89575000Y-74250000D03*
%TO.P,R13,2*%
%TO.N,+3V3*%
X87925000Y-74250000D03*
%TD*%
D27*
%TO.P,C11,1*%
%TO.N,GNDREF*%
X77475000Y-74250000D03*
%TO.P,C11,2*%
%TO.N,+3V3*%
X79025000Y-74250000D03*
%TD*%
D28*
%TO.P,R11,1*%
%TO.N,Net-(J1-CC1)*%
X129825000Y-75250000D03*
%TO.P,R11,2*%
%TO.N,GNDREF*%
X128175000Y-75250000D03*
%TD*%
D29*
%TO.P,U6,1,GND*%
%TO.N,GNDREF*%
X103700000Y-73850000D03*
%TO.P,U6,2,VO*%
%TO.N,+3V3*%
X106000000Y-73850000D03*
D30*
X106000000Y-80150000D03*
D29*
%TO.P,U6,3,VI*%
%TO.N,+5V*%
X108300000Y-73850000D03*
%TD*%
%TO.P,U2,1,GND*%
%TO.N,GNDREF*%
X117700000Y-73850000D03*
%TO.P,U2,2,VO*%
%TO.N,+5V*%
X120000000Y-73850000D03*
D30*
X120000000Y-80150000D03*
D29*
%TO.P,U2,3,VI*%
%TO.N,+9V*%
X122300000Y-73850000D03*
%TD*%
D31*
%TO.P,C7,1*%
%TO.N,GNDREF*%
X106475000Y-130000000D03*
%TO.P,C7,2*%
%TO.N,Net-(C7-Pad2)*%
X103525000Y-130000000D03*
%TD*%
D32*
%TO.P,SW2,1,1*%
%TO.N,GNDREF*%
X137280000Y-84200000D03*
X137280000Y-87800000D03*
%TO.P,SW2,2,2*%
%TO.N,/IO0*%
X138720000Y-84200000D03*
X138720000Y-87800000D03*
%TD*%
D33*
%TO.P,J2,1,Pin_1*%
%TO.N,GNDREF*%
X104650000Y-87250000D03*
%TO.P,J2,2,Pin_2*%
%TO.N,Net-(J2-Pin_2)*%
X104650000Y-87750000D03*
%TO.P,J2,3,Pin_3*%
%TO.N,+3V3*%
X104650000Y-88250000D03*
%TO.P,J2,4,Pin_4*%
X104650000Y-88750000D03*
%TO.P,J2,5,Pin_5*%
X104650000Y-89250000D03*
%TO.P,J2,6,Pin_6*%
%TO.N,/LCD_CS*%
X104650000Y-89750000D03*
%TO.P,J2,7,Pin_7*%
%TO.N,/LCD_CLK*%
X104650000Y-90250000D03*
%TO.P,J2,8,Pin_8*%
%TO.N,/LCD_MOSI*%
X104650000Y-90750000D03*
%TO.P,J2,9,Pin_9*%
%TO.N,/LCD_RST*%
X104650000Y-91250000D03*
%TO.P,J2,10,Pin_10*%
%TO.N,/LCD_DC*%
X104650000Y-91750000D03*
%TO.P,J2,11,Pin_11*%
%TO.N,GNDREF*%
X104650000Y-92250000D03*
%TO.P,J2,12,Pin_12*%
%TO.N,unconnected-(J2-Pin_12-Pad12)*%
X104650000Y-92750000D03*
D34*
%TO.P,J2,MP*%
%TO.N,N/C*%
X106350000Y-85580000D03*
X106350000Y-94420000D03*
%TD*%
D35*
%TO.P,R1,1*%
%TO.N,+3.3VA*%
X105000000Y-125175000D03*
%TO.P,R1,2*%
%TO.N,Net-(C7-Pad2)*%
X105000000Y-126825000D03*
%TD*%
D36*
%TO.P,C19,1*%
%TO.N,+5V*%
X117135242Y-86000000D03*
D37*
%TO.P,C19,2*%
%TO.N,GNDREF*%
X119635242Y-86000000D03*
%TD*%
D38*
%TO.P,R14,1*%
%TO.N,/ENC_B*%
X91350000Y-74250000D03*
%TO.P,R14,2*%
%TO.N,+3V3*%
X93000000Y-74250000D03*
%TD*%
D39*
%TO.P,C9,1*%
%TO.N,GNDREF*%
X113000000Y-75525000D03*
%TO.P,C9,2*%
%TO.N,+5V*%
X113000000Y-78475000D03*
%TD*%
D40*
%TO.P,C17,1*%
%TO.N,+3.3VA*%
X103775000Y-114000000D03*
%TO.P,C17,2*%
%TO.N,GNDREF*%
X102225000Y-114000000D03*
%TD*%
D35*
%TO.P,R4,1*%
%TO.N,Net-(U5A--)*%
X109000000Y-120175000D03*
%TO.P,R4,2*%
%TO.N,Net-(C3-Pad1)*%
X109000000Y-121825000D03*
%TD*%
D41*
%TO.P,C3,1*%
%TO.N,Net-(C3-Pad1)*%
X73000000Y-114000000D03*
%TO.P,C3,2*%
%TO.N,/LINE_IN*%
X95500000Y-114000000D03*
%TD*%
D42*
%TO.P,U1,1,Signal*%
%TO.N,/JACK_IN*%
X116750000Y-150250000D03*
X116750000Y-133750000D03*
%TO.P,U1,2,GND*%
%TO.N,GNDREF*%
X129250000Y-150250000D03*
X129250000Y-133750000D03*
%TD*%
D28*
%TO.P,R6,1*%
%TO.N,GNDREF*%
X105825000Y-133000000D03*
%TO.P,R6,2*%
%TO.N,/DSP_OUT*%
X104175000Y-133000000D03*
%TD*%
D40*
%TO.P,C13,1*%
%TO.N,GNDREF*%
X95525000Y-107000000D03*
%TO.P,C13,2*%
%TO.N,+3.3VA*%
X93975000Y-107000000D03*
%TD*%
D38*
%TO.P,R7,1*%
%TO.N,+3V3*%
X104425000Y-67000000D03*
%TO.P,R7,2*%
%TO.N,Net-(R7-Pad2)*%
X106075000Y-67000000D03*
%TD*%
D27*
%TO.P,C6,1*%
%TO.N,GNDREF*%
X90475000Y-107000000D03*
%TO.P,C6,2*%
%TO.N,Net-(IC1-VCOM)*%
X92025000Y-107000000D03*
%TD*%
D43*
%TO.P,C10,1*%
%TO.N,GNDREF*%
X99150000Y-76475000D03*
%TO.P,C10,2*%
%TO.N,+3V3*%
X99150000Y-73525000D03*
%TD*%
D31*
%TO.P,C15,1*%
%TO.N,GNDREF*%
X119475000Y-101000000D03*
%TO.P,C15,2*%
%TO.N,+5V*%
X116525000Y-101000000D03*
%TD*%
D41*
%TO.P,C14,1*%
%TO.N,/DSP_OUT*%
X73000000Y-126000000D03*
%TO.P,C14,2*%
%TO.N,Net-(U5B--)*%
X95500000Y-126000000D03*
%TD*%
D44*
%TO.P,C4,1*%
%TO.N,Net-(IC1-VDD18)*%
X97500000Y-100225000D03*
%TO.P,C4,2*%
%TO.N,GNDREF*%
X97500000Y-101775000D03*
%TD*%
D41*
%TO.P,C2,1*%
%TO.N,GNDREF*%
X137000000Y-118000000D03*
%TO.P,C2,2*%
%TO.N,Net-(C2-Pad2)*%
X114500000Y-118000000D03*
%TD*%
D38*
%TO.P,R9,1*%
%TO.N,+3V3*%
X80675000Y-67000000D03*
%TO.P,R9,2*%
%TO.N,Net-(R9-Pad2)*%
X82325000Y-67000000D03*
%TD*%
D42*
%TO.P,U8,1,Signal*%
%TO.N,/JACK_OUT*%
X93250000Y-133750000D03*
X93250000Y-150250000D03*
%TO.P,U8,2,GND*%
%TO.N,GNDREF*%
X80750000Y-133750000D03*
X80750000Y-150250000D03*
%TD*%
D45*
%TO.P,J1,A1,GND*%
%TO.N,GNDREF*%
X133085000Y-73750000D03*
%TO.P,J1,A4,VBUS*%
%TO.N,+5V*%
X133085000Y-74550000D03*
D46*
%TO.P,J1,A5,CC1*%
%TO.N,Net-(J1-CC1)*%
X133085000Y-75750000D03*
%TO.P,J1,A6,D+*%
%TO.N,/USB_D+*%
X133085000Y-76750000D03*
%TO.P,J1,A7,D-*%
%TO.N,/USB_D-*%
X133085000Y-77250000D03*
%TO.P,J1,A8,SBU1*%
%TO.N,unconnected-(J1-SBU1-PadA8)*%
X133085000Y-78250000D03*
D45*
%TO.P,J1,A9,VBUS*%
%TO.N,+5V*%
X133085000Y-79450000D03*
%TO.P,J1,A12,GND*%
%TO.N,GNDREF*%
X133085000Y-80250000D03*
%TO.P,J1,B1,GND*%
X133085000Y-80250000D03*
%TO.P,J1,B4,VBUS*%
%TO.N,+5V*%
X133085000Y-79450000D03*
D46*
%TO.P,J1,B5,CC2*%
%TO.N,Net-(J1-CC2)*%
X133085000Y-78750000D03*
%TO.P,J1,B6,D+*%
%TO.N,/USB_D+*%
X133085000Y-77750000D03*
%TO.P,J1,B7,D-*%
%TO.N,/USB_D-*%
X133085000Y-76250000D03*
%TO.P,J1,B8,SBU2*%
%TO.N,unconnected-(J1-SBU2-PadB8)*%
X133085000Y-75250000D03*
D45*
%TO.P,J1,B9,VBUS*%
%TO.N,+5V*%
X133085000Y-74550000D03*
%TO.P,J1,B12,GND*%
%TO.N,GNDREF*%
X133085000Y-73750000D03*
D47*
%TO.P,J1,S1,SHIELD*%
X138180000Y-72680000D03*
D48*
X134000000Y-72680000D03*
D47*
X138180000Y-81320000D03*
D48*
X134000000Y-81320000D03*
%TD*%
D40*
%TO.P,C5,1*%
%TO.N,GNDREF*%
X95775000Y-99000000D03*
%TO.P,C5,2*%
%TO.N,+3V3*%
X94225000Y-99000000D03*
%TD*%
D49*
%TO.P,R16,1*%
%TO.N,Net-(C7-Pad2)*%
X101000000Y-126825000D03*
%TO.P,R16,2*%
%TO.N,GNDREF*%
X101000000Y-125175000D03*
%TD*%
D38*
%TO.P,R8,1*%
%TO.N,/EN*%
X84425000Y-74250000D03*
%TO.P,R8,2*%
%TO.N,+3V3*%
X86075000Y-74250000D03*
%TD*%
D50*
%TO.P,D5,1,K*%
%TO.N,Net-(D5-K)*%
X95025000Y-60750000D03*
%TO.P,D5,2,A*%
%TO.N,+3V3*%
X92975000Y-60750000D03*
%TD*%
D28*
%TO.P,R15,1*%
%TO.N,GNDREF*%
X94825000Y-64000000D03*
%TO.P,R15,2*%
%TO.N,Net-(D5-K)*%
X93175000Y-64000000D03*
%TD*%
D23*
%TO.P,C1,1*%
%TO.N,/DSP_IN*%
X114255000Y-128000000D03*
%TO.P,C1,2*%
%TO.N,Net-(U5A-+)*%
X121755000Y-128000000D03*
%TD*%
D36*
%TO.P,C18,1*%
%TO.N,+5V*%
X117135242Y-93850000D03*
D37*
%TO.P,C18,2*%
%TO.N,GNDREF*%
X119635242Y-93850000D03*
%TD*%
D51*
%TO.P,C8,1*%
%TO.N,GNDREF*%
X118525000Y-71000000D03*
%TO.P,C8,2*%
%TO.N,+9V*%
X121475000Y-71000000D03*
%TD*%
D32*
%TO.P,SW1,1,1*%
%TO.N,GNDREF*%
X137280000Y-66200000D03*
X137280000Y-69800000D03*
%TO.P,SW1,2,2*%
%TO.N,/EN*%
X138720000Y-66200000D03*
X138720000Y-69800000D03*
%TD*%
D52*
%TO.P,JP1,1,A*%
%TO.N,GNDREF*%
X73000000Y-65000000D03*
D53*
%TO.P,JP1,2,B*%
%TO.N,Net-(JP1-B)*%
X73000000Y-63550000D03*
%TD*%
D28*
%TO.P,R12,1*%
%TO.N,Net-(J1-CC2)*%
X129750000Y-78750000D03*
%TO.P,R12,2*%
%TO.N,GNDREF*%
X128100000Y-78750000D03*
%TD*%
D54*
%TO.P,J6,1*%
%TO.N,GNDREF*%
X115042500Y-67000000D03*
D55*
%TO.P,J6,2*%
%TO.N,+9V*%
X115042500Y-61000000D03*
D56*
%TO.P,J6,3*%
%TO.N,unconnected-(J6-Pad3)*%
X119742500Y-64000000D03*
%TD*%
D38*
%TO.P,R5,1*%
%TO.N,+3V3*%
X127925000Y-67000000D03*
%TO.P,R5,2*%
%TO.N,Net-(R5-Pad2)*%
X129575000Y-67000000D03*
%TD*%
D49*
%TO.P,R17,1*%
%TO.N,Net-(C7-Pad2)*%
X109000000Y-126825000D03*
%TO.P,R17,2*%
%TO.N,Net-(U5A-+)*%
X109000000Y-125175000D03*
%TD*%
D51*
%TO.P,C16,1*%
%TO.N,GNDREF*%
X112525000Y-110000000D03*
%TO.P,C16,2*%
%TO.N,+3.3VA*%
X115475000Y-110000000D03*
%TD*%
D57*
%TO.P,U4,1,IN*%
%TO.N,+5V*%
X117050000Y-103862500D03*
%TO.P,U4,2,GND*%
%TO.N,GNDREF*%
X118000000Y-103862500D03*
%TO.P,U4,3,EN*%
%TO.N,+5V*%
X118950000Y-103862500D03*
%TO.P,U4,4,NC*%
%TO.N,unconnected-(U4-NC-Pad4)*%
X118950000Y-106137500D03*
%TO.P,U4,5,OUT*%
%TO.N,+3.3VA*%
X117050000Y-106137500D03*
%TD*%
D35*
%TO.P,R10,1*%
%TO.N,GNDREF*%
X102000000Y-84175000D03*
%TO.P,R10,2*%
%TO.N,Net-(J2-Pin_2)*%
X102000000Y-85825000D03*
%TD*%
D58*
%TO.P,U5,1*%
%TO.N,Net-(C3-Pad1)*%
X104905000Y-121475000D03*
%TO.P,U5,2,-*%
%TO.N,Net-(U5A--)*%
X103635000Y-121475000D03*
%TO.P,U5,3,+*%
%TO.N,Net-(U5A-+)*%
X102365000Y-121475000D03*
%TO.P,U5,4,V-*%
%TO.N,GNDREF*%
X101095000Y-121475000D03*
%TO.P,U5,5,+*%
%TO.N,Net-(IC1-LOUT)*%
X101095000Y-116525000D03*
%TO.P,U5,6,-*%
%TO.N,Net-(U5B--)*%
X102365000Y-116525000D03*
%TO.P,U5,7*%
X103635000Y-116525000D03*
%TO.P,U5,8,V+*%
%TO.N,+3.3VA*%
X104905000Y-116525000D03*
%TD*%
D35*
%TO.P,R3,1*%
%TO.N,Net-(C2-Pad2)*%
X109000000Y-116175000D03*
%TO.P,R3,2*%
%TO.N,Net-(U5A--)*%
X109000000Y-117825000D03*
%TD*%
D59*
%TO.N,GNDREF*%
X138891665Y-144925000D03*
X138891665Y-140925000D03*
X138891665Y-136925000D03*
X138891665Y-132925000D03*
X138891665Y-128925000D03*
X138891665Y-124925000D03*
X138891665Y-120925000D03*
X138891665Y-116925000D03*
X138891665Y-112925000D03*
X138891665Y-108925000D03*
X138891665Y-100925000D03*
X138891665Y-96925000D03*
X138891665Y-92925000D03*
X138891665Y-76925000D03*
X134891665Y-148925000D03*
X134891665Y-144925000D03*
X134891665Y-140925000D03*
X134891665Y-136925000D03*
X134891665Y-132925000D03*
X134891665Y-128925000D03*
X134891665Y-124925000D03*
X134891665Y-120925000D03*
X134891665Y-116925000D03*
X134891665Y-112925000D03*
X134891665Y-108925000D03*
X134891665Y-100925000D03*
X134891665Y-96925000D03*
X134891665Y-84925000D03*
X130891665Y-152925000D03*
X130891665Y-144925000D03*
X130891665Y-140925000D03*
X130891665Y-136925000D03*
X130891665Y-128925000D03*
X130891665Y-124925000D03*
X130891665Y-120925000D03*
X130891665Y-116925000D03*
X130891665Y-112925000D03*
X130891665Y-108925000D03*
X130891665Y-96925000D03*
X130891665Y-72925000D03*
X130891665Y-56925000D03*
X126891665Y-152925000D03*
X126891665Y-144925000D03*
X126891665Y-140925000D03*
X126891665Y-136925000D03*
X126891665Y-128925000D03*
X126891665Y-124925000D03*
X126891665Y-120925000D03*
X126891665Y-116925000D03*
X126891665Y-112925000D03*
X126891665Y-108925000D03*
X126891665Y-92925000D03*
X126891665Y-64925000D03*
X126891665Y-56925000D03*
X122891665Y-152925000D03*
X122891665Y-148925000D03*
X122891665Y-144925000D03*
X122891665Y-140925000D03*
X122891665Y-136925000D03*
X122891665Y-132925000D03*
X122891665Y-124925000D03*
X122891665Y-120925000D03*
X122891665Y-116925000D03*
X122891665Y-112925000D03*
X122891665Y-108925000D03*
X122891665Y-100925000D03*
X122891665Y-96925000D03*
X122891665Y-68925000D03*
X122891665Y-56925000D03*
X118891665Y-152925000D03*
X118891665Y-120925000D03*
X118891665Y-116925000D03*
X118891665Y-112925000D03*
X118891665Y-108925000D03*
X118891665Y-60925000D03*
X118891665Y-56925000D03*
X114891665Y-152925000D03*
X114891665Y-120925000D03*
X114891665Y-112925000D03*
X114891665Y-56925000D03*
X110891665Y-152925000D03*
X110891665Y-148925000D03*
X110891665Y-120925000D03*
X110891665Y-100925000D03*
X110891665Y-92925000D03*
X110891665Y-88925000D03*
X110891665Y-84925000D03*
X110891665Y-56925000D03*
X106891665Y-152925000D03*
X106891665Y-148925000D03*
X106891665Y-108925000D03*
X106891665Y-100925000D03*
X106891665Y-64925000D03*
X106891665Y-60925000D03*
X106891665Y-56925000D03*
X102891665Y-152925000D03*
X102891665Y-148925000D03*
X102891665Y-136925000D03*
X102891665Y-108925000D03*
X102891665Y-100925000D03*
X102891665Y-64925000D03*
X102891665Y-60925000D03*
X102891665Y-56925000D03*
X98891665Y-152925000D03*
X98891665Y-144925000D03*
X98891665Y-140925000D03*
X98891665Y-136925000D03*
X98891665Y-132925000D03*
X98891665Y-128925000D03*
X98891665Y-124925000D03*
X98891665Y-108925000D03*
X98891665Y-92925000D03*
X98891665Y-56925000D03*
X94891665Y-152925000D03*
X94891665Y-144925000D03*
X94891665Y-140925000D03*
X94891665Y-136925000D03*
X94891665Y-128925000D03*
X94891665Y-120925000D03*
X94891665Y-56925000D03*
X90891665Y-152925000D03*
X90891665Y-144925000D03*
X90891665Y-140925000D03*
X90891665Y-136925000D03*
X90891665Y-128925000D03*
X90891665Y-124925000D03*
X90891665Y-120925000D03*
X90891665Y-88925000D03*
X90891665Y-84925000D03*
X90891665Y-64925000D03*
X90891665Y-60925000D03*
X90891665Y-56925000D03*
X86891665Y-152925000D03*
X86891665Y-148925000D03*
X86891665Y-144925000D03*
X86891665Y-140925000D03*
X86891665Y-136925000D03*
X86891665Y-132925000D03*
X86891665Y-128925000D03*
X86891665Y-124925000D03*
X86891665Y-120925000D03*
X86891665Y-116925000D03*
X86891665Y-112925000D03*
X86891665Y-108925000D03*
X86891665Y-92925000D03*
X86891665Y-88925000D03*
X86891665Y-68925000D03*
X86891665Y-56925000D03*
X82891665Y-152925000D03*
X82891665Y-144925000D03*
X82891665Y-140925000D03*
X82891665Y-136925000D03*
X82891665Y-128925000D03*
X82891665Y-124925000D03*
X82891665Y-120925000D03*
X82891665Y-116925000D03*
X82891665Y-112925000D03*
X82891665Y-108925000D03*
X82891665Y-100925000D03*
X82891665Y-92925000D03*
X82891665Y-88925000D03*
X82891665Y-84925000D03*
X82891665Y-64925000D03*
X82891665Y-56925000D03*
X78891665Y-152925000D03*
X78891665Y-144925000D03*
X78891665Y-140925000D03*
X78891665Y-136925000D03*
X78891665Y-128925000D03*
X78891665Y-124925000D03*
X78891665Y-120925000D03*
X78891665Y-116925000D03*
X78891665Y-112925000D03*
X78891665Y-108925000D03*
X78891665Y-88925000D03*
X78891665Y-84925000D03*
X78891665Y-80925000D03*
X78891665Y-56925000D03*
X74891665Y-148925000D03*
X74891665Y-144925000D03*
X74891665Y-140925000D03*
X74891665Y-136925000D03*
X74891665Y-132925000D03*
X74891665Y-120925000D03*
X74891665Y-108925000D03*
X74891665Y-100925000D03*
X74891665Y-72925000D03*
X74891665Y-68925000D03*
X102250000Y-73500000D03*
X117250000Y-70500000D03*
X117250000Y-71500000D03*
X116000000Y-73500000D03*
X116000000Y-74500000D03*
X113500000Y-74250000D03*
X108000000Y-130000000D03*
X90500000Y-108250000D03*
X96500000Y-107000000D03*
X111250000Y-110000000D03*
X96250000Y-64000000D03*
X73000000Y-67000000D03*
X99000000Y-89000000D03*
X103500000Y-85500000D03*
X93000000Y-103000000D03*
X71000000Y-61000000D03*
X112000000Y-128000000D03*
X87000000Y-75500000D03*
X121250000Y-125750000D03*
X106000000Y-123250000D03*
X89250000Y-97250000D03*
X120500000Y-105000000D03*
X99250000Y-105000000D03*
X96750000Y-112250000D03*
X102500000Y-93000000D03*
X95750000Y-74750000D03*
X77750000Y-79000000D03*
X121750000Y-83500000D03*
X93250000Y-131250000D03*
X119500000Y-98750000D03*
X115000000Y-81500000D03*
X92250000Y-96750000D03*
X91750000Y-68250000D03*
X108500000Y-146500000D03*
X130000000Y-92500000D03*
X113000000Y-138500000D03*
X93250000Y-152750000D03*
X77750000Y-93000000D03*
X110250000Y-141000000D03*
X115500000Y-144000000D03*
X92000000Y-102000000D03*
X108750000Y-95250000D03*
X94250000Y-117500000D03*
X118500000Y-126250000D03*
X100500000Y-82750000D03*
X133500000Y-69000000D03*
X100500000Y-114250000D03*
X105000000Y-137750000D03*
X82500000Y-105000000D03*
X106000000Y-145750000D03*
X71500000Y-148500000D03*
X85000000Y-105000000D03*
X80250000Y-75500000D03*
X104750000Y-105000000D03*
X106250000Y-135750000D03*
X107500000Y-96500000D03*
X105000000Y-68250000D03*
X97250000Y-90750000D03*
X88500000Y-71250000D03*
X102250000Y-74500000D03*
X97500000Y-98750000D03*
X96500000Y-105000000D03*
X129000000Y-77250000D03*
X84500000Y-80750000D03*
X92250000Y-115500000D03*
X98750000Y-98750000D03*
X111000000Y-96750000D03*
X76500000Y-56000000D03*
X88000000Y-80250000D03*
X114250000Y-126000000D03*
X108750000Y-90000000D03*
X89750000Y-105000000D03*
X120500000Y-133750000D03*
X81000000Y-81000000D03*
X116250000Y-128000000D03*
X116750000Y-131250000D03*
X102250000Y-124250000D03*
X118000000Y-136250000D03*
X139000000Y-61000000D03*
X132500000Y-105000000D03*
X79500000Y-79000000D03*
X115250000Y-105000000D03*
X105000000Y-140250000D03*
X93250000Y-126000000D03*
X113000000Y-150250000D03*
X106500000Y-92000000D03*
X90750000Y-97000000D03*
X93000000Y-81000000D03*
X94000000Y-96250000D03*
X113500000Y-132250000D03*
X77750000Y-75500000D03*
X82750000Y-71500000D03*
X93000000Y-79500000D03*
X123250000Y-77250000D03*
X72500000Y-105000000D03*
X95750000Y-94500000D03*
X111750000Y-130250000D03*
X112500000Y-74250000D03*
X130000000Y-105000000D03*
X102250000Y-119250000D03*
X94250000Y-108500000D03*
X75000000Y-105000000D03*
X77500000Y-105000000D03*
X102000000Y-105000000D03*
X90750000Y-83000000D03*
X96500000Y-103250000D03*
X118000000Y-141000000D03*
X87750000Y-97500000D03*
X110250000Y-144250000D03*
X118000000Y-147500000D03*
X109750000Y-132250000D03*
X94250000Y-111750000D03*
X112750000Y-105000000D03*
X92000000Y-104000000D03*
X84500000Y-75500000D03*
X115500000Y-147500000D03*
X133750000Y-56000000D03*
X111250000Y-81500000D03*
X110000000Y-138250000D03*
X111000000Y-124000000D03*
X97250000Y-77750000D03*
X75250000Y-126000000D03*
X92250000Y-108750000D03*
X123250000Y-79000000D03*
X118000000Y-138250000D03*
X112000000Y-134000000D03*
X88250000Y-81750000D03*
X121750000Y-88500000D03*
X110250000Y-105000000D03*
X135000000Y-105000000D03*
X71500000Y-97500000D03*
X116000000Y-124250000D03*
X110000000Y-135750000D03*
X107500000Y-125750000D03*
X115500000Y-141000000D03*
X94000000Y-102000000D03*
X116750000Y-152750000D03*
X88250000Y-102000000D03*
X91750000Y-92750000D03*
X115500000Y-138250000D03*
X116750000Y-118000000D03*
X119750000Y-128000000D03*
X122750000Y-105000000D03*
X102250000Y-89500000D03*
X108000000Y-134250000D03*
X75250000Y-114000000D03*
X120500000Y-150250000D03*
X109000000Y-123500000D03*
X113000000Y-141000000D03*
X107000000Y-77250000D03*
X107000000Y-115750000D03*
X107500000Y-105000000D03*
X87500000Y-105000000D03*
X113500000Y-124250000D03*
X119250000Y-124250000D03*
X125000000Y-105000000D03*
X105000000Y-77250000D03*
X105250000Y-143250000D03*
X123000000Y-81250000D03*
X134000000Y-153750000D03*
X94000000Y-104000000D03*
X71500000Y-74500000D03*
X139000000Y-149000000D03*
X118000000Y-105000000D03*
X118000000Y-144000000D03*
X115500000Y-136250000D03*
X76500000Y-153500000D03*
X80000000Y-105000000D03*
X110750000Y-126000000D03*
X97000000Y-87000000D03*
X98750000Y-101000000D03*
X98250000Y-117250000D03*
X127500000Y-105000000D03*
X137500000Y-105000000D03*
%TO.N,/USB_D+*%
X130500000Y-77500000D03*
X95750000Y-77250000D03*
%TO.N,/USB_D-*%
X131250000Y-76500000D03*
X95750000Y-76000000D03*
%TO.N,/EN*%
X133250000Y-67750000D03*
X83000000Y-75500000D03*
%TO.N,+3V3*%
X94000000Y-97500000D03*
X88500000Y-103000000D03*
%TO.N,Net-(C3-Pad1)*%
X104750000Y-123250000D03*
%TO.N,+3.3VA*%
X106250000Y-125250000D03*
X107000000Y-117250000D03*
%TO.N,/IO0*%
X93000000Y-92750000D03*
X123000000Y-89000000D03*
%TO.N,/ENC_A*%
X128500000Y-92250000D03*
X89750000Y-81750000D03*
%TO.N,/ENC_B*%
X91000000Y-80000000D03*
X131500000Y-92250000D03*
%TO.N,/ENC_SW*%
X88000000Y-79000000D03*
%TO.N,/Pot1*%
X81000000Y-79500000D03*
%TO.N,/Pot3*%
X84250000Y-79250000D03*
%TO.N,/Pot2*%
X82750000Y-81000000D03*
%TO.N,/LCD_MOSI*%
X100000000Y-90000000D03*
X101250000Y-88750000D03*
%TD*%
D60*
%TO.N,GNDREF*%
X77750000Y-77260000D02*
X77740000Y-77250000D01*
X77750000Y-79000000D02*
X77750000Y-77260000D01*
X106475000Y-130000000D02*
X108000000Y-130000000D01*
X90475000Y-107275000D02*
X90475000Y-107000000D01*
X90500000Y-108250000D02*
X90500000Y-107300000D01*
X90500000Y-107300000D02*
X90475000Y-107275000D01*
X95525000Y-107000000D02*
X96500000Y-107000000D01*
X112525000Y-110000000D02*
X111250000Y-110000000D01*
X96136750Y-64000000D02*
X96250000Y-64000000D01*
X73000000Y-67136750D02*
X73000000Y-67000000D01*
D61*
%TO.N,/IO1*%
X76750000Y-93010050D02*
X76750000Y-99250000D01*
X77460050Y-92300000D02*
X76750000Y-93010050D01*
X78119975Y-92380025D02*
X78039950Y-92300000D01*
X78039950Y-92300000D02*
X77460050Y-92300000D01*
X78125000Y-92375000D02*
X78119975Y-92380025D01*
X79010000Y-93260000D02*
X78125000Y-92375000D01*
X79010000Y-94750000D02*
X79010000Y-93260000D01*
X76750000Y-99250000D02*
X77960000Y-100460000D01*
D60*
%TO.N,GNDREF*%
X77750000Y-93000000D02*
X77750000Y-94740000D01*
X77750000Y-94740000D02*
X77740000Y-94750000D01*
D61*
%TO.N,/IO2*%
X79250000Y-101710000D02*
X77960000Y-103000000D01*
X79250000Y-96750000D02*
X79250000Y-101710000D01*
X80280000Y-95720000D02*
X79250000Y-96750000D01*
X80280000Y-94750000D02*
X80280000Y-95720000D01*
D60*
%TO.N,+3V3*%
X80500000Y-103000000D02*
X88500000Y-103000000D01*
D61*
%TO.N,/IO41*%
X85360000Y-95600000D02*
X80500000Y-100460000D01*
X85360000Y-94750000D02*
X85360000Y-95600000D01*
%TO.N,/IO42*%
X81670000Y-97920000D02*
X80500000Y-97920000D01*
X84090000Y-95500000D02*
X81670000Y-97920000D01*
X84090000Y-94750000D02*
X84090000Y-95500000D01*
D60*
%TO.N,GNDREF*%
X77960000Y-96460000D02*
X77960000Y-97920000D01*
X77740000Y-96240000D02*
X77960000Y-96460000D01*
X77740000Y-94750000D02*
X77740000Y-96240000D01*
X119475000Y-101000000D02*
X119475000Y-98775000D01*
X133085000Y-73750000D02*
X133085000Y-73595000D01*
X138180000Y-71180000D02*
X138180000Y-72680000D01*
D61*
X90250000Y-104500000D02*
X89750000Y-105000000D01*
D60*
X101325000Y-125175000D02*
X102250000Y-124250000D01*
D61*
X96500000Y-103399264D02*
X96500000Y-103250000D01*
D60*
X133085000Y-73595000D02*
X134000000Y-72680000D01*
D61*
X90650000Y-103500000D02*
X92500000Y-103500000D01*
D60*
X136250000Y-67230000D02*
X136250000Y-68770000D01*
X77475000Y-75225000D02*
X77750000Y-75500000D01*
X103500000Y-85500000D02*
X102175000Y-84175000D01*
X136250000Y-68770000D02*
X137280000Y-69800000D01*
D61*
X91500000Y-104500000D02*
X93000000Y-103000000D01*
X93000000Y-105350000D02*
X93000000Y-103000000D01*
X90650000Y-104500000D02*
X91500000Y-104500000D01*
X95899264Y-104000000D02*
X96500000Y-103399264D01*
D60*
X134000000Y-81165000D02*
X133085000Y-80250000D01*
X134000000Y-81320000D02*
X134000000Y-81165000D01*
X138180000Y-82320000D02*
X138180000Y-81320000D01*
X103500000Y-86100000D02*
X104450000Y-87050000D01*
X102225000Y-114000000D02*
X100750000Y-114000000D01*
D61*
X94000000Y-100100736D02*
X94250736Y-99850000D01*
X106250000Y-92250000D02*
X106500000Y-92000000D01*
D60*
X77740000Y-75510000D02*
X77750000Y-75500000D01*
X80250000Y-74975000D02*
X80975000Y-74250000D01*
X101095000Y-121475000D02*
X101095000Y-120405000D01*
X137280000Y-87800000D02*
X136250000Y-86770000D01*
X97500000Y-101775000D02*
X97975000Y-101775000D01*
X97975000Y-101775000D02*
X98750000Y-101000000D01*
X100750000Y-114000000D02*
X100500000Y-114250000D01*
D61*
X104450000Y-87050000D02*
X104650000Y-87250000D01*
X103250000Y-92250000D02*
X102500000Y-93000000D01*
D60*
X106750000Y-133000000D02*
X108000000Y-134250000D01*
D61*
X90650000Y-104500000D02*
X90250000Y-104500000D01*
D60*
X105825000Y-133000000D02*
X106750000Y-133000000D01*
X118000000Y-103862500D02*
X118000000Y-105000000D01*
X137280000Y-66200000D02*
X136250000Y-67230000D01*
X101000000Y-125175000D02*
X101325000Y-125175000D01*
X136250000Y-85230000D02*
X137280000Y-84200000D01*
X128175000Y-76425000D02*
X129000000Y-77250000D01*
X136250000Y-86770000D02*
X136250000Y-85230000D01*
D61*
X94000000Y-100650000D02*
X94000000Y-102000000D01*
D60*
X137280000Y-69800000D02*
X137280000Y-70280000D01*
X137280000Y-83220000D02*
X138180000Y-82320000D01*
X129000000Y-77250000D02*
X128100000Y-78150000D01*
X128100000Y-78150000D02*
X128100000Y-78750000D01*
D61*
X94925000Y-99850000D02*
X95775000Y-99000000D01*
D60*
X80250000Y-75500000D02*
X80250000Y-74975000D01*
D61*
X104650000Y-92250000D02*
X103250000Y-92250000D01*
X94000000Y-100650000D02*
X94000000Y-100100736D01*
X94000000Y-102000000D02*
X93000000Y-103000000D01*
D60*
X73000000Y-65000000D02*
X73000000Y-67136750D01*
X137280000Y-84200000D02*
X137280000Y-83220000D01*
D61*
X94000000Y-104000000D02*
X93000000Y-103000000D01*
X95350000Y-104000000D02*
X94000000Y-104000000D01*
D60*
X103500000Y-85500000D02*
X103500000Y-86100000D01*
X77740000Y-77250000D02*
X77740000Y-75510000D01*
D61*
X104650000Y-92250000D02*
X106250000Y-92250000D01*
D60*
X102175000Y-84175000D02*
X102000000Y-84175000D01*
X128175000Y-75250000D02*
X128175000Y-76425000D01*
X137280000Y-70280000D02*
X138180000Y-71180000D01*
D61*
X92500000Y-102500000D02*
X93000000Y-103000000D01*
X94250736Y-99850000D02*
X94925000Y-99850000D01*
X90650000Y-102500000D02*
X92500000Y-102500000D01*
X95350000Y-104000000D02*
X95899264Y-104000000D01*
D60*
X77475000Y-74250000D02*
X77475000Y-75225000D01*
X94825000Y-64000000D02*
X96136750Y-64000000D01*
D61*
X92500000Y-103500000D02*
X93000000Y-103000000D01*
D60*
X99150000Y-76475000D02*
X98525000Y-76475000D01*
X98525000Y-76475000D02*
X97250000Y-77750000D01*
X119475000Y-98775000D02*
X119500000Y-98750000D01*
X101095000Y-120405000D02*
X102250000Y-119250000D01*
%TO.N,+5V*%
X133085000Y-79450000D02*
X131800000Y-79450000D01*
X133873984Y-74550000D02*
X134750000Y-75426016D01*
X116525000Y-102275000D02*
X116525000Y-101000000D01*
X117050000Y-103862500D02*
X117050000Y-102800000D01*
X131100000Y-80150000D02*
X120000000Y-80150000D01*
X133825686Y-79450000D02*
X133085000Y-79450000D01*
X134750000Y-78525686D02*
X133825686Y-79450000D01*
X117050000Y-102800000D02*
X116525000Y-102275000D01*
X133085000Y-74550000D02*
X133873984Y-74550000D01*
X134750000Y-75426016D02*
X134750000Y-78525686D01*
X120000000Y-73850000D02*
X120000000Y-76500000D01*
X131800000Y-79450000D02*
X131100000Y-80150000D01*
D61*
%TO.N,Net-(C2-Pad2)*%
X109000000Y-116175000D02*
X112675000Y-116175000D01*
X112675000Y-116175000D02*
X114500000Y-118000000D01*
%TO.N,/USB_D+*%
X132110000Y-77640000D02*
X132000000Y-77750000D01*
X131500000Y-77750000D02*
X131250000Y-77500000D01*
X95750000Y-77250000D02*
X94250000Y-77250000D01*
X133085000Y-77750000D02*
X131500000Y-77750000D01*
X132110000Y-76996446D02*
X132110000Y-77640000D01*
X131250000Y-77500000D02*
X130500000Y-77500000D01*
X132356446Y-76750000D02*
X132110000Y-76996446D01*
X132000000Y-77750000D02*
X133085000Y-77750000D01*
X133085000Y-76750000D02*
X132356446Y-76750000D01*
%TO.N,/USB_D-*%
X131500000Y-76250000D02*
X131250000Y-76500000D01*
X93750000Y-76000000D02*
X92980000Y-76770000D01*
X134060000Y-76496446D02*
X134060000Y-77003554D01*
X133813554Y-77250000D02*
X133085000Y-77250000D01*
X133813554Y-76250000D02*
X134060000Y-76496446D01*
X133085000Y-76250000D02*
X133813554Y-76250000D01*
X133085000Y-76250000D02*
X131500000Y-76250000D01*
X92980000Y-76770000D02*
X92980000Y-77250000D01*
X134060000Y-77003554D02*
X133813554Y-77250000D01*
X95750000Y-76000000D02*
X93750000Y-76000000D01*
%TO.N,/EN*%
X136500000Y-64500000D02*
X138250000Y-64500000D01*
X138720000Y-69100000D02*
X138720000Y-69800000D01*
X82525000Y-74725000D02*
X82525000Y-74250000D01*
X80280000Y-76966446D02*
X80996446Y-76250000D01*
X82525000Y-74250000D02*
X84425000Y-74250000D01*
X138720000Y-64970000D02*
X138720000Y-66200000D01*
X138720000Y-66200000D02*
X138720000Y-66900000D01*
X81750000Y-75500000D02*
X82525000Y-74725000D01*
X133250000Y-67750000D02*
X136500000Y-64500000D01*
X80280000Y-77250000D02*
X80280000Y-76966446D01*
X138000000Y-67620000D02*
X138000000Y-68380000D01*
X138250000Y-64500000D02*
X138720000Y-64970000D01*
X138720000Y-66900000D02*
X138000000Y-67620000D01*
X81750000Y-75500000D02*
X83000000Y-75500000D01*
X81000000Y-76250000D02*
X81750000Y-75500000D01*
X138000000Y-68380000D02*
X138720000Y-69100000D01*
X80996446Y-76250000D02*
X81000000Y-76250000D01*
%TO.N,+3V3*%
X78450000Y-72700000D02*
X80300000Y-72700000D01*
X104425000Y-67000000D02*
X104425000Y-58175000D01*
X97500000Y-103250000D02*
X96500000Y-104250000D01*
D60*
X93250000Y-72700000D02*
X87750000Y-72700000D01*
X95725000Y-97500000D02*
X94225000Y-99000000D01*
X106000000Y-76000000D02*
X101625000Y-76000000D01*
D61*
X92975000Y-58025000D02*
X92975000Y-60750000D01*
D60*
X109750000Y-96000000D02*
X108250000Y-97500000D01*
X97500000Y-103250000D02*
X98250000Y-103250000D01*
D61*
X93000000Y-58000000D02*
X92975000Y-58025000D01*
X104650000Y-88250000D02*
X104650000Y-88750000D01*
D60*
X93000000Y-72950000D02*
X93250000Y-72700000D01*
D61*
X90100736Y-102000000D02*
X89100736Y-103000000D01*
X76750000Y-71000000D02*
X78450000Y-72700000D01*
X104650000Y-89250000D02*
X104650000Y-88750000D01*
X90650000Y-104000000D02*
X90100736Y-104000000D01*
X76750000Y-68500000D02*
X76750000Y-71000000D01*
D60*
X109750000Y-87500000D02*
X109750000Y-96000000D01*
D61*
X86000000Y-58000000D02*
X93000000Y-58000000D01*
D60*
X101625000Y-76000000D02*
X99150000Y-73525000D01*
D61*
X80675000Y-67000000D02*
X78250000Y-67000000D01*
D60*
X109750000Y-83900000D02*
X109750000Y-87500000D01*
X100000000Y-101500000D02*
X100000000Y-97500000D01*
X87925000Y-74250000D02*
X87750000Y-74075000D01*
D61*
X96775000Y-102525000D02*
X96532538Y-102525000D01*
D60*
X100000000Y-97500000D02*
X100500000Y-97500000D01*
D61*
X96507538Y-102500000D02*
X95350000Y-102500000D01*
X95964950Y-104500000D02*
X95350000Y-104500000D01*
X104425000Y-58175000D02*
X104250000Y-58000000D01*
D60*
X79010000Y-73990000D02*
X79010000Y-77250000D01*
D61*
X93500000Y-100650000D02*
X93500000Y-99725000D01*
D60*
X86075000Y-74250000D02*
X87925000Y-74250000D01*
X93000000Y-74250000D02*
X93000000Y-72950000D01*
X106000000Y-73850000D02*
X106000000Y-80150000D01*
X87750000Y-74075000D02*
X87750000Y-72700000D01*
D61*
X97500000Y-103250000D02*
X96775000Y-102525000D01*
X90650000Y-103000000D02*
X88500000Y-103000000D01*
D60*
X80300000Y-72700000D02*
X79010000Y-73990000D01*
D61*
X78250000Y-67000000D02*
X76750000Y-68500000D01*
D60*
X106000000Y-73850000D02*
X106000000Y-76000000D01*
X108500000Y-88750000D02*
X104650000Y-88750000D01*
D61*
X90650000Y-102000000D02*
X90100736Y-102000000D01*
X104250000Y-58000000D02*
X123750000Y-58000000D01*
X89100736Y-103000000D02*
X88500000Y-103000000D01*
X90100736Y-104000000D02*
X89100736Y-103000000D01*
X96500000Y-104250000D02*
X96214950Y-104250000D01*
D60*
X100500000Y-97500000D02*
X95725000Y-97500000D01*
X99150000Y-73525000D02*
X98325000Y-72700000D01*
X106000000Y-80150000D02*
X109750000Y-83900000D01*
D61*
X93000000Y-58000000D02*
X104250000Y-58000000D01*
D60*
X98250000Y-103250000D02*
X100000000Y-101500000D01*
D61*
X80750000Y-63250000D02*
X86000000Y-58000000D01*
X96214950Y-104250000D02*
X95964950Y-104500000D01*
X96532538Y-102525000D02*
X96507538Y-102500000D01*
X95350000Y-101500000D02*
X95350000Y-103500000D01*
D60*
X94000000Y-97500000D02*
X100000000Y-97500000D01*
D61*
X80675000Y-67000000D02*
X80750000Y-66925000D01*
D60*
X108250000Y-97500000D02*
X100500000Y-97500000D01*
D61*
X127925000Y-62175000D02*
X127925000Y-67000000D01*
D60*
X98325000Y-72700000D02*
X93250000Y-72700000D01*
D61*
X80750000Y-66925000D02*
X80750000Y-63250000D01*
D60*
X109750000Y-87500000D02*
X108500000Y-88750000D01*
D61*
X93500000Y-99725000D02*
X94225000Y-99000000D01*
D60*
X87750000Y-72700000D02*
X80300000Y-72700000D01*
D61*
X123750000Y-58000000D02*
X127925000Y-62175000D01*
%TO.N,Net-(IC1-VDD18)*%
X97075000Y-100650000D02*
X97500000Y-100225000D01*
X94500000Y-100650000D02*
X97075000Y-100650000D01*
%TO.N,Net-(IC1-VCOM)*%
X92500000Y-106525000D02*
X92025000Y-107000000D01*
X92500000Y-105350000D02*
X92500000Y-106525000D01*
%TO.N,Net-(IC1-LOUT)*%
X92000000Y-105350000D02*
X92000000Y-105850000D01*
X99120000Y-118500000D02*
X101095000Y-116525000D01*
X91325000Y-116075000D02*
X93750000Y-118500000D01*
X91325000Y-106525000D02*
X91325000Y-116075000D01*
X93750000Y-118500000D02*
X99120000Y-118500000D01*
X92000000Y-105850000D02*
X91325000Y-106525000D01*
%TO.N,Net-(C3-Pad1)*%
X104750000Y-123250000D02*
X104750000Y-121630000D01*
X104750000Y-121630000D02*
X104905000Y-121475000D01*
X104750000Y-123250000D02*
X104750000Y-121825000D01*
X104750000Y-121825000D02*
X109000000Y-121825000D01*
D60*
%TO.N,+3.3VA*%
X93500000Y-106500000D02*
X93975000Y-106975000D01*
X103750000Y-112500000D02*
X100500000Y-112500000D01*
X106275000Y-116525000D02*
X107000000Y-117250000D01*
X117050000Y-108425000D02*
X115475000Y-110000000D01*
X93250000Y-114750000D02*
X93250000Y-107725000D01*
X93250000Y-107725000D02*
X93975000Y-107000000D01*
X115475000Y-110000000D02*
X112975000Y-112500000D01*
X112975000Y-112500000D02*
X103775000Y-112500000D01*
X106250000Y-125250000D02*
X105075000Y-125250000D01*
D62*
X93500000Y-106500000D02*
X93500000Y-105350000D01*
D60*
X95000000Y-116500000D02*
X93250000Y-114750000D01*
X103775000Y-112525000D02*
X103750000Y-112500000D01*
X104905000Y-115130000D02*
X104905000Y-116525000D01*
X96500000Y-116500000D02*
X95000000Y-116500000D01*
X103775000Y-114000000D02*
X103775000Y-112525000D01*
X104905000Y-116525000D02*
X106275000Y-116525000D01*
X100500000Y-112500000D02*
X96500000Y-116500000D01*
X93975000Y-106975000D02*
X93975000Y-107000000D01*
X103775000Y-114000000D02*
X104905000Y-115130000D01*
X117050000Y-106137500D02*
X117050000Y-108425000D01*
X105075000Y-125250000D02*
X105000000Y-125175000D01*
X103775000Y-112500000D02*
X103775000Y-114000000D01*
D61*
%TO.N,/IO0*%
X138220000Y-89000000D02*
X138720000Y-88500000D01*
X94250000Y-94000000D02*
X94250000Y-94750000D01*
X138720000Y-84200000D02*
X138200000Y-84720000D01*
X138200000Y-84720000D02*
X138200000Y-87280000D01*
X123000000Y-89000000D02*
X138220000Y-89000000D01*
X138200000Y-87280000D02*
X138720000Y-87800000D01*
X138720000Y-88500000D02*
X138720000Y-87800000D01*
X93000000Y-92750000D02*
X94250000Y-94000000D01*
%TO.N,Net-(D5-K)*%
X95025000Y-61475000D02*
X95025000Y-60750000D01*
X93250000Y-63250000D02*
X95025000Y-61475000D01*
X93250000Y-64000000D02*
X93250000Y-63250000D01*
%TO.N,Net-(JP1-B)*%
X73000000Y-58000000D02*
X73000000Y-63550000D01*
%TO.N,/LRCLK*%
X87000000Y-99000000D02*
X89500000Y-101500000D01*
X87900000Y-94750000D02*
X87900000Y-95453554D01*
X87000000Y-96353554D02*
X87000000Y-99000000D01*
X89500000Y-101500000D02*
X90650000Y-101500000D01*
X87900000Y-95453554D02*
X87000000Y-96353554D01*
%TO.N,/BCLK*%
X92000000Y-100000000D02*
X92000000Y-100650000D01*
X90000000Y-95190000D02*
X90000000Y-98000000D01*
X90440000Y-94750000D02*
X90000000Y-95190000D01*
X90000000Y-98000000D02*
X92000000Y-100000000D01*
%TO.N,/MCLK*%
X92980000Y-100630000D02*
X93000000Y-100650000D01*
X92980000Y-94750000D02*
X92980000Y-100630000D01*
%TO.N,Net-(J1-CC1)*%
X133085000Y-75750000D02*
X132000000Y-75750000D01*
X132000000Y-75750000D02*
X131500000Y-75250000D01*
X131500000Y-75250000D02*
X129825000Y-75250000D01*
%TO.N,Net-(J1-CC2)*%
X133085000Y-78750000D02*
X129750000Y-78750000D01*
%TO.N,/DIN*%
X91500000Y-98500000D02*
X92500000Y-99500000D01*
X91710000Y-94750000D02*
X91500000Y-94960000D01*
X92500000Y-99500000D02*
X92500000Y-100650000D01*
X91500000Y-94960000D02*
X91500000Y-98500000D01*
%TO.N,/ENC_A*%
X89170000Y-77250000D02*
X89170000Y-81170000D01*
X127500000Y-96325000D02*
X128000000Y-95825000D01*
X89170000Y-74655000D02*
X89575000Y-74250000D01*
X89170000Y-81170000D02*
X89750000Y-81750000D01*
X128775000Y-95050000D02*
X128000000Y-95825000D01*
X89170000Y-77250000D02*
X89170000Y-74655000D01*
X127500000Y-100000000D02*
X127500000Y-96325000D01*
X128500000Y-92250000D02*
X128775000Y-92525000D01*
X128775000Y-92525000D02*
X128775000Y-95050000D01*
%TO.N,/ENC_B*%
X131225000Y-95050000D02*
X132000000Y-95825000D01*
X90440000Y-77250000D02*
X90440000Y-75160000D01*
X90440000Y-75160000D02*
X91350000Y-74250000D01*
X90440000Y-79440000D02*
X90440000Y-77250000D01*
X132500000Y-96325000D02*
X132000000Y-95825000D01*
X131500000Y-92250000D02*
X131225000Y-92525000D01*
X91000000Y-80000000D02*
X90440000Y-79440000D01*
X132500000Y-100000000D02*
X132500000Y-96325000D01*
X131225000Y-92525000D02*
X131225000Y-95050000D01*
%TO.N,/ENC_SW*%
X88000000Y-79000000D02*
X87900000Y-78900000D01*
X87900000Y-78900000D02*
X87900000Y-77250000D01*
%TO.N,/DSP_IN*%
X108000000Y-144577500D02*
X106000000Y-142577500D01*
X106000000Y-138000000D02*
X114255000Y-129745000D01*
X106000000Y-142577500D02*
X106000000Y-138000000D01*
X114255000Y-129745000D02*
X114255000Y-128000000D01*
%TO.N,/DSP_OUT*%
X104175000Y-133000000D02*
X104175000Y-137402500D01*
X77000000Y-130000000D02*
X73000000Y-126000000D01*
X102000000Y-133000000D02*
X99000000Y-130000000D01*
X104175000Y-133000000D02*
X102000000Y-133000000D01*
X99000000Y-130000000D02*
X77000000Y-130000000D01*
X104175000Y-137402500D02*
X102000000Y-139577500D01*
%TO.N,/JACK_IN*%
X108000000Y-139577500D02*
X116750000Y-139577500D01*
X116750000Y-150250000D02*
X116750000Y-133750000D01*
X116750000Y-139577500D02*
X116750000Y-133750000D01*
%TO.N,/JACK_OUT*%
X93250000Y-150250000D02*
X96327500Y-150250000D01*
X96327500Y-150250000D02*
X102000000Y-144577500D01*
X93250000Y-150250000D02*
X93250000Y-133750000D01*
%TO.N,/DOUT*%
X88500000Y-98500000D02*
X90650000Y-100650000D01*
X88500000Y-96500000D02*
X88500000Y-98500000D01*
X90650000Y-100650000D02*
X91500000Y-100650000D01*
X89170000Y-95830000D02*
X88500000Y-96500000D01*
X89170000Y-94750000D02*
X89170000Y-95830000D01*
%TO.N,/Pot1*%
X81000000Y-79500000D02*
X81550000Y-78950000D01*
X81550000Y-78950000D02*
X81550000Y-77250000D01*
%TO.N,/Pot3*%
X84090000Y-77250000D02*
X84090000Y-79090000D01*
X84090000Y-79090000D02*
X84250000Y-79250000D01*
%TO.N,/LINE_IN*%
X94775000Y-106532538D02*
X94775000Y-107467462D01*
X94750000Y-105600000D02*
X94750000Y-106507538D01*
X95250000Y-107942462D02*
X95250000Y-113750000D01*
X94500000Y-105350000D02*
X94750000Y-105600000D01*
X94000000Y-105350000D02*
X94500000Y-105350000D01*
X94750000Y-106507538D02*
X94775000Y-106532538D01*
X94775000Y-107467462D02*
X95250000Y-107942462D01*
X95250000Y-113750000D02*
X95500000Y-114000000D01*
%TO.N,Net-(R5-Pad2)*%
X129575000Y-68475000D02*
X129575000Y-67000000D01*
X131100000Y-70000000D02*
X129575000Y-68475000D01*
%TO.N,Net-(R7-Pad2)*%
X106075000Y-68575000D02*
X106075000Y-67000000D01*
X107500000Y-70000000D02*
X106075000Y-68575000D01*
%TO.N,Net-(R9-Pad2)*%
X82325000Y-68425000D02*
X83900000Y-70000000D01*
X82325000Y-67000000D02*
X82325000Y-68425000D01*
%TO.N,/Pot2*%
X82820000Y-80930000D02*
X82820000Y-77250000D01*
X82750000Y-81000000D02*
X82820000Y-80930000D01*
%TO.N,/LCD_RST*%
X96905000Y-87905000D02*
X95500000Y-87905000D01*
X104650000Y-91250000D02*
X100250000Y-91250000D01*
X100250000Y-91250000D02*
X96905000Y-87905000D01*
%TO.N,/LCD_CS*%
X103773223Y-89750000D02*
X96848223Y-82825000D01*
X96848223Y-82825000D02*
X95500000Y-82825000D01*
X104650000Y-89750000D02*
X103773223Y-89750000D01*
%TO.N,/LCD_MOSI*%
X101250000Y-88750000D02*
X96595000Y-84095000D01*
X104650000Y-90750000D02*
X100750000Y-90750000D01*
X96595000Y-84095000D02*
X95500000Y-84095000D01*
X100750000Y-90750000D02*
X100000000Y-90000000D01*
%TO.N,/LCD_CLK*%
X95500000Y-85365000D02*
X96365000Y-85365000D01*
X96365000Y-85365000D02*
X101250000Y-90250000D01*
X101250000Y-90250000D02*
X104650000Y-90250000D01*
%TO.N,/LCD_DC*%
X95500000Y-89175000D02*
X97175000Y-89175000D01*
X97175000Y-89175000D02*
X99750000Y-91750000D01*
X99750000Y-91750000D02*
X104650000Y-91750000D01*
%TO.N,Net-(J2-Pin_2)*%
X103750000Y-87750000D02*
X102000000Y-86000000D01*
X104650000Y-87750000D02*
X103750000Y-87750000D01*
X102000000Y-86000000D02*
X102000000Y-85825000D01*
%TO.N,Net-(U5A-+)*%
X109000000Y-125175000D02*
X118930000Y-125175000D01*
X107750000Y-124000000D02*
X108925000Y-125175000D01*
X108925000Y-125175000D02*
X109000000Y-125175000D01*
X118930000Y-125175000D02*
X121755000Y-128000000D01*
X103500000Y-124000000D02*
X107750000Y-124000000D01*
X102365000Y-121475000D02*
X102365000Y-122865000D01*
X102365000Y-122865000D02*
X103500000Y-124000000D01*
%TO.N,Net-(U5B--)*%
X97500000Y-122250000D02*
X97500000Y-124000000D01*
X102365000Y-117385000D02*
X97500000Y-122250000D01*
X102365000Y-116525000D02*
X102365000Y-117385000D01*
X97500000Y-124000000D02*
X95500000Y-126000000D01*
X103635000Y-116525000D02*
X102365000Y-116525000D01*
%TO.N,Net-(U5A--)*%
X109000000Y-120175000D02*
X109000000Y-117825000D01*
X104385000Y-119750000D02*
X109000000Y-119750000D01*
X103635000Y-120500000D02*
X104385000Y-119750000D01*
X108825000Y-120000000D02*
X109000000Y-120175000D01*
X103635000Y-121475000D02*
X103635000Y-120500000D01*
X109000000Y-119750000D02*
X109000000Y-120175000D01*
%TO.N,Net-(C7-Pad2)*%
X101000000Y-126825000D02*
X105000000Y-126825000D01*
X109000000Y-126825000D02*
X105000000Y-126825000D01*
X105000000Y-128525000D02*
X105000000Y-126825000D01*
X103525000Y-130000000D02*
X105000000Y-128525000D01*
D60*
%TO.N,+9V*%
X121475000Y-69285622D02*
X121475000Y-71000000D01*
X115042500Y-61000000D02*
X115042500Y-62853122D01*
X122300000Y-72550000D02*
X122300000Y-73850000D01*
X115042500Y-62853122D02*
X121475000Y-69285622D01*
X121475000Y-71725000D02*
X122300000Y-72550000D01*
X121475000Y-71000000D02*
X121475000Y-71725000D01*
%TD*%
%TA.AperFunction,Conductor*%
%TO.N,+5V*%
G36*
X109503093Y-73549418D02*
G01*
X109549775Y-73580318D01*
X111036673Y-75149821D01*
X111557518Y-75699602D01*
X111589334Y-75761807D01*
X111591500Y-75784881D01*
X111591500Y-75900538D01*
X111591501Y-75900553D01*
X111602113Y-76004426D01*
X111657885Y-76172738D01*
X111750970Y-76323652D01*
X111876348Y-76449030D01*
X112027262Y-76542115D01*
X112195574Y-76597887D01*
X112299455Y-76608500D01*
X113700544Y-76608499D01*
X113804426Y-76597887D01*
X113972738Y-76542115D01*
X114123652Y-76449030D01*
X114249030Y-76323652D01*
X114258128Y-76308902D01*
X114310076Y-76262178D01*
X114363666Y-76250000D01*
X118000000Y-76250000D01*
X119068580Y-75181419D01*
X119129899Y-75147937D01*
X119170511Y-75149032D01*
X119170862Y-75146015D01*
X119205206Y-75149999D01*
X119749999Y-75149999D01*
X119750000Y-75149998D01*
X119750000Y-73724000D01*
X119769685Y-73656961D01*
X119822489Y-73611206D01*
X119874000Y-73600000D01*
X120126000Y-73600000D01*
X120193039Y-73619685D01*
X120238794Y-73672489D01*
X120250000Y-73724000D01*
X120250000Y-75149999D01*
X120794786Y-75149999D01*
X120794808Y-75149997D01*
X120829141Y-75146016D01*
X120829582Y-75149821D01*
X120881035Y-75150845D01*
X120931423Y-75181423D01*
X121963681Y-76213681D01*
X121997166Y-76275004D01*
X122000000Y-76301362D01*
X122000000Y-78726000D01*
X121980315Y-78793039D01*
X121927511Y-78838794D01*
X121876000Y-78850000D01*
X120250000Y-78850000D01*
X120250000Y-81449999D01*
X121500638Y-81449999D01*
X121567677Y-81469684D01*
X121613432Y-81522488D01*
X121623376Y-81591646D01*
X121594351Y-81655202D01*
X121588319Y-81661680D01*
X118292434Y-84957564D01*
X118231111Y-84991049D01*
X118161419Y-84986065D01*
X118117074Y-84957567D01*
X118107719Y-84948213D01*
X118107716Y-84948211D01*
X118005118Y-84902910D01*
X117980036Y-84900000D01*
X117385242Y-84900000D01*
X117385242Y-85684314D01*
X117373287Y-85672359D01*
X117260390Y-85614835D01*
X117166723Y-85600000D01*
X117103761Y-85600000D01*
X117010094Y-85614835D01*
X116897197Y-85672359D01*
X116885242Y-85684314D01*
X116885242Y-84900000D01*
X116290456Y-84900000D01*
X116290433Y-84900002D01*
X116265372Y-84902908D01*
X116265368Y-84902909D01*
X116162767Y-84948211D01*
X116162762Y-84948214D01*
X116083456Y-85027520D01*
X116083453Y-85027525D01*
X116038152Y-85130122D01*
X116038152Y-85130124D01*
X116035242Y-85155205D01*
X116035242Y-85750000D01*
X116819556Y-85750000D01*
X116807601Y-85761955D01*
X116750077Y-85874852D01*
X116730256Y-86000000D01*
X116750077Y-86125148D01*
X116807601Y-86238045D01*
X116819556Y-86250000D01*
X116035243Y-86250000D01*
X116035243Y-86844785D01*
X116035244Y-86844808D01*
X116038150Y-86869869D01*
X116038151Y-86869873D01*
X116083453Y-86972474D01*
X116083456Y-86972479D01*
X116162762Y-87051785D01*
X116162767Y-87051788D01*
X116265365Y-87097089D01*
X116290448Y-87099999D01*
X116885241Y-87099999D01*
X116885242Y-87099998D01*
X116885242Y-86315686D01*
X116897197Y-86327641D01*
X117010094Y-86385165D01*
X117103761Y-86400000D01*
X117166723Y-86400000D01*
X117260390Y-86385165D01*
X117373287Y-86327641D01*
X117385242Y-86315686D01*
X117385242Y-87099999D01*
X117876000Y-87099999D01*
X117943039Y-87119684D01*
X117988794Y-87172488D01*
X118000000Y-87223999D01*
X118000000Y-92626000D01*
X117980315Y-92693039D01*
X117927511Y-92738794D01*
X117876000Y-92750000D01*
X117385242Y-92750000D01*
X117385242Y-93534314D01*
X117373287Y-93522359D01*
X117260390Y-93464835D01*
X117166723Y-93450000D01*
X117103761Y-93450000D01*
X117010094Y-93464835D01*
X116897197Y-93522359D01*
X116885242Y-93534314D01*
X116885242Y-92750000D01*
X116290456Y-92750000D01*
X116290433Y-92750002D01*
X116265372Y-92752908D01*
X116265368Y-92752909D01*
X116162767Y-92798211D01*
X116162762Y-92798214D01*
X116083456Y-92877520D01*
X116083453Y-92877525D01*
X116038152Y-92980122D01*
X116038152Y-92980124D01*
X116035242Y-93005205D01*
X116035242Y-93600000D01*
X116819556Y-93600000D01*
X116807601Y-93611955D01*
X116750077Y-93724852D01*
X116730256Y-93850000D01*
X116750077Y-93975148D01*
X116807601Y-94088045D01*
X116819556Y-94100000D01*
X116035243Y-94100000D01*
X116035243Y-94694785D01*
X116035244Y-94694808D01*
X116038150Y-94719869D01*
X116038151Y-94719873D01*
X116083453Y-94822474D01*
X116083456Y-94822479D01*
X116162762Y-94901785D01*
X116162767Y-94901788D01*
X116265365Y-94947089D01*
X116290448Y-94949999D01*
X116885241Y-94949999D01*
X116885242Y-94949998D01*
X116885242Y-94165686D01*
X116897197Y-94177641D01*
X117010094Y-94235165D01*
X117103761Y-94250000D01*
X117166723Y-94250000D01*
X117260390Y-94235165D01*
X117373287Y-94177641D01*
X117385242Y-94165686D01*
X117385242Y-94949999D01*
X117876000Y-94949999D01*
X117943039Y-94969684D01*
X117988794Y-95022488D01*
X118000000Y-95073999D01*
X118000000Y-101250000D01*
X118355181Y-101605181D01*
X118388666Y-101666504D01*
X118391500Y-101692851D01*
X118391500Y-101700532D01*
X118391501Y-101700554D01*
X118399765Y-101781443D01*
X118402113Y-101804426D01*
X118457885Y-101972738D01*
X118550970Y-102123652D01*
X118676348Y-102249030D01*
X118827262Y-102342115D01*
X118995574Y-102397887D01*
X119099455Y-102408500D01*
X119107129Y-102408499D01*
X119174167Y-102428177D01*
X119194818Y-102444818D01*
X119213681Y-102463681D01*
X119247166Y-102525004D01*
X119250000Y-102551362D01*
X119250000Y-102808700D01*
X119230315Y-102875739D01*
X119200000Y-102907478D01*
X119200000Y-103988500D01*
X119180315Y-104055539D01*
X119127511Y-104101294D01*
X119076000Y-104112500D01*
X118932500Y-104112500D01*
X118865461Y-104092815D01*
X118819706Y-104040011D01*
X118808500Y-103988500D01*
X118808500Y-103283495D01*
X118805562Y-103246170D01*
X118805561Y-103246164D01*
X118759146Y-103086403D01*
X118759145Y-103086399D01*
X118757696Y-103083949D01*
X118717268Y-103015587D01*
X118700000Y-102952467D01*
X118700000Y-102908237D01*
X118688713Y-102900228D01*
X118658940Y-102901748D01*
X118600085Y-102868825D01*
X118556812Y-102825551D01*
X118556803Y-102825544D01*
X118413601Y-102740855D01*
X118413596Y-102740853D01*
X118253835Y-102694438D01*
X118253829Y-102694437D01*
X118216505Y-102691500D01*
X118216502Y-102691500D01*
X117783498Y-102691500D01*
X117783495Y-102691500D01*
X117746170Y-102694437D01*
X117746164Y-102694438D01*
X117586403Y-102740853D01*
X117586398Y-102740855D01*
X117443198Y-102825543D01*
X117443188Y-102825551D01*
X117399910Y-102868828D01*
X117338587Y-102902312D01*
X117310755Y-102900606D01*
X117300000Y-102908237D01*
X117300000Y-102952467D01*
X117282732Y-103015587D01*
X117240857Y-103086394D01*
X117240853Y-103086403D01*
X117194438Y-103246164D01*
X117194437Y-103246170D01*
X117191500Y-103283495D01*
X117191500Y-103988500D01*
X117171815Y-104055539D01*
X117119011Y-104101294D01*
X117067500Y-104112500D01*
X116450001Y-104112500D01*
X116450001Y-104126000D01*
X116430316Y-104193039D01*
X116377512Y-104238794D01*
X116326001Y-104250000D01*
X116301362Y-104250000D01*
X116234323Y-104230315D01*
X116213681Y-104213681D01*
X115612500Y-103612500D01*
X116450000Y-103612500D01*
X116800000Y-103612500D01*
X116800000Y-102908237D01*
X116799999Y-102908237D01*
X116687355Y-102947653D01*
X116578207Y-103028207D01*
X116497653Y-103137354D01*
X116452850Y-103265395D01*
X116452850Y-103265399D01*
X116450000Y-103295793D01*
X116450000Y-103612500D01*
X115612500Y-103612500D01*
X114318082Y-102318082D01*
X114284597Y-102256759D01*
X114283290Y-102211008D01*
X114300500Y-102102352D01*
X114300500Y-102000000D01*
X114300500Y-101952405D01*
X114300500Y-101250000D01*
X115650000Y-101250000D01*
X115650000Y-101693053D01*
X115660613Y-101781443D01*
X115716079Y-101922095D01*
X115807435Y-102042564D01*
X115927904Y-102133920D01*
X116068556Y-102189386D01*
X116156946Y-102200000D01*
X116275000Y-102200000D01*
X116275000Y-101250000D01*
X116775000Y-101250000D01*
X116775000Y-102200000D01*
X116893054Y-102200000D01*
X116981443Y-102189386D01*
X117122095Y-102133920D01*
X117242564Y-102042564D01*
X117333920Y-101922095D01*
X117389386Y-101781443D01*
X117400000Y-101693053D01*
X117400000Y-101250000D01*
X116775000Y-101250000D01*
X116275000Y-101250000D01*
X115650000Y-101250000D01*
X114300500Y-101250000D01*
X114300500Y-100750000D01*
X115650000Y-100750000D01*
X116275000Y-100750000D01*
X116275000Y-99800000D01*
X116775000Y-99800000D01*
X116775000Y-100750000D01*
X117400000Y-100750000D01*
X117400000Y-100306946D01*
X117389386Y-100218556D01*
X117333920Y-100077904D01*
X117242564Y-99957435D01*
X117122095Y-99866079D01*
X116981443Y-99810613D01*
X116893054Y-99800000D01*
X116775000Y-99800000D01*
X116275000Y-99800000D01*
X116156946Y-99800000D01*
X116068556Y-99810613D01*
X115927904Y-99866079D01*
X115807435Y-99957435D01*
X115716079Y-100077904D01*
X115660613Y-100218556D01*
X115650000Y-100306946D01*
X115650000Y-100750000D01*
X114300500Y-100750000D01*
X114300500Y-82358114D01*
X114320185Y-82291075D01*
X114372989Y-82245320D01*
X114442147Y-82235376D01*
X114497384Y-82257795D01*
X114543248Y-82291118D01*
X114717712Y-82368794D01*
X114904513Y-82408500D01*
X115095487Y-82408500D01*
X115282288Y-82368794D01*
X115456752Y-82291118D01*
X115611253Y-82178866D01*
X115739040Y-82036944D01*
X115834527Y-81871556D01*
X115893542Y-81689928D01*
X115913504Y-81500000D01*
X115893542Y-81310072D01*
X115834527Y-81128444D01*
X115739040Y-80963056D01*
X115611253Y-80821134D01*
X115456752Y-80708882D01*
X115282288Y-80631206D01*
X115282286Y-80631205D01*
X115095487Y-80591500D01*
X114904513Y-80591500D01*
X114717714Y-80631205D01*
X114717712Y-80631206D01*
X114564321Y-80699500D01*
X114543246Y-80708883D01*
X114388745Y-80821135D01*
X114260960Y-80963055D01*
X114173856Y-81113923D01*
X114123288Y-81162138D01*
X114054681Y-81175360D01*
X113989817Y-81149392D01*
X113978788Y-81139603D01*
X113847213Y-81008028D01*
X113681613Y-80887715D01*
X113681612Y-80887714D01*
X113681610Y-80887713D01*
X113624653Y-80858691D01*
X113499223Y-80794781D01*
X113304534Y-80731522D01*
X113129995Y-80703878D01*
X113102352Y-80699500D01*
X113047595Y-80699500D01*
X113000000Y-80699500D01*
X112897648Y-80699500D01*
X112873329Y-80703351D01*
X112695465Y-80731522D01*
X112500776Y-80794781D01*
X112318385Y-80887715D01*
X112299419Y-80901495D01*
X112233612Y-80924973D01*
X112165559Y-80909146D01*
X112138856Y-80888856D01*
X111650000Y-80400000D01*
X117800001Y-80400000D01*
X117800001Y-81194785D01*
X117800002Y-81194808D01*
X117802908Y-81219869D01*
X117802909Y-81219873D01*
X117848211Y-81322474D01*
X117848214Y-81322479D01*
X117927520Y-81401785D01*
X117927525Y-81401788D01*
X118030123Y-81447089D01*
X118055206Y-81449999D01*
X119749999Y-81449999D01*
X119750000Y-81449998D01*
X119750000Y-80400000D01*
X117800001Y-80400000D01*
X111650000Y-80400000D01*
X111150000Y-79900000D01*
X117800000Y-79900000D01*
X119750000Y-79900000D01*
X119750000Y-78850000D01*
X118055214Y-78850000D01*
X118055191Y-78850002D01*
X118030130Y-78852908D01*
X118030126Y-78852909D01*
X117927525Y-78898211D01*
X117927520Y-78898214D01*
X117848214Y-78977520D01*
X117848211Y-78977525D01*
X117802910Y-79080122D01*
X117802910Y-79080124D01*
X117800000Y-79105205D01*
X117800000Y-79900000D01*
X111150000Y-79900000D01*
X109975000Y-78725000D01*
X111800000Y-78725000D01*
X111800000Y-78843053D01*
X111810613Y-78931443D01*
X111866079Y-79072095D01*
X111957435Y-79192564D01*
X112077904Y-79283920D01*
X112218556Y-79339386D01*
X112306946Y-79350000D01*
X112750000Y-79350000D01*
X112750000Y-78725000D01*
X113250000Y-78725000D01*
X113250000Y-79350000D01*
X113693054Y-79350000D01*
X113781443Y-79339386D01*
X113922095Y-79283920D01*
X114042564Y-79192564D01*
X114133920Y-79072095D01*
X114189386Y-78931443D01*
X114200000Y-78843053D01*
X114200000Y-78725000D01*
X113250000Y-78725000D01*
X112750000Y-78725000D01*
X111800000Y-78725000D01*
X109975000Y-78725000D01*
X109475000Y-78225000D01*
X111800000Y-78225000D01*
X112750000Y-78225000D01*
X112750000Y-77600000D01*
X113250000Y-77600000D01*
X113250000Y-78225000D01*
X114200000Y-78225000D01*
X114200000Y-78106946D01*
X114189386Y-78018556D01*
X114133920Y-77877904D01*
X114042564Y-77757435D01*
X113922095Y-77666079D01*
X113781443Y-77610613D01*
X113693054Y-77600000D01*
X113250000Y-77600000D01*
X112750000Y-77600000D01*
X112306946Y-77600000D01*
X112218556Y-77610613D01*
X112077904Y-77666079D01*
X111957435Y-77757435D01*
X111866079Y-77877904D01*
X111810613Y-78018556D01*
X111800000Y-78106946D01*
X111800000Y-78225000D01*
X109475000Y-78225000D01*
X107536319Y-76286319D01*
X107502834Y-76224996D01*
X107500000Y-76198638D01*
X107500000Y-75273999D01*
X107519685Y-75206960D01*
X107572489Y-75161205D01*
X107624000Y-75149999D01*
X108049999Y-75149999D01*
X108050000Y-75149998D01*
X108050000Y-74100000D01*
X108550000Y-74100000D01*
X108550000Y-75149999D01*
X109094786Y-75149999D01*
X109094808Y-75149997D01*
X109119869Y-75147091D01*
X109119873Y-75147090D01*
X109222474Y-75101788D01*
X109222479Y-75101785D01*
X109301785Y-75022479D01*
X109301788Y-75022474D01*
X109347089Y-74919877D01*
X109347089Y-74919875D01*
X109349999Y-74894794D01*
X109349999Y-74100000D01*
X108550000Y-74100000D01*
X108050000Y-74100000D01*
X108050000Y-73724000D01*
X108069685Y-73656961D01*
X108122489Y-73611206D01*
X108174000Y-73600000D01*
X109349998Y-73600000D01*
X109372078Y-73577920D01*
X109433401Y-73544434D01*
X109503093Y-73549418D01*
G37*
%TD.AperFunction*%
%TD*%
%TA.AperFunction,Conductor*%
%TO.N,GNDREF*%
G36*
X104193039Y-73019685D02*
G01*
X104238794Y-73072489D01*
X104250000Y-73124000D01*
X104250000Y-74448638D01*
X104230315Y-74515677D01*
X104213681Y-74536319D01*
X103786319Y-74963681D01*
X103724996Y-74997166D01*
X103698638Y-75000000D01*
X102051362Y-75000000D01*
X101984323Y-74980315D01*
X101963681Y-74963681D01*
X101786319Y-74786319D01*
X101752834Y-74724996D01*
X101750000Y-74698638D01*
X101750000Y-73551362D01*
X101769685Y-73484323D01*
X101786319Y-73463681D01*
X102213681Y-73036319D01*
X102275004Y-73002834D01*
X102301362Y-73000000D01*
X104126000Y-73000000D01*
X104193039Y-73019685D01*
G37*
%TD.AperFunction*%
%TD*%
%TA.AperFunction,Conductor*%
%TO.N,GNDREF*%
G36*
X113765677Y-73769685D02*
G01*
X113786319Y-73786319D01*
X113963681Y-73963681D01*
X113997166Y-74025004D01*
X114000000Y-74051362D01*
X114000000Y-75698638D01*
X113980315Y-75765677D01*
X113963681Y-75786319D01*
X113786319Y-75963681D01*
X113724996Y-75997166D01*
X113698638Y-76000000D01*
X112301362Y-76000000D01*
X112234323Y-75980315D01*
X112213681Y-75963681D01*
X112141319Y-75891319D01*
X112107834Y-75829996D01*
X112105000Y-75803638D01*
X112105000Y-75772862D01*
X112103894Y-75749266D01*
X112103875Y-75748853D01*
X112100586Y-75713815D01*
X112093864Y-75666249D01*
X112046506Y-75527977D01*
X112014690Y-75465772D01*
X112014687Y-75465768D01*
X112013602Y-75463646D01*
X112000000Y-75407180D01*
X112000000Y-74051362D01*
X112019685Y-73984323D01*
X112036319Y-73963681D01*
X112213681Y-73786319D01*
X112275004Y-73752834D01*
X112301362Y-73750000D01*
X113698638Y-73750000D01*
X113765677Y-73769685D01*
G37*
%TD.AperFunction*%
%TD*%
%TA.AperFunction,Conductor*%
%TO.N,GNDREF*%
G36*
X118193039Y-73019685D02*
G01*
X118238794Y-73072489D01*
X118250000Y-73124000D01*
X118250000Y-74698638D01*
X118230315Y-74765677D01*
X118213681Y-74786319D01*
X118036319Y-74963681D01*
X117974996Y-74997166D01*
X117948638Y-75000000D01*
X115801362Y-75000000D01*
X115734323Y-74980315D01*
X115713681Y-74963681D01*
X115536319Y-74786319D01*
X115502834Y-74724996D01*
X115500000Y-74698638D01*
X115500000Y-73301362D01*
X115519685Y-73234323D01*
X115536319Y-73213681D01*
X115713681Y-73036319D01*
X115775004Y-73002834D01*
X115801362Y-73000000D01*
X118126000Y-73000000D01*
X118193039Y-73019685D01*
G37*
%TD.AperFunction*%
%TD*%
%TA.AperFunction,Conductor*%
%TO.N,GNDREF*%
G36*
X118693039Y-70269685D02*
G01*
X118738794Y-70322489D01*
X118750000Y-70374000D01*
X118750000Y-71626000D01*
X118730315Y-71693039D01*
X118677511Y-71738794D01*
X118626000Y-71750000D01*
X117051362Y-71750000D01*
X116984323Y-71730315D01*
X116963681Y-71713681D01*
X116786319Y-71536319D01*
X116752834Y-71474996D01*
X116750000Y-71448638D01*
X116750000Y-70551362D01*
X116769685Y-70484323D01*
X116786319Y-70463681D01*
X116963681Y-70286319D01*
X117025004Y-70252834D01*
X117051362Y-70250000D01*
X118626000Y-70250000D01*
X118693039Y-70269685D01*
G37*
%TD.AperFunction*%
%TD*%
M02*
