M48
; DRILL file {KiCad 7.0.8} date Sun Dec  3 14:11:42 2023
; FORMAT={-:-/ absolute / inch / decimal}
; #@! TF.CreationDate,2023-12-03T14:11:42+01:00
; #@! TF.GenerationSoftware,Kicad,Pcbnew,7.0.8
; #@! TF.FileFunction,Plated,1,4,PTH
FMAT,2
INCH
; #@! TA.AperFunction,Plated,PTH,ComponentDrill
T1C0.0118
; #@! TA.AperFunction,Plated,PTH,ViaDrill
T2C0.0157
; #@! TA.AperFunction,Plated,PTH,ComponentDrill
T3C0.0157
; #@! TA.AperFunction,Plated,PTH,ComponentDrill
T4C0.0236
; #@! TA.AperFunction,Plated,PTH,ComponentDrill
T5C0.0300
; #@! TA.AperFunction,Plated,PTH,ComponentDrill
T6C0.0315
; #@! TA.AperFunction,Plated,PTH,ComponentDrill
T7C0.0354
; #@! TA.AperFunction,Plated,PTH,ComponentDrill
T8C0.0394
; #@! TA.AperFunction,Plated,PTH,ComponentDrill
T9C0.0472
; #@! TA.AperFunction,Plated,PTH,ComponentDrill
T10C0.0709
; #@! TA.AperFunction,Plated,PTH,ComponentDrill
T11C0.0787
; #@! TA.AperFunction,Plated,PTH,ComponentDrill
T12C0.0866
%
G90
G05
T1
X3.3094Y-3.2992
X3.3094Y-3.3543
X3.337Y-3.2717
X3.337Y-3.3268
X3.337Y-3.3819
X3.3646Y-3.2992
X3.3646Y-3.3543
X3.3921Y-3.2717
X3.3921Y-3.3268
X3.3921Y-3.3819
X3.4197Y-3.2992
X3.4197Y-3.3543
T2
X2.7953Y-2.4016
X2.815Y-2.9331
X2.815Y-3.8386
X2.815Y-5.8465
X2.8543Y-4.1339
X2.874Y-2.6378
X2.9485Y-2.7136
X2.9485Y-2.8711
X2.9485Y-3.9734
X2.9485Y-4.2884
X2.9485Y-4.7608
X2.9485Y-5.2333
X2.9485Y-5.3907
X2.9485Y-5.5482
X2.9485Y-5.7057
X2.9485Y-5.8632
X2.9528Y-4.1339
X2.9626Y-4.4882
X2.9626Y-4.9606
X3.0118Y-2.2047
X3.0118Y-6.0433
X3.0512Y-4.1339
X3.061Y-2.9724
X3.061Y-3.1102
X3.061Y-3.6614
X3.106Y-2.2411
X3.106Y-3.186
X3.106Y-3.3435
X3.106Y-3.501
X3.106Y-4.2884
X3.106Y-4.4459
X3.106Y-4.6033
X3.106Y-4.7608
X3.106Y-4.9183
X3.106Y-5.0758
X3.106Y-5.3907
X3.106Y-5.5482
X3.106Y-5.7057
X3.106Y-6.0207
X3.1299Y-3.1102
X3.1496Y-4.1339
X3.1594Y-2.9724
X3.189Y-3.1299
X3.189Y-3.189
X3.248Y-4.1339
X3.2579Y-2.815
X3.2579Y-3.189
X3.2635Y-2.2411
X3.2635Y-2.5561
X3.2635Y-3.3435
X3.2635Y-3.501
X3.2635Y-3.6585
X3.2635Y-3.9734
X3.2635Y-4.2884
X3.2635Y-4.4459
X3.2635Y-4.6033
X3.2635Y-4.7608
X3.2635Y-4.9183
X3.2635Y-5.0758
X3.2635Y-5.3907
X3.2635Y-5.5482
X3.2635Y-5.7057
X3.2635Y-6.0207
X3.2677Y-2.9724
X3.3169Y-3.1201
X3.3268Y-2.9724
X3.3268Y-3.1791
X3.3465Y-4.1339
X3.4209Y-2.2411
X3.4209Y-2.7136
X3.4209Y-3.501
X3.4209Y-3.6585
X3.4209Y-4.2884
X3.4209Y-4.4459
X3.4209Y-4.6033
X3.4209Y-4.7608
X3.4209Y-4.9183
X3.4209Y-5.0758
X3.4209Y-5.2333
X3.4209Y-5.3907
X3.4209Y-5.5482
X3.4209Y-5.7057
X3.4209Y-5.8632
X3.4209Y-6.0207
X3.4252Y-2.9724
X3.4449Y-4.1339
X3.4547Y-3.8386
X3.4646Y-3.1102
X3.4646Y-3.1594
X3.4744Y-3.2185
X3.4744Y-4.0157
X3.4843Y-2.8051
X3.4843Y-4.0551
X3.5138Y-3.8287
X3.5335Y-3.2185
X3.5335Y-4.1339
X3.563Y-4.2618
X3.5728Y-3.2677
X3.5728Y-3.8189
X3.5784Y-2.2411
X3.5784Y-2.3986
X3.5784Y-2.5561
X3.5784Y-3.3435
X3.5784Y-3.501
X3.5784Y-4.7608
X3.5784Y-4.9183
X3.5784Y-5.0758
X3.5784Y-5.3907
X3.5784Y-5.5482
X3.5784Y-5.7057
X3.5784Y-6.0207
X3.5827Y-3.1496
X3.6122Y-2.687
X3.6122Y-3.6516
X3.622Y-4.0157
X3.622Y-4.0945
X3.6319Y-3.8091
X3.6319Y-4.2815
X3.6319Y-4.5472
X3.6614Y-3.1299
X3.6614Y-3.189
X3.6614Y-3.6516
X3.6614Y-4.0551
X3.6713Y-4.9606
X3.6713Y-5.1673
X3.6713Y-6.0138
X3.7008Y-3.7894
X3.7008Y-3.8386
X3.7008Y-4.0157
X3.7008Y-4.0945
X3.7106Y-4.2717
X3.7106Y-4.3996
X3.7106Y-4.626
X3.7359Y-2.2411
X3.7359Y-4.7608
X3.7359Y-5.0758
X3.7359Y-5.3907
X3.7359Y-5.5482
X3.7359Y-5.7057
X3.7359Y-6.0207
X3.7697Y-2.9429
X3.7697Y-2.9921
X3.7697Y-3.0413
X3.7697Y-3.7205
X3.7894Y-2.5197
X3.7992Y-4.065
X3.7992Y-4.1339
X3.7992Y-4.2126
X3.8091Y-4.4193
X3.8189Y-3.4252
X3.8287Y-3.061
X3.8287Y-3.5728
X3.8386Y-3.8878
X3.8681Y-4.6161
X3.8878Y-3.8878
X3.8878Y-3.9764
X3.8934Y-2.2411
X3.8934Y-3.6585
X3.8934Y-4.2884
X3.8934Y-4.9183
X3.8934Y-5.0758
X3.8934Y-5.2333
X3.8934Y-5.3907
X3.8934Y-5.5482
X3.8934Y-5.7057
X3.8934Y-6.0207
X3.8976Y-3.5039
X3.9075Y-4.1339
X3.937Y-3.5433
X3.9567Y-3.2579
X3.9567Y-4.498
X3.9862Y-3.4941
X4.0157Y-4.1339
X4.0256Y-2.8937
X4.0256Y-2.9331
X4.0256Y-3.5236
X4.0256Y-4.6949
X4.0256Y-4.8917
X4.0354Y-3.6614
X4.0509Y-2.2411
X4.0509Y-2.3986
X4.0509Y-2.5561
X4.0509Y-3.9734
X4.0509Y-4.2884
X4.0509Y-5.3907
X4.0509Y-5.8632
X4.0509Y-6.0207
X4.0748Y-3.3661
X4.124Y-4.1339
X4.124Y-4.8524
X4.1339Y-2.687
X4.1339Y-3.0413
X4.1339Y-5.4232
X4.1339Y-5.5217
X4.1437Y-5.6398
X4.1732Y-4.8524
X4.1732Y-5.7382
X4.1831Y-4.9311
X4.1831Y-5.3445
X4.1929Y-3.622
X4.2083Y-2.2411
X4.2083Y-2.3986
X4.2083Y-2.5561
X4.2083Y-3.9734
X4.2083Y-4.2884
X4.2083Y-5.8632
X4.2083Y-6.0207
X4.2126Y-3.0413
X4.2126Y-4.5571
X4.2126Y-4.6161
X4.2323Y-3.7992
X4.2323Y-4.1339
X4.2323Y-4.9508
X4.252Y-5.1181
X4.252Y-5.2854
X4.2717Y-5.7677
X4.2815Y-3.5433
X4.2815Y-3.75
X4.2913Y-4.8622
X4.3209Y-5.2067
X4.3307Y-5.3445
X4.3307Y-5.4429
X4.3406Y-4.1339
X4.3406Y-5.5512
X4.3406Y-5.6791
X4.3602Y-4.9606
X4.3658Y-2.2411
X4.3658Y-3.3435
X4.3658Y-3.501
X4.3658Y-3.6585
X4.3658Y-3.9734
X4.3658Y-4.7608
X4.3658Y-5.8632
X4.3658Y-6.0207
X4.3701Y-3.8091
X4.3701Y-4.8819
X4.3799Y-3.2087
X4.3799Y-4.3307
X4.3996Y-5.128
X4.4094Y-5.0394
X4.4094Y-5.2756
X4.4291Y-2.9232
X4.439Y-4.1339
X4.4488Y-5.4528
X4.4488Y-5.5512
X4.4488Y-5.9154
X4.4685Y-2.9232
X4.4685Y-4.8917
X4.4685Y-5.2067
X4.498Y-4.9606
X4.5233Y-2.2411
X4.5233Y-4.4459
X4.5233Y-4.7608
X4.5233Y-6.0207
X4.5276Y-3.2087
X4.5374Y-4.1339
X4.5472Y-5.3642
X4.5472Y-5.4429
X4.5472Y-5.5512
X4.5472Y-5.6693
X4.5472Y-5.8071
X4.5669Y-2.8937
X4.5669Y-2.9331
X4.5669Y-4.8917
X4.5768Y-5.0394
X4.5965Y-4.6457
X4.5965Y-5.1673
X4.5965Y-6.0138
X4.6161Y-2.7756
X4.6161Y-2.815
X4.6457Y-4.1339
X4.6457Y-5.3642
X4.6457Y-5.4429
X4.6457Y-5.5512
X4.6457Y-5.6693
X4.6457Y-5.8071
X4.6654Y-4.9705
X4.6808Y-2.2411
X4.6808Y-2.3986
X4.6808Y-4.2884
X4.6808Y-4.4459
X4.6808Y-4.6033
X4.6808Y-4.7608
X4.6808Y-6.0207
X4.6949Y-4.8917
X4.7047Y-3.8878
X4.7146Y-5.0394
X4.7441Y-4.1339
X4.7441Y-5.2657
X4.7441Y-5.9154
X4.7736Y-4.9508
X4.7933Y-3.2874
X4.7933Y-3.4843
X4.8327Y-4.1339
X4.8383Y-2.2411
X4.8383Y-2.7136
X4.8383Y-3.8159
X4.8383Y-3.9734
X4.8383Y-4.2884
X4.8383Y-4.4459
X4.8383Y-4.6033
X4.8383Y-4.7608
X4.8383Y-4.9183
X4.8383Y-5.2333
X4.8383Y-5.3907
X4.8383Y-5.5482
X4.8383Y-5.7057
X4.8383Y-5.8632
X4.8383Y-6.0207
X4.8425Y-3.1988
X4.8425Y-3.5039
X4.8524Y-3.0413
X4.8524Y-3.1102
X4.9213Y-4.1339
X4.9957Y-2.2411
X4.9957Y-2.5561
X4.9957Y-3.6585
X4.9957Y-4.2884
X4.9957Y-4.4459
X4.9957Y-4.6033
X4.9957Y-4.7608
X4.9957Y-4.9183
X4.9957Y-5.0758
X4.9957Y-5.3907
X4.9957Y-5.5482
X4.9957Y-5.7057
X4.9957Y-6.0207
X5.0197Y-4.1339
X5.0591Y-3.6319
X5.0787Y-3.0413
X5.1181Y-3.6417
X5.1181Y-4.1339
X5.1378Y-3.0512
X5.1532Y-2.2411
X5.1532Y-2.8711
X5.1532Y-3.8159
X5.1532Y-4.2884
X5.1532Y-4.4459
X5.1532Y-4.6033
X5.1532Y-4.7608
X5.1532Y-4.9183
X5.1532Y-5.0758
X5.1532Y-5.3907
X5.1532Y-5.5482
X5.1532Y-5.7057
X5.1532Y-6.0207
X5.1673Y-3.0118
X5.1772Y-3.6319
X5.2165Y-4.1339
X5.2461Y-2.6673
X5.2559Y-2.7165
X5.2657Y-2.2047
X5.2756Y-6.0531
X5.3107Y-3.3435
X5.3107Y-3.8159
X5.3107Y-3.9734
X5.3107Y-4.2884
X5.3107Y-4.4459
X5.3107Y-4.6033
X5.3107Y-4.7608
X5.3107Y-4.9183
X5.3107Y-5.0758
X5.3107Y-5.2333
X5.3107Y-5.3907
X5.3107Y-5.5482
X5.3107Y-5.7057
X5.3107Y-5.8632
X5.315Y-4.1339
X5.4134Y-4.1339
X5.4682Y-3.0285
X5.4682Y-3.6585
X5.4682Y-3.8159
X5.4682Y-3.9734
X5.4682Y-4.2884
X5.4682Y-4.4459
X5.4682Y-4.6033
X5.4682Y-4.7608
X5.4682Y-4.9183
X5.4682Y-5.0758
X5.4682Y-5.2333
X5.4682Y-5.3907
X5.4682Y-5.5482
X5.4682Y-5.7057
X5.4724Y-2.4016
X5.4724Y-5.8661
T3
X2.8091Y-2.2835
X2.8091Y-5.9843
X2.8281Y-2.2375
X2.8281Y-2.3294
X2.8281Y-5.9383
X2.8281Y-6.0302
X2.874Y-2.2185
X2.874Y-2.3484
X2.874Y-5.9193
X2.874Y-6.0492
X2.9199Y-2.2375
X2.9199Y-2.3294
X2.9199Y-5.9383
X2.9199Y-6.0302
X2.939Y-2.2835
X2.939Y-5.9843
X5.3287Y-2.2835
X5.3287Y-5.9843
X5.3478Y-2.2375
X5.3478Y-2.3294
X5.3478Y-5.9383
X5.3478Y-6.0302
X5.3937Y-2.2185
X5.3937Y-2.3484
X5.3937Y-5.9193
X5.3937Y-6.0492
X5.4396Y-2.2375
X5.4396Y-2.3294
X5.4396Y-5.9383
X5.4396Y-6.0302
X5.4587Y-2.2835
X5.4587Y-5.9843
T6
X4.6116Y-3.3858
X4.6116Y-3.6949
X4.71Y-3.3858
X4.71Y-3.6949
T7
X4.0157Y-5.4952
X4.0157Y-5.5936
X4.0157Y-5.692
X4.252Y-5.4952
X4.252Y-5.5936
X4.252Y-5.692
T8
X3.0693Y-3.8551
X3.0693Y-3.9551
X3.0693Y-4.0551
X3.1063Y-2.7559
X3.1693Y-3.8551
X3.1693Y-3.9551
X3.1693Y-4.0551
X3.2047Y-2.7559
X3.3031Y-2.7559
X4.0354Y-2.7559
X4.1339Y-2.7559
X4.2323Y-2.7559
X4.4982Y-5.0394
X4.7935Y-5.0394
X4.9646Y-2.7559
X5.0197Y-3.3661
X5.0197Y-3.937
X5.063Y-2.7559
X5.1181Y-3.937
X5.1614Y-2.7559
X5.2165Y-3.3661
X5.2165Y-3.937
T9
X2.874Y-4.4882
X2.874Y-4.9606
X3.7598Y-4.4882
X3.7598Y-4.9606
X4.5079Y-4.6457
X5.3937Y-4.6457
T12
X2.874Y-2.2835
X2.874Y-5.9843
X5.3937Y-2.2835
X5.3937Y-5.9843
T4
G00X5.2972Y-2.8614
M15
G01X5.2539Y-2.8614
M16
G05
G00X5.2972Y-3.2016
M15
G01X5.2539Y-3.2016
M16
G05
G00X5.452Y-2.8614
M15
G01X5.4283Y-2.8614
M16
G05
G00X5.452Y-3.2016
M15
G01X5.4283Y-3.2016
M16
G05
T5
G00X3.1252Y-5.2657
M15
G01X3.233Y-5.2657
M16
G05
G00X3.1252Y-5.9154
M15
G01X3.233Y-5.9154
M16
G05
G00X3.6174Y-5.2657
M15
G01X3.7252Y-5.2657
M16
G05
G00X3.6174Y-5.9154
M15
G01X3.7252Y-5.9154
M16
G05
G00X4.6504Y-5.2657
M15
G01X4.5426Y-5.2657
M16
G05
G00X4.6504Y-5.9154
M15
G01X4.5426Y-5.9154
M16
G05
G00X5.1425Y-5.2657
M15
G01X5.0347Y-5.2657
M16
G05
G00X5.1425Y-5.9154
M15
G01X5.0347Y-5.9154
M16
G05
T8
G00X4.5686Y-2.4016
M15
G01X4.4899Y-2.4016
M16
G05
G00X4.5686Y-2.6378
M15
G01X4.4899Y-2.6378
M16
G05
G00X4.7143Y-2.4803
M15
G01X4.7143Y-2.5591
M16
G05
T10
G00X3.0315Y-2.4862
M15
G01X3.0315Y-2.4744
M16
G05
G00X3.378Y-2.4862
M15
G01X3.378Y-2.4744
M16
G05
G00X3.9606Y-2.4862
M15
G01X3.9606Y-2.4744
M16
G05
G00X4.3071Y-2.4862
M15
G01X4.3071Y-2.4744
M16
G05
G00X4.8898Y-2.4862
M15
G01X4.8898Y-2.4744
M16
G05
G00X5.2362Y-2.4862
M15
G01X5.2362Y-2.4744
M16
G05
T11
G00X4.8976Y-3.6516
M15
G01X4.8976Y-3.6319
M16
G05
G00X5.3386Y-3.6516
M15
G01X5.3386Y-3.6319
M16
G05
T0
M30
