%TF.GenerationSoftware,KiCad,Pcbnew,7.0.8*%
%TF.CreationDate,2023-12-03T14:11:45+01:00*%
%TF.ProjectId,Supersonic Quantumbox,53757065-7273-46f6-9e69-63205175616e,rev?*%
%TF.SameCoordinates,Original*%
%TF.FileFunction,Copper,L1,Top*%
%TF.FilePolarity,Positive*%
%FSLAX46Y46*%
G04 Gerber Fmt 4.6, Leading zero omitted, Abs format (unit mm)*
G04 Created by KiCad (PCBNEW 7.0.8) date 2023-12-03 14:11:45*
%MOMM*%
%LPD*%
G01*
G04 APERTURE LIST*
G04 Aperture macros list*
%AMRoundRect*
0 Rectangle with rounded corners*
0 $1 Rounding radius*
0 $2 $3 $4 $5 $6 $7 $8 $9 X,Y pos of 4 corners*
0 Add a 4 corners polygon primitive as box body*
4,1,4,$2,$3,$4,$5,$6,$7,$8,$9,$2,$3,0*
0 Add four circle primitives for the rounded corners*
1,1,$1+$1,$2,$3*
1,1,$1+$1,$4,$5*
1,1,$1+$1,$6,$7*
1,1,$1+$1,$8,$9*
0 Add four rect primitives between the rounded corners*
20,1,$1+$1,$2,$3,$4,$5,0*
20,1,$1+$1,$4,$5,$6,$7,0*
20,1,$1+$1,$6,$7,$8,$9,0*
20,1,$1+$1,$8,$9,$2,$3,0*%
G04 Aperture macros list end*
%TA.AperFunction,ComponentPad*%
%ADD10C,0.600000*%
%TD*%
%TA.AperFunction,ComponentPad*%
%ADD11R,1.700000X1.700000*%
%TD*%
%TA.AperFunction,ComponentPad*%
%ADD12O,1.700000X1.700000*%
%TD*%
%TA.AperFunction,ComponentPad*%
%ADD13C,0.700000*%
%TD*%
%TA.AperFunction,ComponentPad*%
%ADD14C,4.400000*%
%TD*%
%TA.AperFunction,ComponentPad*%
%ADD15C,1.800000*%
%TD*%
%TA.AperFunction,ComponentPad*%
%ADD16R,2.000000X2.000000*%
%TD*%
%TA.AperFunction,ComponentPad*%
%ADD17C,2.000000*%
%TD*%
%TA.AperFunction,ComponentPad*%
%ADD18R,2.500000X3.000000*%
%TD*%
%TA.AperFunction,ComponentPad*%
%ADD19R,1.800000X1.800000*%
%TD*%
%TA.AperFunction,ComponentPad*%
%ADD20RoundRect,0.750000X0.750000X-1.250000X0.750000X1.250000X-0.750000X1.250000X-0.750000X-1.250000X0*%
%TD*%
%TA.AperFunction,ComponentPad*%
%ADD21R,1.600000X1.600000*%
%TD*%
%TA.AperFunction,ComponentPad*%
%ADD22C,1.600000*%
%TD*%
%TA.AperFunction,ComponentPad*%
%ADD23C,2.400000*%
%TD*%
%TA.AperFunction,ComponentPad*%
%ADD24O,5.200000X2.500000*%
%TD*%
%TA.AperFunction,ComponentPad*%
%ADD25O,1.600000X1.000000*%
%TD*%
%TA.AperFunction,ComponentPad*%
%ADD26O,2.100000X1.000000*%
%TD*%
%TA.AperFunction,ComponentPad*%
%ADD27R,3.500000X3.500000*%
%TD*%
%TA.AperFunction,ComponentPad*%
%ADD28RoundRect,0.750000X-1.000000X0.750000X-1.000000X-0.750000X1.000000X-0.750000X1.000000X0.750000X0*%
%TD*%
%TA.AperFunction,ComponentPad*%
%ADD29RoundRect,0.875000X-0.875000X0.875000X-0.875000X-0.875000X0.875000X-0.875000X0.875000X0.875000X0*%
%TD*%
%TA.AperFunction,ViaPad*%
%ADD30C,0.800000*%
%TD*%
%TA.AperFunction,Conductor*%
%ADD31C,0.200000*%
%TD*%
%TA.AperFunction,Conductor*%
%ADD32C,0.400000*%
%TD*%
G04 APERTURE END LIST*
D10*
%TO.P,U9,41*%
%TO.N,N/C*%
X84760000Y-83100000D03*
X86160000Y-83100000D03*
X84060000Y-83800000D03*
X85460000Y-83800000D03*
X86860000Y-83800000D03*
X84760000Y-84500000D03*
X86160000Y-84500000D03*
X84060000Y-85200000D03*
X85460000Y-85200000D03*
X86860000Y-85200000D03*
X84760000Y-85900000D03*
X86160000Y-85900000D03*
%TD*%
D11*
%TO.P,J3,1,Pin_1*%
%TO.N,/IO42*%
X80500000Y-97920000D03*
D12*
%TO.P,J3,2,Pin_2*%
%TO.N,GNDREF*%
X77960000Y-97920000D03*
%TO.P,J3,3,Pin_3*%
%TO.N,/IO41*%
X80500000Y-100460000D03*
%TO.P,J3,4,Pin_4*%
%TO.N,/IO1*%
X77960000Y-100460000D03*
%TO.P,J3,5,Pin_5*%
%TO.N,+3V3*%
X80500000Y-103000000D03*
%TO.P,J3,6,Pin_6*%
%TO.N,/IO2*%
X77960000Y-103000000D03*
%TD*%
D13*
%TO.P,H4,1,1*%
%TO.N,unconnected-(H4-Pad1)*%
X135350000Y-152000000D03*
X135833274Y-150833274D03*
X135833274Y-153166726D03*
X137000000Y-150350000D03*
D14*
X137000000Y-152000000D03*
D13*
X137000000Y-153650000D03*
X138166726Y-150833274D03*
X138166726Y-153166726D03*
X138650000Y-152000000D03*
%TD*%
D15*
%TO.P,SW4,1,A*%
%TO.N,/DSP_IN*%
X108000000Y-144577500D03*
%TO.P,SW4,2,B*%
%TO.N,/JACK_IN*%
X108000000Y-139577500D03*
%TO.P,SW4,3,C*%
%TO.N,/BYPASS*%
X108000000Y-142077500D03*
%TO.P,SW4,4,A*%
%TO.N,/DSP_OUT*%
X102000000Y-139577500D03*
%TO.P,SW4,5,B*%
%TO.N,/JACK_OUT*%
X102000000Y-144577500D03*
%TO.P,SW4,6,C*%
%TO.N,/BYPASS*%
X102000000Y-142077500D03*
%TD*%
D13*
%TO.P,H2,1,1*%
%TO.N,unconnected-(H2-Pad1)*%
X135350000Y-58000000D03*
X135833274Y-56833274D03*
X135833274Y-59166726D03*
X137000000Y-56350000D03*
D14*
X137000000Y-58000000D03*
D13*
X137000000Y-59650000D03*
X138166726Y-56833274D03*
X138166726Y-59166726D03*
X138650000Y-58000000D03*
%TD*%
D16*
%TO.P,SW3,A,A*%
%TO.N,/ENC_A*%
X127500000Y-100000000D03*
D17*
%TO.P,SW3,B,B*%
%TO.N,/ENC_B*%
X132500000Y-100000000D03*
%TO.P,SW3,C,C*%
%TO.N,GNDREF*%
X130000000Y-100000000D03*
D18*
%TO.P,SW3,MP*%
%TO.N,N/C*%
X124400000Y-92500000D03*
X135600000Y-92500000D03*
D17*
%TO.P,SW3,S1,S1*%
%TO.N,GNDREF*%
X127500000Y-85500000D03*
%TO.P,SW3,S2,S2*%
%TO.N,/ENC_SW*%
X132500000Y-85500000D03*
%TD*%
D19*
%TO.P,RV3,1,1*%
%TO.N,GNDREF*%
X126100000Y-70000000D03*
D15*
%TO.P,RV3,2,2*%
%TO.N,/Pot3*%
X128600000Y-70000000D03*
%TO.P,RV3,3,3*%
%TO.N,Net-(R5-Pad2)*%
X131100000Y-70000000D03*
D20*
%TO.P,RV3,MP*%
%TO.N,N/C*%
X124200000Y-63000000D03*
X133000000Y-63000000D03*
%TD*%
D19*
%TO.P,RV2,1,1*%
%TO.N,GNDREF*%
X102500000Y-70000000D03*
D15*
%TO.P,RV2,2,2*%
%TO.N,/Pot2*%
X105000000Y-70000000D03*
%TO.P,RV2,3,3*%
%TO.N,Net-(R7-Pad2)*%
X107500000Y-70000000D03*
D20*
%TO.P,RV2,MP*%
%TO.N,N/C*%
X100600000Y-63000000D03*
X109400000Y-63000000D03*
%TD*%
D13*
%TO.P,H3,1,1*%
%TO.N,unconnected-(H3-Pad1)*%
X71350000Y-152000000D03*
X71833274Y-150833274D03*
X71833274Y-153166726D03*
X73000000Y-150350000D03*
D14*
X73000000Y-152000000D03*
D13*
X73000000Y-153650000D03*
X74166726Y-150833274D03*
X74166726Y-153166726D03*
X74650000Y-152000000D03*
%TD*%
D19*
%TO.P,RV1,1,1*%
%TO.N,GNDREF*%
X78900000Y-70000000D03*
D15*
%TO.P,RV1,2,2*%
%TO.N,/Pot1*%
X81400000Y-70000000D03*
%TO.P,RV1,3,3*%
%TO.N,Net-(R9-Pad2)*%
X83900000Y-70000000D03*
D20*
%TO.P,RV1,MP*%
%TO.N,N/C*%
X77000000Y-63000000D03*
X85800000Y-63000000D03*
%TD*%
D13*
%TO.P,H1,1,1*%
%TO.N,Net-(JP1-B)*%
X71350000Y-58000000D03*
X71833274Y-56833274D03*
X71833274Y-59166726D03*
X73000000Y-56350000D03*
D14*
X73000000Y-58000000D03*
D13*
X73000000Y-59650000D03*
X74166726Y-56833274D03*
X74166726Y-59166726D03*
X74650000Y-58000000D03*
%TD*%
D21*
%TO.P,C19,1*%
%TO.N,+5V*%
X117135242Y-86000000D03*
D22*
%TO.P,C19,2*%
%TO.N,GNDREF*%
X119635242Y-86000000D03*
%TD*%
D23*
%TO.P,C3,1*%
%TO.N,Net-(C3-Pad1)*%
X73000000Y-114000000D03*
%TO.P,C3,2*%
%TO.N,/LINE_IN*%
X95500000Y-114000000D03*
%TD*%
D24*
%TO.P,U1,1,Signal*%
%TO.N,/JACK_IN*%
X116750000Y-150250000D03*
X116750000Y-133750000D03*
%TO.P,U1,2,GND*%
%TO.N,GNDREF*%
X129250000Y-150250000D03*
X129250000Y-133750000D03*
%TD*%
D23*
%TO.P,C14,1*%
%TO.N,/DSP_OUT*%
X73000000Y-126000000D03*
%TO.P,C14,2*%
%TO.N,Net-(U5B--)*%
X95500000Y-126000000D03*
%TD*%
%TO.P,C2,1*%
%TO.N,GNDREF*%
X137000000Y-118000000D03*
%TO.P,C2,2*%
%TO.N,Net-(C2-Pad2)*%
X114500000Y-118000000D03*
%TD*%
D24*
%TO.P,U8,1,Signal*%
%TO.N,/JACK_OUT*%
X93250000Y-133750000D03*
X93250000Y-150250000D03*
%TO.P,U8,2,GND*%
%TO.N,GNDREF*%
X80750000Y-133750000D03*
X80750000Y-150250000D03*
%TD*%
D25*
%TO.P,J1,S1,SHIELD*%
%TO.N,GNDREF*%
X138180000Y-72680000D03*
D26*
X134000000Y-72680000D03*
D25*
X138180000Y-81320000D03*
D26*
X134000000Y-81320000D03*
%TD*%
D17*
%TO.P,C1,1*%
%TO.N,/DSP_IN*%
X114255000Y-128000000D03*
%TO.P,C1,2*%
%TO.N,Net-(U5A-+)*%
X121755000Y-128000000D03*
%TD*%
D21*
%TO.P,C18,1*%
%TO.N,+5V*%
X117135242Y-93850000D03*
D22*
%TO.P,C18,2*%
%TO.N,GNDREF*%
X119635242Y-93850000D03*
%TD*%
D27*
%TO.P,J6,1*%
%TO.N,GNDREF*%
X115042500Y-67000000D03*
D28*
%TO.P,J6,2*%
%TO.N,+9V*%
X115042500Y-61000000D03*
D29*
%TO.P,J6,3*%
%TO.N,unconnected-(J6-Pad3)*%
X119742500Y-64000000D03*
%TD*%
D30*
%TO.N,GNDREF*%
X138891665Y-144925000D03*
X138891665Y-140925000D03*
X138891665Y-136925000D03*
X138891665Y-132925000D03*
X138891665Y-128925000D03*
X138891665Y-124925000D03*
X138891665Y-120925000D03*
X138891665Y-116925000D03*
X138891665Y-112925000D03*
X138891665Y-108925000D03*
X138891665Y-100925000D03*
X138891665Y-96925000D03*
X138891665Y-92925000D03*
X138891665Y-76925000D03*
X134891665Y-148925000D03*
X134891665Y-144925000D03*
X134891665Y-140925000D03*
X134891665Y-136925000D03*
X134891665Y-132925000D03*
X134891665Y-128925000D03*
X134891665Y-124925000D03*
X134891665Y-120925000D03*
X134891665Y-116925000D03*
X134891665Y-112925000D03*
X134891665Y-108925000D03*
X134891665Y-100925000D03*
X134891665Y-96925000D03*
X134891665Y-84925000D03*
X130891665Y-152925000D03*
X130891665Y-144925000D03*
X130891665Y-140925000D03*
X130891665Y-136925000D03*
X130891665Y-128925000D03*
X130891665Y-124925000D03*
X130891665Y-120925000D03*
X130891665Y-116925000D03*
X130891665Y-112925000D03*
X130891665Y-108925000D03*
X130891665Y-96925000D03*
X130891665Y-72925000D03*
X130891665Y-56925000D03*
X126891665Y-152925000D03*
X126891665Y-144925000D03*
X126891665Y-140925000D03*
X126891665Y-136925000D03*
X126891665Y-128925000D03*
X126891665Y-124925000D03*
X126891665Y-120925000D03*
X126891665Y-116925000D03*
X126891665Y-112925000D03*
X126891665Y-108925000D03*
X126891665Y-92925000D03*
X126891665Y-64925000D03*
X126891665Y-56925000D03*
X122891665Y-152925000D03*
X122891665Y-148925000D03*
X122891665Y-144925000D03*
X122891665Y-140925000D03*
X122891665Y-136925000D03*
X122891665Y-132925000D03*
X122891665Y-124925000D03*
X122891665Y-120925000D03*
X122891665Y-116925000D03*
X122891665Y-112925000D03*
X122891665Y-108925000D03*
X122891665Y-100925000D03*
X122891665Y-96925000D03*
X122891665Y-68925000D03*
X122891665Y-56925000D03*
X118891665Y-152925000D03*
X118891665Y-120925000D03*
X118891665Y-116925000D03*
X118891665Y-112925000D03*
X118891665Y-108925000D03*
X118891665Y-60925000D03*
X118891665Y-56925000D03*
X114891665Y-152925000D03*
X114891665Y-120925000D03*
X114891665Y-112925000D03*
X114891665Y-56925000D03*
X110891665Y-152925000D03*
X110891665Y-148925000D03*
X110891665Y-120925000D03*
X110891665Y-100925000D03*
X110891665Y-92925000D03*
X110891665Y-88925000D03*
X110891665Y-84925000D03*
X110891665Y-56925000D03*
X106891665Y-152925000D03*
X106891665Y-148925000D03*
X106891665Y-108925000D03*
X106891665Y-100925000D03*
X106891665Y-64925000D03*
X106891665Y-60925000D03*
X106891665Y-56925000D03*
X102891665Y-152925000D03*
X102891665Y-148925000D03*
X102891665Y-136925000D03*
X102891665Y-108925000D03*
X102891665Y-100925000D03*
X102891665Y-64925000D03*
X102891665Y-60925000D03*
X102891665Y-56925000D03*
X98891665Y-152925000D03*
X98891665Y-144925000D03*
X98891665Y-140925000D03*
X98891665Y-136925000D03*
X98891665Y-132925000D03*
X98891665Y-128925000D03*
X98891665Y-124925000D03*
X98891665Y-108925000D03*
X98891665Y-92925000D03*
X98891665Y-56925000D03*
X94891665Y-152925000D03*
X94891665Y-144925000D03*
X94891665Y-140925000D03*
X94891665Y-136925000D03*
X94891665Y-128925000D03*
X94891665Y-120925000D03*
X94891665Y-56925000D03*
X90891665Y-152925000D03*
X90891665Y-144925000D03*
X90891665Y-140925000D03*
X90891665Y-136925000D03*
X90891665Y-128925000D03*
X90891665Y-124925000D03*
X90891665Y-120925000D03*
X90891665Y-88925000D03*
X90891665Y-84925000D03*
X90891665Y-64925000D03*
X90891665Y-60925000D03*
X90891665Y-56925000D03*
X86891665Y-152925000D03*
X86891665Y-148925000D03*
X86891665Y-144925000D03*
X86891665Y-140925000D03*
X86891665Y-136925000D03*
X86891665Y-132925000D03*
X86891665Y-128925000D03*
X86891665Y-124925000D03*
X86891665Y-120925000D03*
X86891665Y-116925000D03*
X86891665Y-112925000D03*
X86891665Y-108925000D03*
X86891665Y-92925000D03*
X86891665Y-88925000D03*
X86891665Y-68925000D03*
X86891665Y-56925000D03*
X82891665Y-152925000D03*
X82891665Y-144925000D03*
X82891665Y-140925000D03*
X82891665Y-136925000D03*
X82891665Y-128925000D03*
X82891665Y-124925000D03*
X82891665Y-120925000D03*
X82891665Y-116925000D03*
X82891665Y-112925000D03*
X82891665Y-108925000D03*
X82891665Y-100925000D03*
X82891665Y-92925000D03*
X82891665Y-88925000D03*
X82891665Y-84925000D03*
X82891665Y-64925000D03*
X82891665Y-56925000D03*
X78891665Y-152925000D03*
X78891665Y-144925000D03*
X78891665Y-140925000D03*
X78891665Y-136925000D03*
X78891665Y-128925000D03*
X78891665Y-124925000D03*
X78891665Y-120925000D03*
X78891665Y-116925000D03*
X78891665Y-112925000D03*
X78891665Y-108925000D03*
X78891665Y-88925000D03*
X78891665Y-84925000D03*
X78891665Y-80925000D03*
X78891665Y-56925000D03*
X74891665Y-148925000D03*
X74891665Y-144925000D03*
X74891665Y-140925000D03*
X74891665Y-136925000D03*
X74891665Y-132925000D03*
X74891665Y-120925000D03*
X74891665Y-108925000D03*
X74891665Y-100925000D03*
X74891665Y-72925000D03*
X74891665Y-68925000D03*
X102250000Y-73500000D03*
X117250000Y-70500000D03*
X117250000Y-71500000D03*
X116000000Y-73500000D03*
X116000000Y-74500000D03*
X113500000Y-74250000D03*
X108000000Y-130000000D03*
X90500000Y-108250000D03*
X96500000Y-107000000D03*
X111250000Y-110000000D03*
X96250000Y-64000000D03*
X73000000Y-67000000D03*
X99000000Y-89000000D03*
X103500000Y-85500000D03*
X93000000Y-103000000D03*
X71000000Y-61000000D03*
X112000000Y-128000000D03*
X87000000Y-75500000D03*
X121250000Y-125750000D03*
X106000000Y-123250000D03*
X89250000Y-97250000D03*
X120500000Y-105000000D03*
X99250000Y-105000000D03*
X96750000Y-112250000D03*
X102500000Y-93000000D03*
X95750000Y-74750000D03*
X77750000Y-79000000D03*
X121750000Y-83500000D03*
X93250000Y-131250000D03*
X119500000Y-98750000D03*
X115000000Y-81500000D03*
X92250000Y-96750000D03*
X91750000Y-68250000D03*
X108500000Y-146500000D03*
X130000000Y-92500000D03*
X113000000Y-138500000D03*
X93250000Y-152750000D03*
X77750000Y-93000000D03*
X110250000Y-141000000D03*
X115500000Y-144000000D03*
X92000000Y-102000000D03*
X108750000Y-95250000D03*
X94250000Y-117500000D03*
X118500000Y-126250000D03*
X100500000Y-82750000D03*
X133500000Y-69000000D03*
X100500000Y-114250000D03*
X105000000Y-137750000D03*
X82500000Y-105000000D03*
X106000000Y-145750000D03*
X71500000Y-148500000D03*
X85000000Y-105000000D03*
X80250000Y-75500000D03*
X104750000Y-105000000D03*
X106250000Y-135750000D03*
X107500000Y-96500000D03*
X105000000Y-68250000D03*
X97250000Y-90750000D03*
X88500000Y-71250000D03*
X102250000Y-74500000D03*
X97500000Y-98750000D03*
X96500000Y-105000000D03*
X129000000Y-77250000D03*
X84500000Y-80750000D03*
X92250000Y-115500000D03*
X98750000Y-98750000D03*
X111000000Y-96750000D03*
X76500000Y-56000000D03*
X88000000Y-80250000D03*
X114250000Y-126000000D03*
X108750000Y-90000000D03*
X89750000Y-105000000D03*
X120500000Y-133750000D03*
X81000000Y-81000000D03*
X116250000Y-128000000D03*
X116750000Y-131250000D03*
X102250000Y-124250000D03*
X118000000Y-136250000D03*
X139000000Y-61000000D03*
X132500000Y-105000000D03*
X79500000Y-79000000D03*
X115250000Y-105000000D03*
X105000000Y-140250000D03*
X93250000Y-126000000D03*
X113000000Y-150250000D03*
X106500000Y-92000000D03*
X90750000Y-97000000D03*
X93000000Y-81000000D03*
X94000000Y-96250000D03*
X113500000Y-132250000D03*
X77750000Y-75500000D03*
X82750000Y-71500000D03*
X93000000Y-79500000D03*
X123250000Y-77250000D03*
X72500000Y-105000000D03*
X95750000Y-94500000D03*
X111750000Y-130250000D03*
X112500000Y-74250000D03*
X130000000Y-105000000D03*
X102250000Y-119250000D03*
X94250000Y-108500000D03*
X75000000Y-105000000D03*
X77500000Y-105000000D03*
X102000000Y-105000000D03*
X90750000Y-83000000D03*
X96500000Y-103250000D03*
X118000000Y-141000000D03*
X87750000Y-97500000D03*
X110250000Y-144250000D03*
X118000000Y-147500000D03*
X109750000Y-132250000D03*
X94250000Y-111750000D03*
X112750000Y-105000000D03*
X92000000Y-104000000D03*
X84500000Y-75500000D03*
X115500000Y-147500000D03*
X133750000Y-56000000D03*
X111250000Y-81500000D03*
X110000000Y-138250000D03*
X111000000Y-124000000D03*
X97250000Y-77750000D03*
X75250000Y-126000000D03*
X92250000Y-108750000D03*
X123250000Y-79000000D03*
X118000000Y-138250000D03*
X112000000Y-134000000D03*
X88250000Y-81750000D03*
X121750000Y-88500000D03*
X110250000Y-105000000D03*
X135000000Y-105000000D03*
X71500000Y-97500000D03*
X116000000Y-124250000D03*
X110000000Y-135750000D03*
X107500000Y-125750000D03*
X115500000Y-141000000D03*
X94000000Y-102000000D03*
X116750000Y-152750000D03*
X88250000Y-102000000D03*
X91750000Y-92750000D03*
X115500000Y-138250000D03*
X116750000Y-118000000D03*
X119750000Y-128000000D03*
X122750000Y-105000000D03*
X102250000Y-89500000D03*
X108000000Y-134250000D03*
X75250000Y-114000000D03*
X120500000Y-150250000D03*
X109000000Y-123500000D03*
X113000000Y-141000000D03*
X107000000Y-77250000D03*
X107000000Y-115750000D03*
X107500000Y-105000000D03*
X87500000Y-105000000D03*
X113500000Y-124250000D03*
X119250000Y-124250000D03*
X125000000Y-105000000D03*
X105000000Y-77250000D03*
X105250000Y-143250000D03*
X123000000Y-81250000D03*
X134000000Y-153750000D03*
X94000000Y-104000000D03*
X71500000Y-74500000D03*
X139000000Y-149000000D03*
X118000000Y-105000000D03*
X118000000Y-144000000D03*
X115500000Y-136250000D03*
X76500000Y-153500000D03*
X80000000Y-105000000D03*
X110750000Y-126000000D03*
X97000000Y-87000000D03*
X98750000Y-101000000D03*
X98250000Y-117250000D03*
X127500000Y-105000000D03*
X137500000Y-105000000D03*
%TO.N,/USB_D+*%
X130500000Y-77500000D03*
X95750000Y-77250000D03*
%TO.N,/USB_D-*%
X131250000Y-76500000D03*
X95750000Y-76000000D03*
%TO.N,/EN*%
X133250000Y-67750000D03*
X83000000Y-75500000D03*
%TO.N,+3V3*%
X94000000Y-97500000D03*
X88500000Y-103000000D03*
%TO.N,Net-(C3-Pad1)*%
X104750000Y-123250000D03*
%TO.N,+3.3VA*%
X106250000Y-125250000D03*
X107000000Y-117250000D03*
%TO.N,/IO0*%
X93000000Y-92750000D03*
X123000000Y-89000000D03*
%TO.N,/ENC_A*%
X128500000Y-92250000D03*
X89750000Y-81750000D03*
%TO.N,/ENC_B*%
X91000000Y-80000000D03*
X131500000Y-92250000D03*
%TO.N,/ENC_SW*%
X88000000Y-79000000D03*
%TO.N,/Pot1*%
X81000000Y-79500000D03*
%TO.N,/Pot3*%
X84250000Y-79250000D03*
%TO.N,/Pot2*%
X82750000Y-81000000D03*
%TO.N,/LCD_MOSI*%
X100000000Y-90000000D03*
X101250000Y-88750000D03*
%TD*%
D31*
%TO.N,/EN*%
X91500000Y-67000000D02*
X83000000Y-75500000D01*
X108000000Y-67000000D02*
X91500000Y-67000000D01*
X119245021Y-69750000D02*
X110750000Y-69750000D01*
X121245021Y-67750000D02*
X119245021Y-69750000D01*
X110750000Y-69750000D02*
X108000000Y-67000000D01*
X133250000Y-67750000D02*
X121245021Y-67750000D01*
%TO.N,/USB_D+*%
X96000000Y-77250000D02*
X96750000Y-76500000D01*
X129500000Y-76500000D02*
X130500000Y-77500000D01*
X95750000Y-77250000D02*
X96000000Y-77250000D01*
X96750000Y-76500000D02*
X129500000Y-76500000D01*
%TO.N,/USB_D-*%
X130750000Y-76000000D02*
X131250000Y-76500000D01*
X95750000Y-76000000D02*
X130750000Y-76000000D01*
D32*
%TO.N,+3V3*%
X94000000Y-97500000D02*
X88500000Y-103000000D01*
D31*
%TO.N,Net-(C3-Pad1)*%
X104750000Y-123250000D02*
X100250000Y-123250000D01*
X96750000Y-119750000D02*
X78750000Y-119750000D01*
X78750000Y-119750000D02*
X73000000Y-114000000D01*
X100250000Y-123250000D02*
X96750000Y-119750000D01*
D32*
%TO.N,+3.3VA*%
X107000000Y-124500000D02*
X106250000Y-125250000D01*
X107000000Y-117250000D02*
X107000000Y-124500000D01*
D31*
%TO.N,/IO0*%
X105500000Y-80250000D02*
X93000000Y-92750000D01*
X123000000Y-87750000D02*
X115500000Y-80250000D01*
X123000000Y-89000000D02*
X123000000Y-87750000D01*
X115500000Y-80250000D02*
X105500000Y-80250000D01*
%TO.N,/ENC_A*%
X116500000Y-79500000D02*
X104750000Y-79500000D01*
X102500000Y-81750000D02*
X89750000Y-81750000D01*
X128500000Y-92250000D02*
X128500000Y-91500000D01*
X128500000Y-91500000D02*
X116500000Y-79500000D01*
X104750000Y-79500000D02*
X102500000Y-81750000D01*
%TO.N,/ENC_B*%
X102000000Y-80250000D02*
X103500000Y-78750000D01*
X91000000Y-80000000D02*
X91250000Y-80250000D01*
X118000000Y-78750000D02*
X131500000Y-92250000D01*
X103500000Y-78750000D02*
X118000000Y-78750000D01*
X91250000Y-80250000D02*
X102000000Y-80250000D01*
%TO.N,/ENC_SW*%
X88000000Y-79000000D02*
X88250000Y-78750000D01*
X125000000Y-78000000D02*
X132500000Y-85500000D01*
X100750000Y-78750000D02*
X101500000Y-78000000D01*
X88250000Y-78750000D02*
X100750000Y-78750000D01*
X101500000Y-78000000D02*
X125000000Y-78000000D01*
%TO.N,/BYPASS*%
X102000000Y-142077500D02*
X108000000Y-142077500D01*
%TO.N,/Pot1*%
X81400000Y-79100000D02*
X81400000Y-70000000D01*
X81000000Y-79500000D02*
X81400000Y-79100000D01*
%TO.N,/Pot3*%
X84500000Y-79250000D02*
X91000000Y-72750000D01*
X91000000Y-72750000D02*
X125850000Y-72750000D01*
X84250000Y-79250000D02*
X84500000Y-79250000D01*
X125850000Y-72750000D02*
X128600000Y-70000000D01*
%TO.N,/Pot2*%
X103250000Y-68250000D02*
X105000000Y-70000000D01*
X82750000Y-81000000D02*
X82750000Y-78500000D01*
X93000000Y-68250000D02*
X103250000Y-68250000D01*
X82750000Y-78500000D02*
X93000000Y-68250000D01*
%TO.N,/LCD_MOSI*%
X100000000Y-90000000D02*
X101250000Y-88750000D01*
%TD*%
M02*
