%TF.GenerationSoftware,KiCad,Pcbnew,7.0.8*%
%TF.CreationDate,2023-12-03T14:11:45+01:00*%
%TF.ProjectId,Supersonic Quantumbox,53757065-7273-46f6-9e69-63205175616e,rev?*%
%TF.SameCoordinates,Original*%
%TF.FileFunction,Paste,Bot*%
%TF.FilePolarity,Positive*%
%FSLAX46Y46*%
G04 Gerber Fmt 4.6, Leading zero omitted, Abs format (unit mm)*
G04 Created by KiCad (PCBNEW 7.0.8) date 2023-12-03 14:11:45*
%MOMM*%
%LPD*%
G01*
G04 APERTURE LIST*
G04 Aperture macros list*
%AMRoundRect*
0 Rectangle with rounded corners*
0 $1 Rounding radius*
0 $2 $3 $4 $5 $6 $7 $8 $9 X,Y pos of 4 corners*
0 Add a 4 corners polygon primitive as box body*
4,1,4,$2,$3,$4,$5,$6,$7,$8,$9,$2,$3,0*
0 Add four circle primitives for the rounded corners*
1,1,$1+$1,$2,$3*
1,1,$1+$1,$4,$5*
1,1,$1+$1,$6,$7*
1,1,$1+$1,$8,$9*
0 Add four rect primitives between the rounded corners*
20,1,$1+$1,$2,$3,$4,$5,0*
20,1,$1+$1,$4,$5,$6,$7,0*
20,1,$1+$1,$6,$7,$8,$9,0*
20,1,$1+$1,$8,$9,$2,$3,0*%
G04 Aperture macros list end*
%ADD10R,0.900000X1.500000*%
%ADD11R,1.500000X0.900000*%
%ADD12R,0.900000X0.900000*%
%ADD13R,1.000000X0.250000*%
%ADD14R,0.250000X1.000000*%
%ADD15R,3.100000X3.100000*%
%ADD16RoundRect,0.225000X-0.225000X-0.250000X0.225000X-0.250000X0.225000X0.250000X-0.225000X0.250000X0*%
%ADD17RoundRect,0.200000X0.200000X0.275000X-0.200000X0.275000X-0.200000X-0.275000X0.200000X-0.275000X0*%
%ADD18R,1.500000X2.000000*%
%ADD19R,3.800000X2.000000*%
%ADD20RoundRect,0.250000X0.325000X0.650000X-0.325000X0.650000X-0.325000X-0.650000X0.325000X-0.650000X0*%
%ADD21RoundRect,0.250000X-0.275000X0.450000X-0.275000X-0.450000X0.275000X-0.450000X0.275000X0.450000X0*%
%ADD22R,1.100000X0.300000*%
%ADD23R,3.100000X2.300000*%
%ADD24RoundRect,0.200000X-0.275000X0.200000X-0.275000X-0.200000X0.275000X-0.200000X0.275000X0.200000X0*%
%ADD25RoundRect,0.200000X-0.200000X-0.275000X0.200000X-0.275000X0.200000X0.275000X-0.200000X0.275000X0*%
%ADD26RoundRect,0.250000X-0.650000X0.325000X-0.650000X-0.325000X0.650000X-0.325000X0.650000X0.325000X0*%
%ADD27RoundRect,0.225000X0.225000X0.250000X-0.225000X0.250000X-0.225000X-0.250000X0.225000X-0.250000X0*%
%ADD28RoundRect,0.250000X0.650000X-0.325000X0.650000X0.325000X-0.650000X0.325000X-0.650000X-0.325000X0*%
%ADD29RoundRect,0.225000X-0.250000X0.225000X-0.250000X-0.225000X0.250000X-0.225000X0.250000X0.225000X0*%
%ADD30R,1.450000X0.600000*%
%ADD31R,1.450000X0.300000*%
%ADD32RoundRect,0.200000X0.275000X-0.200000X0.275000X0.200000X-0.275000X0.200000X-0.275000X-0.200000X0*%
%ADD33RoundRect,0.250000X0.325000X0.450000X-0.325000X0.450000X-0.325000X-0.450000X0.325000X-0.450000X0*%
%ADD34RoundRect,0.250000X-0.325000X-0.650000X0.325000X-0.650000X0.325000X0.650000X-0.325000X0.650000X0*%
%ADD35RoundRect,0.150000X-0.150000X0.512500X-0.150000X-0.512500X0.150000X-0.512500X0.150000X0.512500X0*%
%ADD36RoundRect,0.150000X0.150000X-0.825000X0.150000X0.825000X-0.150000X0.825000X-0.150000X-0.825000X0*%
G04 APERTURE END LIST*
D10*
%TO.C,U9*%
X77740000Y-77250000D03*
X79010000Y-77250000D03*
X80280000Y-77250000D03*
X81550000Y-77250000D03*
X82820000Y-77250000D03*
X84090000Y-77250000D03*
X85360000Y-77250000D03*
X86630000Y-77250000D03*
X87900000Y-77250000D03*
X89170000Y-77250000D03*
X90440000Y-77250000D03*
X91710000Y-77250000D03*
X92980000Y-77250000D03*
X94250000Y-77250000D03*
D11*
X95500000Y-79015000D03*
X95500000Y-80285000D03*
X95500000Y-81555000D03*
X95500000Y-82825000D03*
X95500000Y-84095000D03*
X95500000Y-85365000D03*
X95500000Y-86635000D03*
X95500000Y-87905000D03*
X95500000Y-89175000D03*
X95500000Y-90445000D03*
X95500000Y-91715000D03*
X95500000Y-92985000D03*
D10*
X94250000Y-94750000D03*
X92980000Y-94750000D03*
X91710000Y-94750000D03*
X90440000Y-94750000D03*
X89170000Y-94750000D03*
X87900000Y-94750000D03*
X86630000Y-94750000D03*
X85360000Y-94750000D03*
X84090000Y-94750000D03*
X82820000Y-94750000D03*
X81550000Y-94750000D03*
X80280000Y-94750000D03*
X79010000Y-94750000D03*
X77740000Y-94750000D03*
D12*
X84060000Y-83100000D03*
X85460000Y-83100000D03*
X86860000Y-83100000D03*
X84060000Y-84500000D03*
X85460000Y-84500000D03*
X86860000Y-84500000D03*
X84060000Y-85900000D03*
X85460000Y-85900000D03*
X86860000Y-85900000D03*
%TD*%
D13*
%TO.C,IC1*%
X90650000Y-104500000D03*
X90650000Y-104000000D03*
X90650000Y-103500000D03*
X90650000Y-103000000D03*
X90650000Y-102500000D03*
X90650000Y-102000000D03*
X90650000Y-101500000D03*
D14*
X91500000Y-100650000D03*
X92000000Y-100650000D03*
X92500000Y-100650000D03*
X93000000Y-100650000D03*
X93500000Y-100650000D03*
X94000000Y-100650000D03*
X94500000Y-100650000D03*
D13*
X95350000Y-101500000D03*
X95350000Y-102000000D03*
X95350000Y-102500000D03*
X95350000Y-103000000D03*
X95350000Y-103500000D03*
X95350000Y-104000000D03*
X95350000Y-104500000D03*
D14*
X94500000Y-105350000D03*
X94000000Y-105350000D03*
X93500000Y-105350000D03*
X93000000Y-105350000D03*
X92500000Y-105350000D03*
X92000000Y-105350000D03*
X91500000Y-105350000D03*
D15*
X93000000Y-103000000D03*
%TD*%
D16*
%TO.C,C12*%
X80975000Y-74250000D03*
X82525000Y-74250000D03*
%TD*%
D17*
%TO.C,R13*%
X89575000Y-74250000D03*
X87925000Y-74250000D03*
%TD*%
D16*
%TO.C,C11*%
X77475000Y-74250000D03*
X79025000Y-74250000D03*
%TD*%
D17*
%TO.C,R11*%
X129825000Y-75250000D03*
X128175000Y-75250000D03*
%TD*%
D18*
%TO.C,U6*%
X103700000Y-73850000D03*
X106000000Y-73850000D03*
D19*
X106000000Y-80150000D03*
D18*
X108300000Y-73850000D03*
%TD*%
%TO.C,U2*%
X117700000Y-73850000D03*
X120000000Y-73850000D03*
D19*
X120000000Y-80150000D03*
D18*
X122300000Y-73850000D03*
%TD*%
D20*
%TO.C,C7*%
X106475000Y-130000000D03*
X103525000Y-130000000D03*
%TD*%
D21*
%TO.C,SW2*%
X137280000Y-84200000D03*
X137280000Y-87800000D03*
X138720000Y-84200000D03*
X138720000Y-87800000D03*
%TD*%
D22*
%TO.C,J2*%
X104650000Y-87250000D03*
X104650000Y-87750000D03*
X104650000Y-88250000D03*
X104650000Y-88750000D03*
X104650000Y-89250000D03*
X104650000Y-89750000D03*
X104650000Y-90250000D03*
X104650000Y-90750000D03*
X104650000Y-91250000D03*
X104650000Y-91750000D03*
X104650000Y-92250000D03*
X104650000Y-92750000D03*
D23*
X106350000Y-85580000D03*
X106350000Y-94420000D03*
%TD*%
D24*
%TO.C,R1*%
X105000000Y-125175000D03*
X105000000Y-126825000D03*
%TD*%
D25*
%TO.C,R14*%
X91350000Y-74250000D03*
X93000000Y-74250000D03*
%TD*%
D26*
%TO.C,C9*%
X113000000Y-75525000D03*
X113000000Y-78475000D03*
%TD*%
D27*
%TO.C,C17*%
X103775000Y-114000000D03*
X102225000Y-114000000D03*
%TD*%
D24*
%TO.C,R4*%
X109000000Y-120175000D03*
X109000000Y-121825000D03*
%TD*%
D17*
%TO.C,R6*%
X105825000Y-133000000D03*
X104175000Y-133000000D03*
%TD*%
D27*
%TO.C,C13*%
X95525000Y-107000000D03*
X93975000Y-107000000D03*
%TD*%
D25*
%TO.C,R7*%
X104425000Y-67000000D03*
X106075000Y-67000000D03*
%TD*%
D16*
%TO.C,C6*%
X90475000Y-107000000D03*
X92025000Y-107000000D03*
%TD*%
D28*
%TO.C,C10*%
X99150000Y-76475000D03*
X99150000Y-73525000D03*
%TD*%
D20*
%TO.C,C15*%
X119475000Y-101000000D03*
X116525000Y-101000000D03*
%TD*%
D29*
%TO.C,C4*%
X97500000Y-100225000D03*
X97500000Y-101775000D03*
%TD*%
D25*
%TO.C,R9*%
X80675000Y-67000000D03*
X82325000Y-67000000D03*
%TD*%
D30*
%TO.C,J1*%
X133085000Y-73750000D03*
X133085000Y-74550000D03*
D31*
X133085000Y-75750000D03*
X133085000Y-76750000D03*
X133085000Y-77250000D03*
X133085000Y-78250000D03*
D30*
X133085000Y-79450000D03*
X133085000Y-80250000D03*
X133085000Y-80250000D03*
X133085000Y-79450000D03*
D31*
X133085000Y-78750000D03*
X133085000Y-77750000D03*
X133085000Y-76250000D03*
X133085000Y-75250000D03*
D30*
X133085000Y-74550000D03*
X133085000Y-73750000D03*
%TD*%
D27*
%TO.C,C5*%
X95775000Y-99000000D03*
X94225000Y-99000000D03*
%TD*%
D32*
%TO.C,R16*%
X101000000Y-126825000D03*
X101000000Y-125175000D03*
%TD*%
D25*
%TO.C,R8*%
X84425000Y-74250000D03*
X86075000Y-74250000D03*
%TD*%
D33*
%TO.C,D5*%
X95025000Y-60750000D03*
X92975000Y-60750000D03*
%TD*%
D17*
%TO.C,R15*%
X94825000Y-64000000D03*
X93175000Y-64000000D03*
%TD*%
D34*
%TO.C,C8*%
X118525000Y-71000000D03*
X121475000Y-71000000D03*
%TD*%
D21*
%TO.C,SW1*%
X137280000Y-66200000D03*
X137280000Y-69800000D03*
X138720000Y-66200000D03*
X138720000Y-69800000D03*
%TD*%
D17*
%TO.C,R12*%
X129750000Y-78750000D03*
X128100000Y-78750000D03*
%TD*%
D25*
%TO.C,R5*%
X127925000Y-67000000D03*
X129575000Y-67000000D03*
%TD*%
D32*
%TO.C,R17*%
X109000000Y-126825000D03*
X109000000Y-125175000D03*
%TD*%
D34*
%TO.C,C16*%
X112525000Y-110000000D03*
X115475000Y-110000000D03*
%TD*%
D35*
%TO.C,U4*%
X117050000Y-103862500D03*
X118000000Y-103862500D03*
X118950000Y-103862500D03*
X118950000Y-106137500D03*
X117050000Y-106137500D03*
%TD*%
D24*
%TO.C,R10*%
X102000000Y-84175000D03*
X102000000Y-85825000D03*
%TD*%
D36*
%TO.C,U5*%
X104905000Y-121475000D03*
X103635000Y-121475000D03*
X102365000Y-121475000D03*
X101095000Y-121475000D03*
X101095000Y-116525000D03*
X102365000Y-116525000D03*
X103635000Y-116525000D03*
X104905000Y-116525000D03*
%TD*%
D24*
%TO.C,R3*%
X109000000Y-116175000D03*
X109000000Y-117825000D03*
%TD*%
M02*
