%TF.GenerationSoftware,KiCad,Pcbnew,(6.0.0)*%
%TF.CreationDate,2022-11-04T15:31:48+01:00*%
%TF.ProjectId,Supersonic Quantumbox,53757065-7273-46f6-9e69-63205175616e,rev?*%
%TF.SameCoordinates,Original*%
%TF.FileFunction,Legend,Bot*%
%TF.FilePolarity,Positive*%
%FSLAX46Y46*%
G04 Gerber Fmt 4.6, Leading zero omitted, Abs format (unit mm)*
G04 Created by KiCad (PCBNEW (6.0.0)) date 2022-11-04 15:31:48*
%MOMM*%
%LPD*%
G01*
G04 APERTURE LIST*
%ADD10C,0.450000*%
%ADD11C,0.150000*%
%ADD12C,0.100000*%
%ADD13C,0.120000*%
%ADD14C,0.127000*%
%ADD15C,0.200000*%
G04 APERTURE END LIST*
D10*
X142423428Y-119360000D02*
G75*
G03*
X142423428Y-119360000I-225000J0D01*
G01*
D11*
X93338428Y-162100000D02*
X93338428Y-163000000D01*
D10*
X160663428Y-162500000D02*
G75*
G03*
X160663428Y-162500000I-225000J0D01*
G01*
D11*
X93138428Y-163800000D02*
X93538428Y-163800000D01*
D10*
X107663428Y-161500000D02*
G75*
G03*
X107663428Y-161500000I-225000J0D01*
G01*
D11*
X92738428Y-163400000D02*
X93938428Y-163400000D01*
X92338428Y-163000000D02*
X94338428Y-163000000D01*
X93338428Y-163000000D02*
X92338428Y-163000000D01*
D12*
X144238428Y-119500000D02*
X142938428Y-119500000D01*
D11*
X133122136Y-50621299D02*
X133169755Y-50764156D01*
X133169755Y-51002251D01*
X133122136Y-51097489D01*
X133074517Y-51145108D01*
X132979279Y-51192727D01*
X132884041Y-51192727D01*
X132788803Y-51145108D01*
X132741184Y-51097489D01*
X132693565Y-51002251D01*
X132645946Y-50811775D01*
X132598327Y-50716537D01*
X132550708Y-50668918D01*
X132455470Y-50621299D01*
X132360232Y-50621299D01*
X132264994Y-50668918D01*
X132217375Y-50716537D01*
X132169755Y-50811775D01*
X132169755Y-51049870D01*
X132217375Y-51192727D01*
X133169755Y-51621299D02*
X132169755Y-51621299D01*
X132169755Y-51859394D01*
X132217375Y-52002251D01*
X132312613Y-52097489D01*
X132407851Y-52145108D01*
X132598327Y-52192727D01*
X132741184Y-52192727D01*
X132931660Y-52145108D01*
X133026898Y-52097489D01*
X133122136Y-52002251D01*
X133169755Y-51859394D01*
X133169755Y-51621299D01*
X132884041Y-52573680D02*
X132884041Y-53049870D01*
X133169755Y-52478442D02*
X132169755Y-52811775D01*
X133169755Y-53145108D01*
X134914618Y-136452380D02*
X134914618Y-135452380D01*
X134247951Y-135452380D02*
X134057475Y-135452380D01*
X133962237Y-135500000D01*
X133866999Y-135595238D01*
X133819380Y-135785714D01*
X133819380Y-136119047D01*
X133866999Y-136309523D01*
X133962237Y-136404761D01*
X134057475Y-136452380D01*
X134247951Y-136452380D01*
X134343189Y-136404761D01*
X134438428Y-136309523D01*
X134486047Y-136119047D01*
X134486047Y-135785714D01*
X134438428Y-135595238D01*
X134343189Y-135500000D01*
X134247951Y-135452380D01*
X133486047Y-135452380D02*
X132866999Y-135452380D01*
X133200332Y-135833333D01*
X133057475Y-135833333D01*
X132962237Y-135880952D01*
X132914618Y-135928571D01*
X132866999Y-136023809D01*
X132866999Y-136261904D01*
X132914618Y-136357142D01*
X132962237Y-136404761D01*
X133057475Y-136452380D01*
X133343189Y-136452380D01*
X133438428Y-136404761D01*
X133486047Y-136357142D01*
X132533666Y-135452380D02*
X131914618Y-135452380D01*
X132247951Y-135833333D01*
X132105094Y-135833333D01*
X132009856Y-135880952D01*
X131962237Y-135928571D01*
X131914618Y-136023809D01*
X131914618Y-136261904D01*
X131962237Y-136357142D01*
X132009856Y-136404761D01*
X132105094Y-136452380D01*
X132390808Y-136452380D01*
X132486047Y-136404761D01*
X132533666Y-136357142D01*
X124105094Y-141452380D02*
X124438428Y-140976190D01*
X124676523Y-141452380D02*
X124676523Y-140452380D01*
X124295570Y-140452380D01*
X124200332Y-140500000D01*
X124152713Y-140547619D01*
X124105094Y-140642857D01*
X124105094Y-140785714D01*
X124152713Y-140880952D01*
X124200332Y-140928571D01*
X124295570Y-140976190D01*
X124676523Y-140976190D01*
X123771761Y-140452380D02*
X123105094Y-141452380D01*
X123105094Y-140452380D02*
X123771761Y-141452380D01*
X134914618Y-133952380D02*
X134914618Y-132952380D01*
X134247951Y-132952380D02*
X134057475Y-132952380D01*
X133962237Y-133000000D01*
X133866999Y-133095238D01*
X133819380Y-133285714D01*
X133819380Y-133619047D01*
X133866999Y-133809523D01*
X133962237Y-133904761D01*
X134057475Y-133952380D01*
X134247951Y-133952380D01*
X134343189Y-133904761D01*
X134438428Y-133809523D01*
X134486047Y-133619047D01*
X134486047Y-133285714D01*
X134438428Y-133095238D01*
X134343189Y-133000000D01*
X134247951Y-132952380D01*
X133486047Y-132952380D02*
X132866999Y-132952380D01*
X133200332Y-133333333D01*
X133057475Y-133333333D01*
X132962237Y-133380952D01*
X132914618Y-133428571D01*
X132866999Y-133523809D01*
X132866999Y-133761904D01*
X132914618Y-133857142D01*
X132962237Y-133904761D01*
X133057475Y-133952380D01*
X133343189Y-133952380D01*
X133438428Y-133904761D01*
X133486047Y-133857142D01*
X132009856Y-133285714D02*
X132009856Y-133952380D01*
X132247951Y-132904761D02*
X132486047Y-133619047D01*
X131866999Y-133619047D01*
X127166849Y-50679696D02*
X127166849Y-51298744D01*
X127547802Y-50965411D01*
X127547802Y-51108268D01*
X127595421Y-51203506D01*
X127643040Y-51251125D01*
X127738278Y-51298744D01*
X127976373Y-51298744D01*
X128071611Y-51251125D01*
X128119230Y-51203506D01*
X128166849Y-51108268D01*
X128166849Y-50822553D01*
X128119230Y-50727315D01*
X128071611Y-50679696D01*
X127166849Y-51584458D02*
X128166849Y-51917792D01*
X127166849Y-52251125D01*
X127166849Y-52489220D02*
X127166849Y-53108268D01*
X127547802Y-52774934D01*
X127547802Y-52917792D01*
X127595421Y-53013030D01*
X127643040Y-53060649D01*
X127738278Y-53108268D01*
X127976373Y-53108268D01*
X128071611Y-53060649D01*
X128119230Y-53013030D01*
X128166849Y-52917792D01*
X128166849Y-52632077D01*
X128119230Y-52536839D01*
X128071611Y-52489220D01*
X125414618Y-128952380D02*
X125414618Y-127952380D01*
X124747951Y-127952380D02*
X124557475Y-127952380D01*
X124462237Y-128000000D01*
X124366999Y-128095238D01*
X124319380Y-128285714D01*
X124319380Y-128619047D01*
X124366999Y-128809523D01*
X124462237Y-128904761D01*
X124557475Y-128952380D01*
X124747951Y-128952380D01*
X124843189Y-128904761D01*
X124938428Y-128809523D01*
X124986047Y-128619047D01*
X124986047Y-128285714D01*
X124938428Y-128095238D01*
X124843189Y-128000000D01*
X124747951Y-127952380D01*
X123986047Y-127952380D02*
X123366999Y-127952380D01*
X123700332Y-128333333D01*
X123557475Y-128333333D01*
X123462237Y-128380952D01*
X123414618Y-128428571D01*
X123366999Y-128523809D01*
X123366999Y-128761904D01*
X123414618Y-128857142D01*
X123462237Y-128904761D01*
X123557475Y-128952380D01*
X123843189Y-128952380D01*
X123938428Y-128904761D01*
X123986047Y-128857142D01*
X123033666Y-127952380D02*
X122366999Y-127952380D01*
X122795570Y-128952380D01*
X125414618Y-137952380D02*
X124795570Y-137952380D01*
X125128904Y-138333333D01*
X124986047Y-138333333D01*
X124890808Y-138380952D01*
X124843189Y-138428571D01*
X124795570Y-138523809D01*
X124795570Y-138761904D01*
X124843189Y-138857142D01*
X124890808Y-138904761D01*
X124986047Y-138952380D01*
X125271761Y-138952380D01*
X125366999Y-138904761D01*
X125414618Y-138857142D01*
X124366999Y-138857142D02*
X124319380Y-138904761D01*
X124366999Y-138952380D01*
X124414618Y-138904761D01*
X124366999Y-138857142D01*
X124366999Y-138952380D01*
X123986047Y-137952380D02*
X123366999Y-137952380D01*
X123700332Y-138333333D01*
X123557475Y-138333333D01*
X123462237Y-138380952D01*
X123414618Y-138428571D01*
X123366999Y-138523809D01*
X123366999Y-138761904D01*
X123414618Y-138857142D01*
X123462237Y-138904761D01*
X123557475Y-138952380D01*
X123843189Y-138952380D01*
X123938428Y-138904761D01*
X123986047Y-138857142D01*
X123081285Y-137952380D02*
X122747951Y-138952380D01*
X122414618Y-137952380D01*
X125414618Y-136452380D02*
X125414618Y-135452380D01*
X124747951Y-135452380D02*
X124557475Y-135452380D01*
X124462237Y-135500000D01*
X124366999Y-135595238D01*
X124319380Y-135785714D01*
X124319380Y-136119047D01*
X124366999Y-136309523D01*
X124462237Y-136404761D01*
X124557475Y-136452380D01*
X124747951Y-136452380D01*
X124843189Y-136404761D01*
X124938428Y-136309523D01*
X124986047Y-136119047D01*
X124986047Y-135785714D01*
X124938428Y-135595238D01*
X124843189Y-135500000D01*
X124747951Y-135452380D01*
X123462237Y-135785714D02*
X123462237Y-136452380D01*
X123700332Y-135404761D02*
X123938428Y-136119047D01*
X123319380Y-136119047D01*
X122747951Y-135452380D02*
X122652713Y-135452380D01*
X122557475Y-135500000D01*
X122509856Y-135547619D01*
X122462237Y-135642857D01*
X122414618Y-135833333D01*
X122414618Y-136071428D01*
X122462237Y-136261904D01*
X122509856Y-136357142D01*
X122557475Y-136404761D01*
X122652713Y-136452380D01*
X122747951Y-136452380D01*
X122843189Y-136404761D01*
X122890808Y-136357142D01*
X122938428Y-136261904D01*
X122986047Y-136071428D01*
X122986047Y-135833333D01*
X122938428Y-135642857D01*
X122890808Y-135547619D01*
X122843189Y-135500000D01*
X122747951Y-135452380D01*
X134390808Y-138428571D02*
X134247951Y-138476190D01*
X134200332Y-138523809D01*
X134152713Y-138619047D01*
X134152713Y-138761904D01*
X134200332Y-138857142D01*
X134247951Y-138904761D01*
X134343189Y-138952380D01*
X134724142Y-138952380D01*
X134724142Y-137952380D01*
X134390808Y-137952380D01*
X134295570Y-138000000D01*
X134247951Y-138047619D01*
X134200332Y-138142857D01*
X134200332Y-138238095D01*
X134247951Y-138333333D01*
X134295570Y-138380952D01*
X134390808Y-138428571D01*
X134724142Y-138428571D01*
X133724142Y-138952380D02*
X133724142Y-137952380D01*
X133152713Y-138952380D01*
X133152713Y-137952380D01*
X132676523Y-138952380D02*
X132676523Y-137952380D01*
X132438428Y-137952380D01*
X132295570Y-138000000D01*
X132200332Y-138095238D01*
X132152713Y-138190476D01*
X132105094Y-138380952D01*
X132105094Y-138523809D01*
X132152713Y-138714285D01*
X132200332Y-138809523D01*
X132295570Y-138904761D01*
X132438428Y-138952380D01*
X132676523Y-138952380D01*
X134200332Y-140952380D02*
X133628904Y-140952380D01*
X133914618Y-141952380D02*
X133914618Y-140952380D01*
X133390808Y-140952380D02*
X132724142Y-141952380D01*
X132724142Y-140952380D02*
X133390808Y-141952380D01*
X124642552Y-51061936D02*
X124594932Y-50966698D01*
X124594932Y-50823841D01*
X124642552Y-50680983D01*
X124737790Y-50585745D01*
X124833028Y-50538126D01*
X125023504Y-50490507D01*
X125166361Y-50490507D01*
X125356837Y-50538126D01*
X125452075Y-50585745D01*
X125547313Y-50680983D01*
X125594932Y-50823841D01*
X125594932Y-50919079D01*
X125547313Y-51061936D01*
X125499694Y-51109555D01*
X125166361Y-51109555D01*
X125166361Y-50919079D01*
X125594932Y-51538126D02*
X124594932Y-51538126D01*
X125594932Y-52109555D01*
X124594932Y-52109555D01*
X125594932Y-52585745D02*
X124594932Y-52585745D01*
X124594932Y-52823841D01*
X124642552Y-52966698D01*
X124737790Y-53061936D01*
X124833028Y-53109555D01*
X125023504Y-53157174D01*
X125166361Y-53157174D01*
X125356837Y-53109555D01*
X125452075Y-53061936D01*
X125547313Y-52966698D01*
X125594932Y-52823841D01*
X125594932Y-52585745D01*
X134914618Y-128952380D02*
X134914618Y-127952380D01*
X134247951Y-127952380D02*
X134057475Y-127952380D01*
X133962237Y-128000000D01*
X133866999Y-128095238D01*
X133819380Y-128285714D01*
X133819380Y-128619047D01*
X133866999Y-128809523D01*
X133962237Y-128904761D01*
X134057475Y-128952380D01*
X134247951Y-128952380D01*
X134343189Y-128904761D01*
X134438428Y-128809523D01*
X134486047Y-128619047D01*
X134486047Y-128285714D01*
X134438428Y-128095238D01*
X134343189Y-128000000D01*
X134247951Y-127952380D01*
X133486047Y-127952380D02*
X132866999Y-127952380D01*
X133200332Y-128333333D01*
X133057475Y-128333333D01*
X132962237Y-128380952D01*
X132914618Y-128428571D01*
X132866999Y-128523809D01*
X132866999Y-128761904D01*
X132914618Y-128857142D01*
X132962237Y-128904761D01*
X133057475Y-128952380D01*
X133343189Y-128952380D01*
X133438428Y-128904761D01*
X133486047Y-128857142D01*
X132009856Y-127952380D02*
X132200332Y-127952380D01*
X132295570Y-128000000D01*
X132343189Y-128047619D01*
X132438428Y-128190476D01*
X132486047Y-128380952D01*
X132486047Y-128761904D01*
X132438428Y-128857142D01*
X132390808Y-128904761D01*
X132295570Y-128952380D01*
X132105094Y-128952380D01*
X132009856Y-128904761D01*
X131962237Y-128857142D01*
X131914618Y-128761904D01*
X131914618Y-128523809D01*
X131962237Y-128428571D01*
X132009856Y-128380952D01*
X132105094Y-128333333D01*
X132295570Y-128333333D01*
X132390808Y-128380952D01*
X132438428Y-128428571D01*
X132486047Y-128523809D01*
X125414618Y-131452380D02*
X125414618Y-130452380D01*
X124747951Y-130452380D02*
X124557475Y-130452380D01*
X124462237Y-130500000D01*
X124366999Y-130595238D01*
X124319380Y-130785714D01*
X124319380Y-131119047D01*
X124366999Y-131309523D01*
X124462237Y-131404761D01*
X124557475Y-131452380D01*
X124747951Y-131452380D01*
X124843189Y-131404761D01*
X124938428Y-131309523D01*
X124986047Y-131119047D01*
X124986047Y-130785714D01*
X124938428Y-130595238D01*
X124843189Y-130500000D01*
X124747951Y-130452380D01*
X123986047Y-130452380D02*
X123366999Y-130452380D01*
X123700332Y-130833333D01*
X123557475Y-130833333D01*
X123462237Y-130880952D01*
X123414618Y-130928571D01*
X123366999Y-131023809D01*
X123366999Y-131261904D01*
X123414618Y-131357142D01*
X123462237Y-131404761D01*
X123557475Y-131452380D01*
X123843189Y-131452380D01*
X123938428Y-131404761D01*
X123986047Y-131357142D01*
X122795570Y-130880952D02*
X122890808Y-130833333D01*
X122938428Y-130785714D01*
X122986047Y-130690476D01*
X122986047Y-130642857D01*
X122938428Y-130547619D01*
X122890808Y-130500000D01*
X122795570Y-130452380D01*
X122605094Y-130452380D01*
X122509856Y-130500000D01*
X122462237Y-130547619D01*
X122414618Y-130642857D01*
X122414618Y-130690476D01*
X122462237Y-130785714D01*
X122509856Y-130833333D01*
X122605094Y-130880952D01*
X122795570Y-130880952D01*
X122890808Y-130928571D01*
X122938428Y-130976190D01*
X122986047Y-131071428D01*
X122986047Y-131261904D01*
X122938428Y-131357142D01*
X122890808Y-131404761D01*
X122795570Y-131452380D01*
X122605094Y-131452380D01*
X122509856Y-131404761D01*
X122462237Y-131357142D01*
X122414618Y-131261904D01*
X122414618Y-131071428D01*
X122462237Y-130976190D01*
X122509856Y-130928571D01*
X122605094Y-130880952D01*
X125414618Y-133952380D02*
X125414618Y-132952380D01*
X124747951Y-132952380D02*
X124557475Y-132952380D01*
X124462237Y-133000000D01*
X124366999Y-133095238D01*
X124319380Y-133285714D01*
X124319380Y-133619047D01*
X124366999Y-133809523D01*
X124462237Y-133904761D01*
X124557475Y-133952380D01*
X124747951Y-133952380D01*
X124843189Y-133904761D01*
X124938428Y-133809523D01*
X124986047Y-133619047D01*
X124986047Y-133285714D01*
X124938428Y-133095238D01*
X124843189Y-133000000D01*
X124747951Y-132952380D01*
X123986047Y-132952380D02*
X123366999Y-132952380D01*
X123700332Y-133333333D01*
X123557475Y-133333333D01*
X123462237Y-133380952D01*
X123414618Y-133428571D01*
X123366999Y-133523809D01*
X123366999Y-133761904D01*
X123414618Y-133857142D01*
X123462237Y-133904761D01*
X123557475Y-133952380D01*
X123843189Y-133952380D01*
X123938428Y-133904761D01*
X123986047Y-133857142D01*
X122890808Y-133952380D02*
X122700332Y-133952380D01*
X122605094Y-133904761D01*
X122557475Y-133857142D01*
X122462237Y-133714285D01*
X122414618Y-133523809D01*
X122414618Y-133142857D01*
X122462237Y-133047619D01*
X122509856Y-133000000D01*
X122605094Y-132952380D01*
X122795570Y-132952380D01*
X122890808Y-133000000D01*
X122938428Y-133047619D01*
X122986047Y-133142857D01*
X122986047Y-133380952D01*
X122938428Y-133476190D01*
X122890808Y-133523809D01*
X122795570Y-133571428D01*
X122605094Y-133571428D01*
X122509856Y-133523809D01*
X122462237Y-133476190D01*
X122414618Y-133380952D01*
X134914618Y-131452380D02*
X134914618Y-130452380D01*
X134247951Y-130452380D02*
X134057475Y-130452380D01*
X133962237Y-130500000D01*
X133866999Y-130595238D01*
X133819380Y-130785714D01*
X133819380Y-131119047D01*
X133866999Y-131309523D01*
X133962237Y-131404761D01*
X134057475Y-131452380D01*
X134247951Y-131452380D01*
X134343189Y-131404761D01*
X134438428Y-131309523D01*
X134486047Y-131119047D01*
X134486047Y-130785714D01*
X134438428Y-130595238D01*
X134343189Y-130500000D01*
X134247951Y-130452380D01*
X133486047Y-130452380D02*
X132866999Y-130452380D01*
X133200332Y-130833333D01*
X133057475Y-130833333D01*
X132962237Y-130880952D01*
X132914618Y-130928571D01*
X132866999Y-131023809D01*
X132866999Y-131261904D01*
X132914618Y-131357142D01*
X132962237Y-131404761D01*
X133057475Y-131452380D01*
X133343189Y-131452380D01*
X133438428Y-131404761D01*
X133486047Y-131357142D01*
X131962237Y-130452380D02*
X132438428Y-130452380D01*
X132486047Y-130928571D01*
X132438428Y-130880952D01*
X132343189Y-130833333D01*
X132105094Y-130833333D01*
X132009856Y-130880952D01*
X131962237Y-130928571D01*
X131914618Y-131023809D01*
X131914618Y-131261904D01*
X131962237Y-131357142D01*
X132009856Y-131404761D01*
X132105094Y-131452380D01*
X132343189Y-131452380D01*
X132438428Y-131404761D01*
X132486047Y-131357142D01*
X89890808Y-103380952D02*
X90605094Y-103380952D01*
X90747951Y-103333333D01*
X90843189Y-103238095D01*
X90890808Y-103095238D01*
X90890808Y-103000000D01*
X90890808Y-104333333D02*
X90890808Y-103857142D01*
X89890808Y-103857142D01*
X90795570Y-105238095D02*
X90843189Y-105190476D01*
X90890808Y-105047619D01*
X90890808Y-104952380D01*
X90843189Y-104809523D01*
X90747951Y-104714285D01*
X90652713Y-104666666D01*
X90462237Y-104619047D01*
X90319380Y-104619047D01*
X90128904Y-104666666D01*
X90033666Y-104714285D01*
X89938428Y-104809523D01*
X89890808Y-104952380D01*
X89890808Y-105047619D01*
X89938428Y-105190476D01*
X89986047Y-105238095D01*
X89890808Y-105952380D02*
X90605094Y-105952380D01*
X90747951Y-105904761D01*
X90843189Y-105809523D01*
X90890808Y-105666666D01*
X90890808Y-105571428D01*
X90890808Y-106904761D02*
X90890808Y-106428571D01*
X89890808Y-106428571D01*
X90795570Y-107809523D02*
X90843189Y-107761904D01*
X90890808Y-107619047D01*
X90890808Y-107523809D01*
X90843189Y-107380952D01*
X90747951Y-107285714D01*
X90652713Y-107238095D01*
X90462237Y-107190476D01*
X90319380Y-107190476D01*
X90128904Y-107238095D01*
X90033666Y-107285714D01*
X89938428Y-107380952D01*
X89890808Y-107523809D01*
X89890808Y-107619047D01*
X89938428Y-107761904D01*
X89986047Y-107809523D01*
X89890808Y-108523809D02*
X90605094Y-108523809D01*
X90747951Y-108476190D01*
X90843189Y-108380952D01*
X90890808Y-108238095D01*
X90890808Y-108142857D01*
X90890808Y-109476190D02*
X90890808Y-109000000D01*
X89890808Y-109000000D01*
X90795570Y-110380952D02*
X90843189Y-110333333D01*
X90890808Y-110190476D01*
X90890808Y-110095238D01*
X90843189Y-109952380D01*
X90747951Y-109857142D01*
X90652713Y-109809523D01*
X90462237Y-109761904D01*
X90319380Y-109761904D01*
X90128904Y-109809523D01*
X90033666Y-109857142D01*
X89938428Y-109952380D01*
X89890808Y-110095238D01*
X89890808Y-110190476D01*
X89938428Y-110333333D01*
X89986047Y-110380952D01*
X89890808Y-111095238D02*
X90605094Y-111095238D01*
X90747951Y-111047619D01*
X90843189Y-110952380D01*
X90890808Y-110809523D01*
X90890808Y-110714285D01*
X90890808Y-112047619D02*
X90890808Y-111571428D01*
X89890808Y-111571428D01*
X90795570Y-112952380D02*
X90843189Y-112904761D01*
X90890808Y-112761904D01*
X90890808Y-112666666D01*
X90843189Y-112523809D01*
X90747951Y-112428571D01*
X90652713Y-112380952D01*
X90462237Y-112333333D01*
X90319380Y-112333333D01*
X90128904Y-112380952D01*
X90033666Y-112428571D01*
X89938428Y-112523809D01*
X89890808Y-112666666D01*
X89890808Y-112761904D01*
X89938428Y-112904761D01*
X89986047Y-112952380D01*
X130632427Y-50645108D02*
X130680046Y-50787965D01*
X130680046Y-51026061D01*
X130632427Y-51121299D01*
X130584808Y-51168918D01*
X130489570Y-51216537D01*
X130394332Y-51216537D01*
X130299094Y-51168918D01*
X130251475Y-51121299D01*
X130203856Y-51026061D01*
X130156237Y-50835585D01*
X130108618Y-50740346D01*
X130060999Y-50692727D01*
X129965761Y-50645108D01*
X129870523Y-50645108D01*
X129775285Y-50692727D01*
X129727666Y-50740346D01*
X129680046Y-50835585D01*
X129680046Y-51073680D01*
X129727666Y-51216537D01*
X130584808Y-52216537D02*
X130632427Y-52168918D01*
X130680046Y-52026061D01*
X130680046Y-51930823D01*
X130632427Y-51787965D01*
X130537189Y-51692727D01*
X130441951Y-51645108D01*
X130251475Y-51597489D01*
X130108618Y-51597489D01*
X129918142Y-51645108D01*
X129822904Y-51692727D01*
X129727666Y-51787965D01*
X129680046Y-51930823D01*
X129680046Y-52026061D01*
X129727666Y-52168918D01*
X129775285Y-52216537D01*
X130680046Y-53121299D02*
X130680046Y-52645108D01*
X129680046Y-52645108D01*
%TO.C,R2*%
X161835948Y-160694549D02*
X161788329Y-160742168D01*
X161740709Y-160837406D01*
X161740709Y-161075502D01*
X161788329Y-161170740D01*
X161835948Y-161218359D01*
X161931186Y-161265978D01*
X162026424Y-161265978D01*
X162169281Y-161218359D01*
X162740709Y-160646930D01*
X162740709Y-161265978D01*
X162740709Y-161694549D02*
X161740709Y-161694549D01*
X162454995Y-162027883D01*
X161740709Y-162361216D01*
X162740709Y-162361216D01*
X161835948Y-162789787D02*
X161788329Y-162837406D01*
X161740709Y-162932644D01*
X161740709Y-163170740D01*
X161788329Y-163265978D01*
X161835948Y-163313597D01*
X161931186Y-163361216D01*
X162026424Y-163361216D01*
X162169281Y-163313597D01*
X162740709Y-162742168D01*
X162740709Y-163361216D01*
%TO.C,R4*%
X161836047Y-155261904D02*
X161788428Y-155309523D01*
X161740808Y-155404761D01*
X161740808Y-155642857D01*
X161788428Y-155738095D01*
X161836047Y-155785714D01*
X161931285Y-155833333D01*
X162026523Y-155833333D01*
X162169380Y-155785714D01*
X162740808Y-155214285D01*
X162740808Y-155833333D01*
X161836047Y-156214285D02*
X161788428Y-156261904D01*
X161740808Y-156357142D01*
X161740808Y-156595238D01*
X161788428Y-156690476D01*
X161836047Y-156738095D01*
X161931285Y-156785714D01*
X162026523Y-156785714D01*
X162169380Y-156738095D01*
X162740808Y-156166666D01*
X162740808Y-156785714D01*
X161740808Y-157404761D02*
X161740808Y-157500000D01*
X161788428Y-157595238D01*
X161836047Y-157642857D01*
X161931285Y-157690476D01*
X162121761Y-157738095D01*
X162359856Y-157738095D01*
X162550332Y-157690476D01*
X162645570Y-157642857D01*
X162693189Y-157595238D01*
X162740808Y-157500000D01*
X162740808Y-157404761D01*
X162693189Y-157309523D01*
X162645570Y-157261904D01*
X162550332Y-157214285D01*
X162359856Y-157166666D01*
X162121761Y-157166666D01*
X161931285Y-157214285D01*
X161836047Y-157261904D01*
X161788428Y-157309523D01*
X161740808Y-157404761D01*
X162740808Y-158166666D02*
X161740808Y-158166666D01*
X162740808Y-158738095D02*
X162169380Y-158309523D01*
X161740808Y-158738095D02*
X162312237Y-158166666D01*
%TO.C,R12*%
X155914618Y-109452380D02*
X156390808Y-109452380D01*
X156438428Y-109928571D01*
X156390808Y-109880952D01*
X156295570Y-109833333D01*
X156057475Y-109833333D01*
X155962237Y-109880952D01*
X155914618Y-109928571D01*
X155866999Y-110023809D01*
X155866999Y-110261904D01*
X155914618Y-110357142D01*
X155962237Y-110404761D01*
X156057475Y-110452380D01*
X156295570Y-110452380D01*
X156390808Y-110404761D01*
X156438428Y-110357142D01*
X155438428Y-110357142D02*
X155390808Y-110404761D01*
X155438428Y-110452380D01*
X155486047Y-110404761D01*
X155438428Y-110357142D01*
X155438428Y-110452380D01*
X154438428Y-110452380D02*
X155009856Y-110452380D01*
X154724142Y-110452380D02*
X154724142Y-109452380D01*
X154819380Y-109595238D01*
X154914618Y-109690476D01*
X155009856Y-109738095D01*
X154009856Y-110452380D02*
X154009856Y-109452380D01*
X153438428Y-110452380D02*
X153866999Y-109880952D01*
X153438428Y-109452380D02*
X154009856Y-110023809D01*
%TO.C,U7*%
X100690808Y-153761904D02*
X99690808Y-153761904D01*
X99690808Y-154142857D01*
X99738428Y-154238095D01*
X99786047Y-154285714D01*
X99881285Y-154333333D01*
X100024142Y-154333333D01*
X100119380Y-154285714D01*
X100166999Y-154238095D01*
X100214618Y-154142857D01*
X100214618Y-153761904D01*
X100595570Y-155333333D02*
X100643189Y-155285714D01*
X100690808Y-155142857D01*
X100690808Y-155047619D01*
X100643189Y-154904761D01*
X100547951Y-154809523D01*
X100452713Y-154761904D01*
X100262237Y-154714285D01*
X100119380Y-154714285D01*
X99928904Y-154761904D01*
X99833666Y-154809523D01*
X99738428Y-154904761D01*
X99690808Y-155047619D01*
X99690808Y-155142857D01*
X99738428Y-155285714D01*
X99786047Y-155333333D01*
X100690808Y-155761904D02*
X99690808Y-155761904D01*
X100405094Y-156095238D01*
X99690808Y-156428571D01*
X100690808Y-156428571D01*
X99690808Y-157380952D02*
X99690808Y-156904761D01*
X100166999Y-156857142D01*
X100119380Y-156904761D01*
X100071761Y-157000000D01*
X100071761Y-157238095D01*
X100119380Y-157333333D01*
X100166999Y-157380952D01*
X100262237Y-157428571D01*
X100500332Y-157428571D01*
X100595570Y-157380952D01*
X100643189Y-157333333D01*
X100690808Y-157238095D01*
X100690808Y-157000000D01*
X100643189Y-156904761D01*
X100595570Y-156857142D01*
X100690808Y-158380952D02*
X100690808Y-157809523D01*
X100690808Y-158095238D02*
X99690808Y-158095238D01*
X99833666Y-158000000D01*
X99928904Y-157904761D01*
X99976523Y-157809523D01*
X99690808Y-159000000D02*
X99690808Y-159095238D01*
X99738428Y-159190476D01*
X99786047Y-159238095D01*
X99881285Y-159285714D01*
X100071761Y-159333333D01*
X100309856Y-159333333D01*
X100500332Y-159285714D01*
X100595570Y-159238095D01*
X100643189Y-159190476D01*
X100690808Y-159095238D01*
X100690808Y-159000000D01*
X100643189Y-158904761D01*
X100595570Y-158857142D01*
X100500332Y-158809523D01*
X100309856Y-158761904D01*
X100071761Y-158761904D01*
X99881285Y-158809523D01*
X99786047Y-158857142D01*
X99738428Y-158904761D01*
X99690808Y-159000000D01*
X99690808Y-159952380D02*
X99690808Y-160047619D01*
X99738428Y-160142857D01*
X99786047Y-160190476D01*
X99881285Y-160238095D01*
X100071761Y-160285714D01*
X100309856Y-160285714D01*
X100500332Y-160238095D01*
X100595570Y-160190476D01*
X100643189Y-160142857D01*
X100690808Y-160047619D01*
X100690808Y-159952380D01*
X100643189Y-159857142D01*
X100595570Y-159809523D01*
X100500332Y-159761904D01*
X100309856Y-159714285D01*
X100071761Y-159714285D01*
X99881285Y-159761904D01*
X99786047Y-159809523D01*
X99738428Y-159857142D01*
X99690808Y-159952380D01*
%TO.C,R10*%
X100624142Y-163238095D02*
X101290808Y-163238095D01*
X100243189Y-163000000D02*
X100957475Y-162761904D01*
X100957475Y-163380952D01*
X100290808Y-163666666D02*
X100290808Y-164333333D01*
X101290808Y-163904761D01*
X100290808Y-164904761D02*
X100290808Y-165000000D01*
X100338428Y-165095238D01*
X100386047Y-165142857D01*
X100481285Y-165190476D01*
X100671761Y-165238095D01*
X100909856Y-165238095D01*
X101100332Y-165190476D01*
X101195570Y-165142857D01*
X101243189Y-165095238D01*
X101290808Y-165000000D01*
X101290808Y-164904761D01*
X101243189Y-164809523D01*
X101195570Y-164761904D01*
X101100332Y-164714285D01*
X100909856Y-164666666D01*
X100671761Y-164666666D01*
X100481285Y-164714285D01*
X100386047Y-164761904D01*
X100338428Y-164809523D01*
X100290808Y-164904761D01*
X101290808Y-166238095D02*
X100814618Y-165904761D01*
X101290808Y-165666666D02*
X100290808Y-165666666D01*
X100290808Y-166047619D01*
X100338428Y-166142857D01*
X100386047Y-166190476D01*
X100481285Y-166238095D01*
X100624142Y-166238095D01*
X100719380Y-166190476D01*
X100766999Y-166142857D01*
X100814618Y-166047619D01*
X100814618Y-165666666D01*
%TO.C,C13*%
X99557475Y-98452380D02*
X100128904Y-98452380D01*
X99843189Y-98452380D02*
X99843189Y-97452380D01*
X99938427Y-97595238D01*
X100033666Y-97690476D01*
X100128904Y-97738095D01*
X98938427Y-97452380D02*
X98843189Y-97452380D01*
X98747951Y-97500000D01*
X98700332Y-97547619D01*
X98652713Y-97642857D01*
X98605094Y-97833333D01*
X98605094Y-98071428D01*
X98652713Y-98261904D01*
X98700332Y-98357142D01*
X98747951Y-98404761D01*
X98843189Y-98452380D01*
X98938427Y-98452380D01*
X99033666Y-98404761D01*
X99081285Y-98357142D01*
X99128904Y-98261904D01*
X99176523Y-98071428D01*
X99176523Y-97833333D01*
X99128904Y-97642857D01*
X99081285Y-97547619D01*
X99033666Y-97500000D01*
X98938427Y-97452380D01*
X97986047Y-97452380D02*
X97890808Y-97452380D01*
X97795570Y-97500000D01*
X97747951Y-97547619D01*
X97700332Y-97642857D01*
X97652713Y-97833333D01*
X97652713Y-98071428D01*
X97700332Y-98261904D01*
X97747951Y-98357142D01*
X97795570Y-98404761D01*
X97890808Y-98452380D01*
X97986047Y-98452380D01*
X98081285Y-98404761D01*
X98128904Y-98357142D01*
X98176523Y-98261904D01*
X98224142Y-98071428D01*
X98224142Y-97833333D01*
X98176523Y-97642857D01*
X98128904Y-97547619D01*
X98081285Y-97500000D01*
X97986047Y-97452380D01*
X97224142Y-97785714D02*
X97224142Y-98452380D01*
X97224142Y-97880952D02*
X97176523Y-97833333D01*
X97081285Y-97785714D01*
X96938427Y-97785714D01*
X96843189Y-97833333D01*
X96795570Y-97928571D01*
X96795570Y-98452380D01*
%TO.C,C11*%
X100210808Y-148380952D02*
X100210808Y-147809523D01*
X100210808Y-148095238D02*
X99210808Y-148095238D01*
X99353666Y-148000000D01*
X99448904Y-147904761D01*
X99496523Y-147809523D01*
X99210808Y-149000000D02*
X99210808Y-149095238D01*
X99258428Y-149190476D01*
X99306047Y-149238095D01*
X99401285Y-149285714D01*
X99591761Y-149333333D01*
X99829856Y-149333333D01*
X100020332Y-149285714D01*
X100115570Y-149238095D01*
X100163189Y-149190476D01*
X100210808Y-149095238D01*
X100210808Y-149000000D01*
X100163189Y-148904761D01*
X100115570Y-148857142D01*
X100020332Y-148809523D01*
X99829856Y-148761904D01*
X99591761Y-148761904D01*
X99401285Y-148809523D01*
X99306047Y-148857142D01*
X99258428Y-148904761D01*
X99210808Y-149000000D01*
X99210808Y-149952380D02*
X99210808Y-150047619D01*
X99258428Y-150142857D01*
X99306047Y-150190476D01*
X99401285Y-150238095D01*
X99591761Y-150285714D01*
X99829856Y-150285714D01*
X100020332Y-150238095D01*
X100115570Y-150190476D01*
X100163189Y-150142857D01*
X100210808Y-150047619D01*
X100210808Y-149952380D01*
X100163189Y-149857142D01*
X100115570Y-149809523D01*
X100020332Y-149761904D01*
X99829856Y-149714285D01*
X99591761Y-149714285D01*
X99401285Y-149761904D01*
X99306047Y-149809523D01*
X99258428Y-149857142D01*
X99210808Y-149952380D01*
X99544142Y-150714285D02*
X100210808Y-150714285D01*
X99639380Y-150714285D02*
X99591761Y-150761904D01*
X99544142Y-150857142D01*
X99544142Y-151000000D01*
X99591761Y-151095238D01*
X99686999Y-151142857D01*
X100210808Y-151142857D01*
%TO.C,U6*%
X147866999Y-31166666D02*
X147390808Y-31166666D01*
X147962237Y-31452380D02*
X147628904Y-30452380D01*
X147295570Y-31452380D01*
X147057475Y-30452380D02*
X146390808Y-30452380D01*
X147057475Y-31452380D01*
X146390808Y-31452380D01*
X145486047Y-31452380D02*
X146057475Y-31452380D01*
X145771761Y-31452380D02*
X145771761Y-30452380D01*
X145866999Y-30595238D01*
X145962237Y-30690476D01*
X146057475Y-30738095D01*
X144533666Y-31452380D02*
X145105094Y-31452380D01*
X144819380Y-31452380D02*
X144819380Y-30452380D01*
X144914618Y-30595238D01*
X145009856Y-30690476D01*
X145105094Y-30738095D01*
X143581285Y-31452380D02*
X144152713Y-31452380D01*
X143866999Y-31452380D02*
X143866999Y-30452380D01*
X143962237Y-30595238D01*
X144057475Y-30690476D01*
X144152713Y-30738095D01*
X143247951Y-30452380D02*
X142581285Y-30452380D01*
X143009856Y-31452380D01*
X142200332Y-31071428D02*
X141438428Y-31071428D01*
X141057475Y-30452380D02*
X140438428Y-30452380D01*
X140771761Y-30833333D01*
X140628904Y-30833333D01*
X140533666Y-30880952D01*
X140486047Y-30928571D01*
X140438428Y-31023809D01*
X140438428Y-31261904D01*
X140486047Y-31357142D01*
X140533666Y-31404761D01*
X140628904Y-31452380D01*
X140914618Y-31452380D01*
X141009856Y-31404761D01*
X141057475Y-31357142D01*
X140009856Y-31357142D02*
X139962237Y-31404761D01*
X140009856Y-31452380D01*
X140057475Y-31404761D01*
X140009856Y-31357142D01*
X140009856Y-31452380D01*
X139628904Y-30452380D02*
X139009856Y-30452380D01*
X139343189Y-30833333D01*
X139200332Y-30833333D01*
X139105094Y-30880952D01*
X139057475Y-30928571D01*
X139009856Y-31023809D01*
X139009856Y-31261904D01*
X139057475Y-31357142D01*
X139105094Y-31404761D01*
X139200332Y-31452380D01*
X139486047Y-31452380D01*
X139581285Y-31404761D01*
X139628904Y-31357142D01*
%TO.C,C14*%
X109710808Y-157380952D02*
X109710808Y-156809523D01*
X109710808Y-157095238D02*
X108710808Y-157095238D01*
X108853666Y-157000000D01*
X108948904Y-156904761D01*
X108996523Y-156809523D01*
X108710808Y-158000000D02*
X108710808Y-158095238D01*
X108758428Y-158190476D01*
X108806047Y-158238095D01*
X108901285Y-158285714D01*
X109091761Y-158333333D01*
X109329856Y-158333333D01*
X109520332Y-158285714D01*
X109615570Y-158238095D01*
X109663189Y-158190476D01*
X109710808Y-158095238D01*
X109710808Y-158000000D01*
X109663189Y-157904761D01*
X109615570Y-157857142D01*
X109520332Y-157809523D01*
X109329856Y-157761904D01*
X109091761Y-157761904D01*
X108901285Y-157809523D01*
X108806047Y-157857142D01*
X108758428Y-157904761D01*
X108710808Y-158000000D01*
X108710808Y-158952380D02*
X108710808Y-159047619D01*
X108758428Y-159142857D01*
X108806047Y-159190476D01*
X108901285Y-159238095D01*
X109091761Y-159285714D01*
X109329856Y-159285714D01*
X109520332Y-159238095D01*
X109615570Y-159190476D01*
X109663189Y-159142857D01*
X109710808Y-159047619D01*
X109710808Y-158952380D01*
X109663189Y-158857142D01*
X109615570Y-158809523D01*
X109520332Y-158761904D01*
X109329856Y-158714285D01*
X109091761Y-158714285D01*
X108901285Y-158761904D01*
X108806047Y-158809523D01*
X108758428Y-158857142D01*
X108710808Y-158952380D01*
X109044142Y-159714285D02*
X109710808Y-159714285D01*
X109139380Y-159714285D02*
X109091761Y-159761904D01*
X109044142Y-159857142D01*
X109044142Y-160000000D01*
X109091761Y-160095238D01*
X109186999Y-160142857D01*
X109710808Y-160142857D01*
%TO.C,U3*%
X151247951Y-113952380D02*
X151247951Y-112952380D01*
X150866999Y-112952380D01*
X150771761Y-113000000D01*
X150724142Y-113047619D01*
X150676523Y-113142857D01*
X150676523Y-113285714D01*
X150724142Y-113380952D01*
X150771761Y-113428571D01*
X150866999Y-113476190D01*
X151247951Y-113476190D01*
X149676523Y-113857142D02*
X149724142Y-113904761D01*
X149866999Y-113952380D01*
X149962237Y-113952380D01*
X150105094Y-113904761D01*
X150200332Y-113809523D01*
X150247951Y-113714285D01*
X150295570Y-113523809D01*
X150295570Y-113380952D01*
X150247951Y-113190476D01*
X150200332Y-113095238D01*
X150105094Y-113000000D01*
X149962237Y-112952380D01*
X149866999Y-112952380D01*
X149724142Y-113000000D01*
X149676523Y-113047619D01*
X149247951Y-113952380D02*
X149247951Y-112952380D01*
X148914618Y-113666666D01*
X148581285Y-112952380D01*
X148581285Y-113952380D01*
X147581285Y-113952380D02*
X148152713Y-113952380D01*
X147866999Y-113952380D02*
X147866999Y-112952380D01*
X147962237Y-113095238D01*
X148057475Y-113190476D01*
X148152713Y-113238095D01*
X147009856Y-113380952D02*
X147105094Y-113333333D01*
X147152713Y-113285714D01*
X147200332Y-113190476D01*
X147200332Y-113142857D01*
X147152713Y-113047619D01*
X147105094Y-113000000D01*
X147009856Y-112952380D01*
X146819380Y-112952380D01*
X146724142Y-113000000D01*
X146676523Y-113047619D01*
X146628904Y-113142857D01*
X146628904Y-113190476D01*
X146676523Y-113285714D01*
X146724142Y-113333333D01*
X146819380Y-113380952D01*
X147009856Y-113380952D01*
X147105094Y-113428571D01*
X147152713Y-113476190D01*
X147200332Y-113571428D01*
X147200332Y-113761904D01*
X147152713Y-113857142D01*
X147105094Y-113904761D01*
X147009856Y-113952380D01*
X146819380Y-113952380D01*
X146724142Y-113904761D01*
X146676523Y-113857142D01*
X146628904Y-113761904D01*
X146628904Y-113571428D01*
X146676523Y-113476190D01*
X146724142Y-113428571D01*
X146819380Y-113380952D01*
X146009856Y-112952380D02*
X145914618Y-112952380D01*
X145819380Y-113000000D01*
X145771761Y-113047619D01*
X145724142Y-113142857D01*
X145676523Y-113333333D01*
X145676523Y-113571428D01*
X145724142Y-113761904D01*
X145771761Y-113857142D01*
X145819380Y-113904761D01*
X145914618Y-113952380D01*
X146009856Y-113952380D01*
X146105094Y-113904761D01*
X146152713Y-113857142D01*
X146200332Y-113761904D01*
X146247951Y-113571428D01*
X146247951Y-113333333D01*
X146200332Y-113142857D01*
X146152713Y-113047619D01*
X146105094Y-113000000D01*
X146009856Y-112952380D01*
X145105094Y-113380952D02*
X145200332Y-113333333D01*
X145247951Y-113285714D01*
X145295570Y-113190476D01*
X145295570Y-113142857D01*
X145247951Y-113047619D01*
X145200332Y-113000000D01*
X145105094Y-112952380D01*
X144914618Y-112952380D01*
X144819380Y-113000000D01*
X144771761Y-113047619D01*
X144724142Y-113142857D01*
X144724142Y-113190476D01*
X144771761Y-113285714D01*
X144819380Y-113333333D01*
X144914618Y-113380952D01*
X145105094Y-113380952D01*
X145200332Y-113428571D01*
X145247951Y-113476190D01*
X145295570Y-113571428D01*
X145295570Y-113761904D01*
X145247951Y-113857142D01*
X145200332Y-113904761D01*
X145105094Y-113952380D01*
X144914618Y-113952380D01*
X144819380Y-113904761D01*
X144771761Y-113857142D01*
X144724142Y-113761904D01*
X144724142Y-113571428D01*
X144771761Y-113476190D01*
X144819380Y-113428571D01*
X144914618Y-113380952D01*
X144295570Y-113952380D02*
X144295570Y-112952380D01*
X143914618Y-112952380D01*
X143819380Y-113000000D01*
X143771761Y-113047619D01*
X143724142Y-113142857D01*
X143724142Y-113285714D01*
X143771761Y-113380952D01*
X143819380Y-113428571D01*
X143914618Y-113476190D01*
X144295570Y-113476190D01*
X143390808Y-112952380D02*
X143152713Y-113952380D01*
X142962237Y-113238095D01*
X142771761Y-113952380D01*
X142533666Y-112952380D01*
X141581285Y-113952380D02*
X141914618Y-113476190D01*
X142152713Y-113952380D02*
X142152713Y-112952380D01*
X141771761Y-112952380D01*
X141676523Y-113000000D01*
X141628904Y-113047619D01*
X141581285Y-113142857D01*
X141581285Y-113285714D01*
X141628904Y-113380952D01*
X141676523Y-113428571D01*
X141771761Y-113476190D01*
X142152713Y-113476190D01*
%TO.C,U1*%
X155486047Y-136452380D02*
X155486047Y-135452380D01*
X155009856Y-135785714D02*
X155009856Y-136452380D01*
X155009856Y-135880952D02*
X154962237Y-135833333D01*
X154866999Y-135785714D01*
X154724142Y-135785714D01*
X154628904Y-135833333D01*
X154581285Y-135928571D01*
X154581285Y-136452380D01*
X154105094Y-135785714D02*
X154105094Y-136785714D01*
X154105094Y-135833333D02*
X154009856Y-135785714D01*
X153819380Y-135785714D01*
X153724142Y-135833333D01*
X153676523Y-135880952D01*
X153628904Y-135976190D01*
X153628904Y-136261904D01*
X153676523Y-136357142D01*
X153724142Y-136404761D01*
X153819380Y-136452380D01*
X154009856Y-136452380D01*
X154105094Y-136404761D01*
X152771761Y-135785714D02*
X152771761Y-136452380D01*
X153200332Y-135785714D02*
X153200332Y-136309523D01*
X153152713Y-136404761D01*
X153057475Y-136452380D01*
X152914618Y-136452380D01*
X152819380Y-136404761D01*
X152771761Y-136357142D01*
X152438428Y-135785714D02*
X152057475Y-135785714D01*
X152295570Y-135452380D02*
X152295570Y-136309523D01*
X152247951Y-136404761D01*
X152152713Y-136452380D01*
X152057475Y-136452380D01*
X151962237Y-136547619D02*
X151200332Y-136547619D01*
X150962237Y-135785714D02*
X150962237Y-136642857D01*
X151009856Y-136738095D01*
X151105094Y-136785714D01*
X151152713Y-136785714D01*
X150962237Y-135452380D02*
X151009856Y-135500000D01*
X150962237Y-135547619D01*
X150914618Y-135500000D01*
X150962237Y-135452380D01*
X150962237Y-135547619D01*
X150057475Y-136452380D02*
X150057475Y-135928571D01*
X150105094Y-135833333D01*
X150200332Y-135785714D01*
X150390808Y-135785714D01*
X150486047Y-135833333D01*
X150057475Y-136404761D02*
X150152713Y-136452380D01*
X150390808Y-136452380D01*
X150486047Y-136404761D01*
X150533666Y-136309523D01*
X150533666Y-136214285D01*
X150486047Y-136119047D01*
X150390808Y-136071428D01*
X150152713Y-136071428D01*
X150057475Y-136023809D01*
X149152713Y-136404761D02*
X149247951Y-136452380D01*
X149438428Y-136452380D01*
X149533666Y-136404761D01*
X149581285Y-136357142D01*
X149628904Y-136261904D01*
X149628904Y-135976190D01*
X149581285Y-135880952D01*
X149533666Y-135833333D01*
X149438428Y-135785714D01*
X149247951Y-135785714D01*
X149152713Y-135833333D01*
X148724142Y-136452380D02*
X148724142Y-135452380D01*
X148628904Y-136071428D02*
X148343189Y-136452380D01*
X148343189Y-135785714D02*
X148724142Y-136166666D01*
X156913840Y-129423604D02*
X157009078Y-129375984D01*
X157151936Y-129375984D01*
X157294793Y-129423604D01*
X157390031Y-129518842D01*
X157437650Y-129614080D01*
X157485269Y-129804556D01*
X157485269Y-129947413D01*
X157437650Y-130137889D01*
X157390031Y-130233127D01*
X157294793Y-130328365D01*
X157151936Y-130375984D01*
X157056697Y-130375984D01*
X156913840Y-130328365D01*
X156866221Y-130280746D01*
X156866221Y-129947413D01*
X157056697Y-129947413D01*
X156437650Y-130375984D02*
X156437650Y-129375984D01*
X155866221Y-130375984D01*
X155866221Y-129375984D01*
X155390031Y-130375984D02*
X155390031Y-129375984D01*
X155151936Y-129375984D01*
X155009078Y-129423604D01*
X154913840Y-129518842D01*
X154866221Y-129614080D01*
X154818602Y-129804556D01*
X154818602Y-129947413D01*
X154866221Y-130137889D01*
X154913840Y-130233127D01*
X155009078Y-130328365D01*
X155151936Y-130375984D01*
X155390031Y-130375984D01*
X146100391Y-142530630D02*
X145957534Y-142578249D01*
X145719439Y-142578249D01*
X145624200Y-142530630D01*
X145576581Y-142483011D01*
X145528962Y-142387773D01*
X145528962Y-142292535D01*
X145576581Y-142197297D01*
X145624200Y-142149678D01*
X145719439Y-142102059D01*
X145909915Y-142054440D01*
X146005153Y-142006821D01*
X146052772Y-141959202D01*
X146100391Y-141863964D01*
X146100391Y-141768726D01*
X146052772Y-141673488D01*
X146005153Y-141625869D01*
X145909915Y-141578249D01*
X145671819Y-141578249D01*
X145528962Y-141625869D01*
X145100391Y-142578249D02*
X145100391Y-141578249D01*
X144100391Y-141625869D02*
X144195629Y-141578249D01*
X144338486Y-141578249D01*
X144481343Y-141625869D01*
X144576581Y-141721107D01*
X144624200Y-141816345D01*
X144671819Y-142006821D01*
X144671819Y-142149678D01*
X144624200Y-142340154D01*
X144576581Y-142435392D01*
X144481343Y-142530630D01*
X144338486Y-142578249D01*
X144243248Y-142578249D01*
X144100391Y-142530630D01*
X144052772Y-142483011D01*
X144052772Y-142149678D01*
X144243248Y-142149678D01*
X143624200Y-142578249D02*
X143624200Y-141578249D01*
X143052772Y-142578249D01*
X143052772Y-141578249D01*
X142624200Y-142292535D02*
X142148010Y-142292535D01*
X142719439Y-142578249D02*
X142386105Y-141578249D01*
X142052772Y-142578249D01*
X141243248Y-142578249D02*
X141719439Y-142578249D01*
X141719439Y-141578249D01*
X145870160Y-130299586D02*
X145727303Y-130347205D01*
X145489208Y-130347205D01*
X145393969Y-130299586D01*
X145346350Y-130251967D01*
X145298731Y-130156729D01*
X145298731Y-130061491D01*
X145346350Y-129966253D01*
X145393969Y-129918634D01*
X145489208Y-129871015D01*
X145679684Y-129823396D01*
X145774922Y-129775777D01*
X145822541Y-129728158D01*
X145870160Y-129632920D01*
X145870160Y-129537682D01*
X145822541Y-129442444D01*
X145774922Y-129394825D01*
X145679684Y-129347205D01*
X145441588Y-129347205D01*
X145298731Y-129394825D01*
X144870160Y-130347205D02*
X144870160Y-129347205D01*
X143870160Y-129394825D02*
X143965398Y-129347205D01*
X144108255Y-129347205D01*
X144251112Y-129394825D01*
X144346350Y-129490063D01*
X144393969Y-129585301D01*
X144441588Y-129775777D01*
X144441588Y-129918634D01*
X144393969Y-130109110D01*
X144346350Y-130204348D01*
X144251112Y-130299586D01*
X144108255Y-130347205D01*
X144013017Y-130347205D01*
X143870160Y-130299586D01*
X143822541Y-130251967D01*
X143822541Y-129918634D01*
X144013017Y-129918634D01*
X143393969Y-130347205D02*
X143393969Y-129347205D01*
X142822541Y-130347205D01*
X142822541Y-129347205D01*
X142393969Y-130061491D02*
X141917779Y-130061491D01*
X142489208Y-130347205D02*
X142155874Y-129347205D01*
X141822541Y-130347205D01*
X141013017Y-130347205D02*
X141489208Y-130347205D01*
X141489208Y-129347205D01*
X157028956Y-141712206D02*
X157124194Y-141664586D01*
X157267052Y-141664586D01*
X157409909Y-141712206D01*
X157505147Y-141807444D01*
X157552766Y-141902682D01*
X157600385Y-142093158D01*
X157600385Y-142236015D01*
X157552766Y-142426491D01*
X157505147Y-142521729D01*
X157409909Y-142616967D01*
X157267052Y-142664586D01*
X157171813Y-142664586D01*
X157028956Y-142616967D01*
X156981337Y-142569348D01*
X156981337Y-142236015D01*
X157171813Y-142236015D01*
X156552766Y-142664586D02*
X156552766Y-141664586D01*
X155981337Y-142664586D01*
X155981337Y-141664586D01*
X155505147Y-142664586D02*
X155505147Y-141664586D01*
X155267052Y-141664586D01*
X155124194Y-141712206D01*
X155028956Y-141807444D01*
X154981337Y-141902682D01*
X154933718Y-142093158D01*
X154933718Y-142236015D01*
X154981337Y-142426491D01*
X155028956Y-142521729D01*
X155124194Y-142616967D01*
X155267052Y-142664586D01*
X155505147Y-142664586D01*
%TO.C,SW2*%
X160216999Y-118642857D02*
X160264618Y-118785714D01*
X160312237Y-118833333D01*
X160407475Y-118880952D01*
X160550332Y-118880952D01*
X160645570Y-118833333D01*
X160693189Y-118785714D01*
X160740808Y-118690476D01*
X160740808Y-118309523D01*
X159740808Y-118309523D01*
X159740808Y-118642857D01*
X159788428Y-118738095D01*
X159836047Y-118785714D01*
X159931285Y-118833333D01*
X160026523Y-118833333D01*
X160121761Y-118785714D01*
X160169380Y-118738095D01*
X160216999Y-118642857D01*
X160216999Y-118309523D01*
X159740808Y-119500000D02*
X159740808Y-119690476D01*
X159788428Y-119785714D01*
X159883666Y-119880952D01*
X160074142Y-119928571D01*
X160407475Y-119928571D01*
X160597951Y-119880952D01*
X160693189Y-119785714D01*
X160740808Y-119690476D01*
X160740808Y-119500000D01*
X160693189Y-119404761D01*
X160597951Y-119309523D01*
X160407475Y-119261904D01*
X160074142Y-119261904D01*
X159883666Y-119309523D01*
X159788428Y-119404761D01*
X159740808Y-119500000D01*
X159740808Y-120547619D02*
X159740808Y-120738095D01*
X159788428Y-120833333D01*
X159883666Y-120928571D01*
X160074142Y-120976190D01*
X160407475Y-120976190D01*
X160597951Y-120928571D01*
X160693189Y-120833333D01*
X160740808Y-120738095D01*
X160740808Y-120547619D01*
X160693189Y-120452380D01*
X160597951Y-120357142D01*
X160407475Y-120309523D01*
X160074142Y-120309523D01*
X159883666Y-120357142D01*
X159788428Y-120452380D01*
X159740808Y-120547619D01*
X159740808Y-121261904D02*
X159740808Y-121833333D01*
X160740808Y-121547619D02*
X159740808Y-121547619D01*
%TO.C,C15*%
X94986047Y-150119047D02*
X94938428Y-150166666D01*
X94890808Y-150261904D01*
X94890808Y-150500000D01*
X94938428Y-150595238D01*
X94986047Y-150642857D01*
X95081285Y-150690476D01*
X95176523Y-150690476D01*
X95319380Y-150642857D01*
X95890808Y-150071428D01*
X95890808Y-150690476D01*
X95795570Y-151119047D02*
X95843189Y-151166666D01*
X95890808Y-151119047D01*
X95843189Y-151071428D01*
X95795570Y-151119047D01*
X95890808Y-151119047D01*
X94986047Y-151547619D02*
X94938428Y-151595238D01*
X94890808Y-151690476D01*
X94890808Y-151928571D01*
X94938428Y-152023809D01*
X94986047Y-152071428D01*
X95081285Y-152119047D01*
X95176523Y-152119047D01*
X95319380Y-152071428D01*
X95890808Y-151500000D01*
X95890808Y-152119047D01*
X95224142Y-152976190D02*
X95890808Y-152976190D01*
X95224142Y-152547619D02*
X95747951Y-152547619D01*
X95843189Y-152595238D01*
X95890808Y-152690476D01*
X95890808Y-152833333D01*
X95843189Y-152928571D01*
X95795570Y-152976190D01*
X95366999Y-153785714D02*
X95366999Y-153452380D01*
X95890808Y-153452380D02*
X94890808Y-153452380D01*
X94890808Y-153928571D01*
%TO.C,C6*%
X139557475Y-121452380D02*
X140128904Y-121452380D01*
X139843189Y-121452380D02*
X139843189Y-120452380D01*
X139938428Y-120595238D01*
X140033666Y-120690476D01*
X140128904Y-120738095D01*
X138938428Y-120452380D02*
X138843189Y-120452380D01*
X138747951Y-120500000D01*
X138700332Y-120547619D01*
X138652713Y-120642857D01*
X138605094Y-120833333D01*
X138605094Y-121071428D01*
X138652713Y-121261904D01*
X138700332Y-121357142D01*
X138747951Y-121404761D01*
X138843189Y-121452380D01*
X138938428Y-121452380D01*
X139033666Y-121404761D01*
X139081285Y-121357142D01*
X139128904Y-121261904D01*
X139176523Y-121071428D01*
X139176523Y-120833333D01*
X139128904Y-120642857D01*
X139081285Y-120547619D01*
X139033666Y-120500000D01*
X138938428Y-120452380D01*
X137986047Y-120452380D02*
X137890808Y-120452380D01*
X137795570Y-120500000D01*
X137747951Y-120547619D01*
X137700332Y-120642857D01*
X137652713Y-120833333D01*
X137652713Y-121071428D01*
X137700332Y-121261904D01*
X137747951Y-121357142D01*
X137795570Y-121404761D01*
X137890808Y-121452380D01*
X137986047Y-121452380D01*
X138081285Y-121404761D01*
X138128904Y-121357142D01*
X138176523Y-121261904D01*
X138224142Y-121071428D01*
X138224142Y-120833333D01*
X138176523Y-120642857D01*
X138128904Y-120547619D01*
X138081285Y-120500000D01*
X137986047Y-120452380D01*
X137224142Y-120785714D02*
X137224142Y-121452380D01*
X137224142Y-120880952D02*
X137176523Y-120833333D01*
X137081285Y-120785714D01*
X136938428Y-120785714D01*
X136843189Y-120833333D01*
X136795570Y-120928571D01*
X136795570Y-121452380D01*
%TO.C,C7*%
X115009856Y-27102380D02*
X115581285Y-27102380D01*
X115295570Y-27102380D02*
X115295570Y-26102380D01*
X115390808Y-26245238D01*
X115486047Y-26340476D01*
X115581285Y-26388095D01*
X114390808Y-26102380D02*
X114295570Y-26102380D01*
X114200332Y-26150000D01*
X114152713Y-26197619D01*
X114105094Y-26292857D01*
X114057475Y-26483333D01*
X114057475Y-26721428D01*
X114105094Y-26911904D01*
X114152713Y-27007142D01*
X114200332Y-27054761D01*
X114295570Y-27102380D01*
X114390808Y-27102380D01*
X114486047Y-27054761D01*
X114533666Y-27007142D01*
X114581285Y-26911904D01*
X114628904Y-26721428D01*
X114628904Y-26483333D01*
X114581285Y-26292857D01*
X114533666Y-26197619D01*
X114486047Y-26150000D01*
X114390808Y-26102380D01*
X113200332Y-26435714D02*
X113200332Y-27102380D01*
X113628904Y-26435714D02*
X113628904Y-26959523D01*
X113581285Y-27054761D01*
X113486047Y-27102380D01*
X113343189Y-27102380D01*
X113247951Y-27054761D01*
X113200332Y-27007142D01*
X112390808Y-26578571D02*
X112724142Y-26578571D01*
X112724142Y-27102380D02*
X112724142Y-26102380D01*
X112247951Y-26102380D01*
%TO.C,R9*%
X104624142Y-163238095D02*
X105290808Y-163238095D01*
X104243189Y-163000000D02*
X104957475Y-162761904D01*
X104957475Y-163380952D01*
X104290808Y-163666666D02*
X104290808Y-164333333D01*
X105290808Y-163904761D01*
X104290808Y-164904761D02*
X104290808Y-165000000D01*
X104338428Y-165095238D01*
X104386047Y-165142857D01*
X104481285Y-165190476D01*
X104671761Y-165238095D01*
X104909856Y-165238095D01*
X105100332Y-165190476D01*
X105195570Y-165142857D01*
X105243189Y-165095238D01*
X105290808Y-165000000D01*
X105290808Y-164904761D01*
X105243189Y-164809523D01*
X105195570Y-164761904D01*
X105100332Y-164714285D01*
X104909856Y-164666666D01*
X104671761Y-164666666D01*
X104481285Y-164714285D01*
X104386047Y-164761904D01*
X104338428Y-164809523D01*
X104290808Y-164904761D01*
X105290808Y-166238095D02*
X104814618Y-165904761D01*
X105290808Y-165666666D02*
X104290808Y-165666666D01*
X104290808Y-166047619D01*
X104338428Y-166142857D01*
X104386047Y-166190476D01*
X104481285Y-166238095D01*
X104624142Y-166238095D01*
X104719380Y-166190476D01*
X104766999Y-166142857D01*
X104814618Y-166047619D01*
X104814618Y-165666666D01*
%TO.C,C8*%
X113509856Y-41102380D02*
X114081285Y-41102380D01*
X113795570Y-41102380D02*
X113795570Y-40102380D01*
X113890808Y-40245238D01*
X113986047Y-40340476D01*
X114081285Y-40388095D01*
X112890808Y-40102380D02*
X112795570Y-40102380D01*
X112700332Y-40150000D01*
X112652713Y-40197619D01*
X112605094Y-40292857D01*
X112557475Y-40483333D01*
X112557475Y-40721428D01*
X112605094Y-40911904D01*
X112652713Y-41007142D01*
X112700332Y-41054761D01*
X112795570Y-41102380D01*
X112890808Y-41102380D01*
X112986047Y-41054761D01*
X113033666Y-41007142D01*
X113081285Y-40911904D01*
X113128904Y-40721428D01*
X113128904Y-40483333D01*
X113081285Y-40292857D01*
X113033666Y-40197619D01*
X112986047Y-40150000D01*
X112890808Y-40102380D01*
X111700332Y-40435714D02*
X111700332Y-41102380D01*
X112128904Y-40435714D02*
X112128904Y-40959523D01*
X112081285Y-41054761D01*
X111986047Y-41102380D01*
X111843189Y-41102380D01*
X111747951Y-41054761D01*
X111700332Y-41007142D01*
X110890808Y-40578571D02*
X111224142Y-40578571D01*
X111224142Y-41102380D02*
X111224142Y-40102380D01*
X110747951Y-40102380D01*
%TO.C,C10*%
X144484856Y-40602380D02*
X145056285Y-40602380D01*
X144770570Y-40602380D02*
X144770570Y-39602380D01*
X144865808Y-39745238D01*
X144961047Y-39840476D01*
X145056285Y-39888095D01*
X143865808Y-39602380D02*
X143770570Y-39602380D01*
X143675332Y-39650000D01*
X143627713Y-39697619D01*
X143580094Y-39792857D01*
X143532475Y-39983333D01*
X143532475Y-40221428D01*
X143580094Y-40411904D01*
X143627713Y-40507142D01*
X143675332Y-40554761D01*
X143770570Y-40602380D01*
X143865808Y-40602380D01*
X143961047Y-40554761D01*
X144008666Y-40507142D01*
X144056285Y-40411904D01*
X144103904Y-40221428D01*
X144103904Y-39983333D01*
X144056285Y-39792857D01*
X144008666Y-39697619D01*
X143961047Y-39650000D01*
X143865808Y-39602380D01*
X142675332Y-39935714D02*
X142675332Y-40602380D01*
X143103904Y-39935714D02*
X143103904Y-40459523D01*
X143056285Y-40554761D01*
X142961047Y-40602380D01*
X142818189Y-40602380D01*
X142722951Y-40554761D01*
X142675332Y-40507142D01*
X141865808Y-40078571D02*
X142199142Y-40078571D01*
X142199142Y-40602380D02*
X142199142Y-39602380D01*
X141722951Y-39602380D01*
%TO.C,R14*%
X119128904Y-88802380D02*
X119700332Y-88802380D01*
X119414618Y-88802380D02*
X119414618Y-87802380D01*
X119509856Y-87945238D01*
X119605094Y-88040476D01*
X119700332Y-88088095D01*
X118509856Y-87802380D02*
X118414618Y-87802380D01*
X118319380Y-87850000D01*
X118271761Y-87897619D01*
X118224142Y-87992857D01*
X118176523Y-88183333D01*
X118176523Y-88421428D01*
X118224142Y-88611904D01*
X118271761Y-88707142D01*
X118319380Y-88754761D01*
X118414618Y-88802380D01*
X118509856Y-88802380D01*
X118605094Y-88754761D01*
X118652713Y-88707142D01*
X118700332Y-88611904D01*
X118747951Y-88421428D01*
X118747951Y-88183333D01*
X118700332Y-87992857D01*
X118652713Y-87897619D01*
X118605094Y-87850000D01*
X118509856Y-87802380D01*
X117747951Y-88802380D02*
X117747951Y-87802380D01*
X117176523Y-88802380D02*
X117605094Y-88230952D01*
X117176523Y-87802380D02*
X117747951Y-88373809D01*
%TO.C,U4*%
X116366999Y-31166666D02*
X115890808Y-31166666D01*
X116462237Y-31452380D02*
X116128904Y-30452380D01*
X115795570Y-31452380D01*
X115557475Y-30452380D02*
X114890808Y-30452380D01*
X115557475Y-31452380D01*
X114890808Y-31452380D01*
X113986047Y-31452380D02*
X114557475Y-31452380D01*
X114271761Y-31452380D02*
X114271761Y-30452380D01*
X114366999Y-30595238D01*
X114462237Y-30690476D01*
X114557475Y-30738095D01*
X113033666Y-31452380D02*
X113605094Y-31452380D01*
X113319380Y-31452380D02*
X113319380Y-30452380D01*
X113414618Y-30595238D01*
X113509856Y-30690476D01*
X113605094Y-30738095D01*
X112081285Y-31452380D02*
X112652713Y-31452380D01*
X112366999Y-31452380D02*
X112366999Y-30452380D01*
X112462237Y-30595238D01*
X112557475Y-30690476D01*
X112652713Y-30738095D01*
X111747951Y-30452380D02*
X111081285Y-30452380D01*
X111509856Y-31452380D01*
X110700332Y-31071428D02*
X109938428Y-31071428D01*
X108986047Y-30452380D02*
X109462237Y-30452380D01*
X109509856Y-30928571D01*
X109462237Y-30880952D01*
X109366999Y-30833333D01*
X109128904Y-30833333D01*
X109033666Y-30880952D01*
X108986047Y-30928571D01*
X108938428Y-31023809D01*
X108938428Y-31261904D01*
X108986047Y-31357142D01*
X109033666Y-31404761D01*
X109128904Y-31452380D01*
X109366999Y-31452380D01*
X109462237Y-31404761D01*
X109509856Y-31357142D01*
X108509856Y-31357142D02*
X108462237Y-31404761D01*
X108509856Y-31452380D01*
X108557475Y-31404761D01*
X108509856Y-31357142D01*
X108509856Y-31452380D01*
X107843189Y-30452380D02*
X107747951Y-30452380D01*
X107652713Y-30500000D01*
X107605094Y-30547619D01*
X107557475Y-30642857D01*
X107509856Y-30833333D01*
X107509856Y-31071428D01*
X107557475Y-31261904D01*
X107605094Y-31357142D01*
X107652713Y-31404761D01*
X107747951Y-31452380D01*
X107843189Y-31452380D01*
X107938428Y-31404761D01*
X107986047Y-31357142D01*
X108033666Y-31261904D01*
X108081285Y-31071428D01*
X108081285Y-30833333D01*
X108033666Y-30642857D01*
X107986047Y-30547619D01*
X107938428Y-30500000D01*
X107843189Y-30452380D01*
%TO.C,C16*%
X94986047Y-156119047D02*
X94938428Y-156166666D01*
X94890808Y-156261904D01*
X94890808Y-156500000D01*
X94938428Y-156595238D01*
X94986047Y-156642857D01*
X95081285Y-156690476D01*
X95176523Y-156690476D01*
X95319380Y-156642857D01*
X95890808Y-156071428D01*
X95890808Y-156690476D01*
X95795570Y-157119047D02*
X95843189Y-157166666D01*
X95890808Y-157119047D01*
X95843189Y-157071428D01*
X95795570Y-157119047D01*
X95890808Y-157119047D01*
X94986047Y-157547619D02*
X94938428Y-157595238D01*
X94890808Y-157690476D01*
X94890808Y-157928571D01*
X94938428Y-158023809D01*
X94986047Y-158071428D01*
X95081285Y-158119047D01*
X95176523Y-158119047D01*
X95319380Y-158071428D01*
X95890808Y-157500000D01*
X95890808Y-158119047D01*
X95224142Y-158976190D02*
X95890808Y-158976190D01*
X95224142Y-158547619D02*
X95747951Y-158547619D01*
X95843189Y-158595238D01*
X95890808Y-158690476D01*
X95890808Y-158833333D01*
X95843189Y-158928571D01*
X95795570Y-158976190D01*
X95366999Y-159785714D02*
X95366999Y-159452380D01*
X95890808Y-159452380D02*
X94890808Y-159452380D01*
X94890808Y-159928571D01*
%TO.C,C9*%
X144509856Y-27102380D02*
X145081285Y-27102380D01*
X144795570Y-27102380D02*
X144795570Y-26102380D01*
X144890808Y-26245238D01*
X144986047Y-26340476D01*
X145081285Y-26388095D01*
X143890808Y-26102380D02*
X143795570Y-26102380D01*
X143700332Y-26150000D01*
X143652713Y-26197619D01*
X143605094Y-26292857D01*
X143557475Y-26483333D01*
X143557475Y-26721428D01*
X143605094Y-26911904D01*
X143652713Y-27007142D01*
X143700332Y-27054761D01*
X143795570Y-27102380D01*
X143890808Y-27102380D01*
X143986047Y-27054761D01*
X144033666Y-27007142D01*
X144081285Y-26911904D01*
X144128904Y-26721428D01*
X144128904Y-26483333D01*
X144081285Y-26292857D01*
X144033666Y-26197619D01*
X143986047Y-26150000D01*
X143890808Y-26102380D01*
X142700332Y-26435714D02*
X142700332Y-27102380D01*
X143128904Y-26435714D02*
X143128904Y-26959523D01*
X143081285Y-27054761D01*
X142986047Y-27102380D01*
X142843189Y-27102380D01*
X142747951Y-27054761D01*
X142700332Y-27007142D01*
X141890808Y-26578571D02*
X142224142Y-26578571D01*
X142224142Y-27102380D02*
X142224142Y-26102380D01*
X141747951Y-26102380D01*
%TO.C,C18*%
X109009856Y-148102380D02*
X109581285Y-148102380D01*
X109295570Y-148102380D02*
X109295570Y-147102380D01*
X109390808Y-147245238D01*
X109486047Y-147340476D01*
X109581285Y-147388095D01*
X108390808Y-147102380D02*
X108295570Y-147102380D01*
X108200332Y-147150000D01*
X108152713Y-147197619D01*
X108105094Y-147292857D01*
X108057475Y-147483333D01*
X108057475Y-147721428D01*
X108105094Y-147911904D01*
X108152713Y-148007142D01*
X108200332Y-148054761D01*
X108295570Y-148102380D01*
X108390808Y-148102380D01*
X108486047Y-148054761D01*
X108533666Y-148007142D01*
X108581285Y-147911904D01*
X108628904Y-147721428D01*
X108628904Y-147483333D01*
X108581285Y-147292857D01*
X108533666Y-147197619D01*
X108486047Y-147150000D01*
X108390808Y-147102380D01*
X107200332Y-147435714D02*
X107200332Y-148102380D01*
X107628904Y-147435714D02*
X107628904Y-147959523D01*
X107581285Y-148054761D01*
X107486047Y-148102380D01*
X107343189Y-148102380D01*
X107247951Y-148054761D01*
X107200332Y-148007142D01*
X106390808Y-147578571D02*
X106724142Y-147578571D01*
X106724142Y-148102380D02*
X106724142Y-147102380D01*
X106247951Y-147102380D01*
%TO.C,D5*%
X158009856Y-95302380D02*
X158009856Y-94302380D01*
X157628904Y-94302380D01*
X157533666Y-94350000D01*
X157486047Y-94397619D01*
X157438428Y-94492857D01*
X157438428Y-94635714D01*
X157486047Y-94730952D01*
X157533666Y-94778571D01*
X157628904Y-94826190D01*
X158009856Y-94826190D01*
X157105094Y-94302380D02*
X156866999Y-95302380D01*
X156676523Y-94588095D01*
X156486047Y-95302380D01*
X156247951Y-94302380D01*
X155295570Y-95302380D02*
X155628904Y-94826190D01*
X155866999Y-95302380D02*
X155866999Y-94302380D01*
X155486047Y-94302380D01*
X155390808Y-94350000D01*
X155343189Y-94397619D01*
X155295570Y-94492857D01*
X155295570Y-94635714D01*
X155343189Y-94730952D01*
X155390808Y-94778571D01*
X155486047Y-94826190D01*
X155866999Y-94826190D01*
X155105094Y-95397619D02*
X154343189Y-95397619D01*
X153628904Y-95302380D02*
X154105094Y-95302380D01*
X154105094Y-94302380D01*
X153295570Y-94778571D02*
X152962237Y-94778571D01*
X152819380Y-95302380D02*
X153295570Y-95302380D01*
X153295570Y-94302380D01*
X152819380Y-94302380D01*
X152390808Y-95302380D02*
X152390808Y-94302380D01*
X152152713Y-94302380D01*
X152009856Y-94350000D01*
X151914618Y-94445238D01*
X151866999Y-94540476D01*
X151819380Y-94730952D01*
X151819380Y-94873809D01*
X151866999Y-95064285D01*
X151914618Y-95159523D01*
X152009856Y-95254761D01*
X152152713Y-95302380D01*
X152390808Y-95302380D01*
%TO.C,R13*%
X140128904Y-88802380D02*
X140700332Y-88802380D01*
X140414618Y-88802380D02*
X140414618Y-87802380D01*
X140509856Y-87945238D01*
X140605094Y-88040476D01*
X140700332Y-88088095D01*
X139509856Y-87802380D02*
X139414618Y-87802380D01*
X139319380Y-87850000D01*
X139271761Y-87897619D01*
X139224142Y-87992857D01*
X139176523Y-88183333D01*
X139176523Y-88421428D01*
X139224142Y-88611904D01*
X139271761Y-88707142D01*
X139319380Y-88754761D01*
X139414618Y-88802380D01*
X139509856Y-88802380D01*
X139605094Y-88754761D01*
X139652713Y-88707142D01*
X139700332Y-88611904D01*
X139747951Y-88421428D01*
X139747951Y-88183333D01*
X139700332Y-87992857D01*
X139652713Y-87897619D01*
X139605094Y-87850000D01*
X139509856Y-87802380D01*
X138747951Y-88802380D02*
X138747951Y-87802380D01*
X138176523Y-88802380D02*
X138605094Y-88230952D01*
X138176523Y-87802380D02*
X138747951Y-88373809D01*
%TO.C,C23*%
X145390808Y-69880952D02*
X145390808Y-69309523D01*
X145390808Y-69595238D02*
X144390808Y-69595238D01*
X144533666Y-69500000D01*
X144628904Y-69404761D01*
X144676523Y-69309523D01*
X144390808Y-70500000D02*
X144390808Y-70595238D01*
X144438428Y-70690476D01*
X144486047Y-70738095D01*
X144581285Y-70785714D01*
X144771761Y-70833333D01*
X145009856Y-70833333D01*
X145200332Y-70785714D01*
X145295570Y-70738095D01*
X145343189Y-70690476D01*
X145390808Y-70595238D01*
X145390808Y-70500000D01*
X145343189Y-70404761D01*
X145295570Y-70357142D01*
X145200332Y-70309523D01*
X145009856Y-70261904D01*
X144771761Y-70261904D01*
X144581285Y-70309523D01*
X144486047Y-70357142D01*
X144438428Y-70404761D01*
X144390808Y-70500000D01*
X144390808Y-71452380D02*
X144390808Y-71547619D01*
X144438428Y-71642857D01*
X144486047Y-71690476D01*
X144581285Y-71738095D01*
X144771761Y-71785714D01*
X145009856Y-71785714D01*
X145200332Y-71738095D01*
X145295570Y-71690476D01*
X145343189Y-71642857D01*
X145390808Y-71547619D01*
X145390808Y-71452380D01*
X145343189Y-71357142D01*
X145295570Y-71309523D01*
X145200332Y-71261904D01*
X145009856Y-71214285D01*
X144771761Y-71214285D01*
X144581285Y-71261904D01*
X144486047Y-71309523D01*
X144438428Y-71357142D01*
X144390808Y-71452380D01*
X144724142Y-72214285D02*
X145390808Y-72214285D01*
X144819380Y-72214285D02*
X144771761Y-72261904D01*
X144724142Y-72357142D01*
X144724142Y-72500000D01*
X144771761Y-72595238D01*
X144866999Y-72642857D01*
X145390808Y-72642857D01*
%TO.C,C5*%
X139557475Y-112852380D02*
X140128904Y-112852380D01*
X139843189Y-112852380D02*
X139843189Y-111852380D01*
X139938428Y-111995238D01*
X140033666Y-112090476D01*
X140128904Y-112138095D01*
X138938428Y-111852380D02*
X138843189Y-111852380D01*
X138747951Y-111900000D01*
X138700332Y-111947619D01*
X138652713Y-112042857D01*
X138605094Y-112233333D01*
X138605094Y-112471428D01*
X138652713Y-112661904D01*
X138700332Y-112757142D01*
X138747951Y-112804761D01*
X138843189Y-112852380D01*
X138938428Y-112852380D01*
X139033666Y-112804761D01*
X139081285Y-112757142D01*
X139128904Y-112661904D01*
X139176523Y-112471428D01*
X139176523Y-112233333D01*
X139128904Y-112042857D01*
X139081285Y-111947619D01*
X139033666Y-111900000D01*
X138938428Y-111852380D01*
X137986047Y-111852380D02*
X137890808Y-111852380D01*
X137795570Y-111900000D01*
X137747951Y-111947619D01*
X137700332Y-112042857D01*
X137652713Y-112233333D01*
X137652713Y-112471428D01*
X137700332Y-112661904D01*
X137747951Y-112757142D01*
X137795570Y-112804761D01*
X137890808Y-112852380D01*
X137986047Y-112852380D01*
X138081285Y-112804761D01*
X138128904Y-112757142D01*
X138176523Y-112661904D01*
X138224142Y-112471428D01*
X138224142Y-112233333D01*
X138176523Y-112042857D01*
X138128904Y-111947619D01*
X138081285Y-111900000D01*
X137986047Y-111852380D01*
X137224142Y-112185714D02*
X137224142Y-112852380D01*
X137224142Y-112280952D02*
X137176523Y-112233333D01*
X137081285Y-112185714D01*
X136938428Y-112185714D01*
X136843189Y-112233333D01*
X136795570Y-112328571D01*
X136795570Y-112852380D01*
%TO.C,R1*%
X157336047Y-163666666D02*
X157288428Y-163714285D01*
X157240808Y-163809523D01*
X157240808Y-164047619D01*
X157288428Y-164142857D01*
X157336047Y-164190476D01*
X157431285Y-164238095D01*
X157526523Y-164238095D01*
X157669380Y-164190476D01*
X158240808Y-163619047D01*
X158240808Y-164238095D01*
X158240808Y-164666666D02*
X157240808Y-164666666D01*
X157955094Y-165000000D01*
X157240808Y-165333333D01*
X158240808Y-165333333D01*
X157336047Y-165761904D02*
X157288428Y-165809523D01*
X157240808Y-165904761D01*
X157240808Y-166142857D01*
X157288428Y-166238095D01*
X157336047Y-166285714D01*
X157431285Y-166333333D01*
X157526523Y-166333333D01*
X157669380Y-166285714D01*
X158240808Y-165714285D01*
X158240808Y-166333333D01*
%TO.C,R11*%
X155914618Y-102452380D02*
X156390808Y-102452380D01*
X156438428Y-102928571D01*
X156390808Y-102880952D01*
X156295570Y-102833333D01*
X156057475Y-102833333D01*
X155962237Y-102880952D01*
X155914618Y-102928571D01*
X155866999Y-103023809D01*
X155866999Y-103261904D01*
X155914618Y-103357142D01*
X155962237Y-103404761D01*
X156057475Y-103452380D01*
X156295570Y-103452380D01*
X156390808Y-103404761D01*
X156438428Y-103357142D01*
X155438428Y-103357142D02*
X155390808Y-103404761D01*
X155438428Y-103452380D01*
X155486047Y-103404761D01*
X155438428Y-103357142D01*
X155438428Y-103452380D01*
X154438428Y-103452380D02*
X155009856Y-103452380D01*
X154724142Y-103452380D02*
X154724142Y-102452380D01*
X154819380Y-102595238D01*
X154914618Y-102690476D01*
X155009856Y-102738095D01*
X154009856Y-103452380D02*
X154009856Y-102452380D01*
X153438428Y-103452380D02*
X153866999Y-102880952D01*
X153438428Y-102452380D02*
X154009856Y-103023809D01*
%TO.C,C22*%
X110210808Y-69880952D02*
X110210808Y-69309523D01*
X110210808Y-69595238D02*
X109210808Y-69595238D01*
X109353666Y-69500000D01*
X109448904Y-69404761D01*
X109496523Y-69309523D01*
X109210808Y-70500000D02*
X109210808Y-70595238D01*
X109258428Y-70690476D01*
X109306047Y-70738095D01*
X109401285Y-70785714D01*
X109591761Y-70833333D01*
X109829856Y-70833333D01*
X110020332Y-70785714D01*
X110115570Y-70738095D01*
X110163189Y-70690476D01*
X110210808Y-70595238D01*
X110210808Y-70500000D01*
X110163189Y-70404761D01*
X110115570Y-70357142D01*
X110020332Y-70309523D01*
X109829856Y-70261904D01*
X109591761Y-70261904D01*
X109401285Y-70309523D01*
X109306047Y-70357142D01*
X109258428Y-70404761D01*
X109210808Y-70500000D01*
X109210808Y-71452380D02*
X109210808Y-71547619D01*
X109258428Y-71642857D01*
X109306047Y-71690476D01*
X109401285Y-71738095D01*
X109591761Y-71785714D01*
X109829856Y-71785714D01*
X110020332Y-71738095D01*
X110115570Y-71690476D01*
X110163189Y-71642857D01*
X110210808Y-71547619D01*
X110210808Y-71452380D01*
X110163189Y-71357142D01*
X110115570Y-71309523D01*
X110020332Y-71261904D01*
X109829856Y-71214285D01*
X109591761Y-71214285D01*
X109401285Y-71261904D01*
X109306047Y-71309523D01*
X109258428Y-71357142D01*
X109210808Y-71452380D01*
X109544142Y-72214285D02*
X110210808Y-72214285D01*
X109639380Y-72214285D02*
X109591761Y-72261904D01*
X109544142Y-72357142D01*
X109544142Y-72500000D01*
X109591761Y-72595238D01*
X109686999Y-72642857D01*
X110210808Y-72642857D01*
%TO.C,C1*%
X153210808Y-163880952D02*
X153210808Y-163309523D01*
X153210808Y-163595238D02*
X152210808Y-163595238D01*
X152353666Y-163500000D01*
X152448904Y-163404761D01*
X152496523Y-163309523D01*
X152210808Y-164500000D02*
X152210808Y-164595238D01*
X152258428Y-164690476D01*
X152306047Y-164738095D01*
X152401285Y-164785714D01*
X152591761Y-164833333D01*
X152829856Y-164833333D01*
X153020332Y-164785714D01*
X153115570Y-164738095D01*
X153163189Y-164690476D01*
X153210808Y-164595238D01*
X153210808Y-164500000D01*
X153163189Y-164404761D01*
X153115570Y-164357142D01*
X153020332Y-164309523D01*
X152829856Y-164261904D01*
X152591761Y-164261904D01*
X152401285Y-164309523D01*
X152306047Y-164357142D01*
X152258428Y-164404761D01*
X152210808Y-164500000D01*
X152210808Y-165452380D02*
X152210808Y-165547619D01*
X152258428Y-165642857D01*
X152306047Y-165690476D01*
X152401285Y-165738095D01*
X152591761Y-165785714D01*
X152829856Y-165785714D01*
X153020332Y-165738095D01*
X153115570Y-165690476D01*
X153163189Y-165642857D01*
X153210808Y-165547619D01*
X153210808Y-165452380D01*
X153163189Y-165357142D01*
X153115570Y-165309523D01*
X153020332Y-165261904D01*
X152829856Y-165214285D01*
X152591761Y-165214285D01*
X152401285Y-165261904D01*
X152306047Y-165309523D01*
X152258428Y-165357142D01*
X152210808Y-165452380D01*
X152544142Y-166214285D02*
X153210808Y-166214285D01*
X152639380Y-166214285D02*
X152591761Y-166261904D01*
X152544142Y-166357142D01*
X152544142Y-166500000D01*
X152591761Y-166595238D01*
X152686999Y-166642857D01*
X153210808Y-166642857D01*
%TO.C,SW1*%
X160740808Y-94547619D02*
X160264618Y-94214285D01*
X160740808Y-93976190D02*
X159740808Y-93976190D01*
X159740808Y-94357142D01*
X159788428Y-94452380D01*
X159836047Y-94500000D01*
X159931285Y-94547619D01*
X160074142Y-94547619D01*
X160169380Y-94500000D01*
X160216999Y-94452380D01*
X160264618Y-94357142D01*
X160264618Y-93976190D01*
X160216999Y-94976190D02*
X160216999Y-95309523D01*
X160740808Y-95452380D02*
X160740808Y-94976190D01*
X159740808Y-94976190D01*
X159740808Y-95452380D01*
X160693189Y-95833333D02*
X160740808Y-95976190D01*
X160740808Y-96214285D01*
X160693189Y-96309523D01*
X160645570Y-96357142D01*
X160550332Y-96404761D01*
X160455094Y-96404761D01*
X160359856Y-96357142D01*
X160312237Y-96309523D01*
X160264618Y-96214285D01*
X160216999Y-96023809D01*
X160169380Y-95928571D01*
X160121761Y-95880952D01*
X160026523Y-95833333D01*
X159931285Y-95833333D01*
X159836047Y-95880952D01*
X159788428Y-95928571D01*
X159740808Y-96023809D01*
X159740808Y-96261904D01*
X159788428Y-96404761D01*
X160216999Y-96833333D02*
X160216999Y-97166666D01*
X160740808Y-97309523D02*
X160740808Y-96833333D01*
X159740808Y-96833333D01*
X159740808Y-97309523D01*
X159740808Y-97595238D02*
X159740808Y-98166666D01*
X160740808Y-97880952D02*
X159740808Y-97880952D01*
%TO.C,C21*%
X145109856Y-121152380D02*
X145681285Y-121152380D01*
X145395570Y-121152380D02*
X145395570Y-120152380D01*
X145490808Y-120295238D01*
X145586047Y-120390476D01*
X145681285Y-120438095D01*
X144490808Y-120152380D02*
X144395570Y-120152380D01*
X144300332Y-120200000D01*
X144252713Y-120247619D01*
X144205094Y-120342857D01*
X144157475Y-120533333D01*
X144157475Y-120771428D01*
X144205094Y-120961904D01*
X144252713Y-121057142D01*
X144300332Y-121104761D01*
X144395570Y-121152380D01*
X144490808Y-121152380D01*
X144586047Y-121104761D01*
X144633666Y-121057142D01*
X144681285Y-120961904D01*
X144728904Y-120771428D01*
X144728904Y-120533333D01*
X144681285Y-120342857D01*
X144633666Y-120247619D01*
X144586047Y-120200000D01*
X144490808Y-120152380D01*
X143300332Y-120485714D02*
X143300332Y-121152380D01*
X143728904Y-120485714D02*
X143728904Y-121009523D01*
X143681285Y-121104761D01*
X143586047Y-121152380D01*
X143443189Y-121152380D01*
X143347951Y-121104761D01*
X143300332Y-121057142D01*
X142490808Y-120628571D02*
X142824142Y-120628571D01*
X142824142Y-121152380D02*
X142824142Y-120152380D01*
X142347951Y-120152380D01*
%TO.C,C17*%
X109710808Y-152380952D02*
X109710808Y-151809523D01*
X109710808Y-152095238D02*
X108710808Y-152095238D01*
X108853666Y-152000000D01*
X108948904Y-151904761D01*
X108996523Y-151809523D01*
X108710808Y-153000000D02*
X108710808Y-153095238D01*
X108758428Y-153190476D01*
X108806047Y-153238095D01*
X108901285Y-153285714D01*
X109091761Y-153333333D01*
X109329856Y-153333333D01*
X109520332Y-153285714D01*
X109615570Y-153238095D01*
X109663189Y-153190476D01*
X109710808Y-153095238D01*
X109710808Y-153000000D01*
X109663189Y-152904761D01*
X109615570Y-152857142D01*
X109520332Y-152809523D01*
X109329856Y-152761904D01*
X109091761Y-152761904D01*
X108901285Y-152809523D01*
X108806047Y-152857142D01*
X108758428Y-152904761D01*
X108710808Y-153000000D01*
X108710808Y-153952380D02*
X108710808Y-154047619D01*
X108758428Y-154142857D01*
X108806047Y-154190476D01*
X108901285Y-154238095D01*
X109091761Y-154285714D01*
X109329856Y-154285714D01*
X109520332Y-154238095D01*
X109615570Y-154190476D01*
X109663189Y-154142857D01*
X109710808Y-154047619D01*
X109710808Y-153952380D01*
X109663189Y-153857142D01*
X109615570Y-153809523D01*
X109520332Y-153761904D01*
X109329856Y-153714285D01*
X109091761Y-153714285D01*
X108901285Y-153761904D01*
X108806047Y-153809523D01*
X108758428Y-153857142D01*
X108710808Y-153952380D01*
X109044142Y-154714285D02*
X109710808Y-154714285D01*
X109139380Y-154714285D02*
X109091761Y-154761904D01*
X109044142Y-154857142D01*
X109044142Y-155000000D01*
X109091761Y-155095238D01*
X109186999Y-155142857D01*
X109710808Y-155142857D01*
%TO.C,R8*%
X99128904Y-122802380D02*
X99700332Y-122802380D01*
X99414618Y-122802380D02*
X99414618Y-121802380D01*
X99509856Y-121945238D01*
X99605094Y-122040476D01*
X99700332Y-122088095D01*
X98509856Y-121802380D02*
X98414618Y-121802380D01*
X98319380Y-121850000D01*
X98271761Y-121897619D01*
X98224142Y-121992857D01*
X98176523Y-122183333D01*
X98176523Y-122421428D01*
X98224142Y-122611904D01*
X98271761Y-122707142D01*
X98319380Y-122754761D01*
X98414618Y-122802380D01*
X98509856Y-122802380D01*
X98605094Y-122754761D01*
X98652713Y-122707142D01*
X98700332Y-122611904D01*
X98747951Y-122421428D01*
X98747951Y-122183333D01*
X98700332Y-121992857D01*
X98652713Y-121897619D01*
X98605094Y-121850000D01*
X98509856Y-121802380D01*
X97747951Y-122802380D02*
X97747951Y-121802380D01*
X97176523Y-122802380D02*
X97605094Y-122230952D01*
X97176523Y-121802380D02*
X97747951Y-122373809D01*
%TO.C,R5*%
X149866999Y-99302380D02*
X150200332Y-98826190D01*
X150438428Y-99302380D02*
X150438428Y-98302380D01*
X150057475Y-98302380D01*
X149962237Y-98350000D01*
X149914618Y-98397619D01*
X149866999Y-98492857D01*
X149866999Y-98635714D01*
X149914618Y-98730952D01*
X149962237Y-98778571D01*
X150057475Y-98826190D01*
X150438428Y-98826190D01*
X149676523Y-99397619D02*
X148914618Y-99397619D01*
X148200332Y-99302380D02*
X148676523Y-99302380D01*
X148676523Y-98302380D01*
X147866999Y-98778571D02*
X147533666Y-98778571D01*
X147390808Y-99302380D02*
X147866999Y-99302380D01*
X147866999Y-98302380D01*
X147390808Y-98302380D01*
X146962237Y-99302380D02*
X146962237Y-98302380D01*
X146724142Y-98302380D01*
X146581285Y-98350000D01*
X146486047Y-98445238D01*
X146438428Y-98540476D01*
X146390808Y-98730952D01*
X146390808Y-98873809D01*
X146438428Y-99064285D01*
X146486047Y-99159523D01*
X146581285Y-99254761D01*
X146724142Y-99302380D01*
X146962237Y-99302380D01*
%TO.C,C4*%
X139557475Y-116852380D02*
X140128904Y-116852380D01*
X139843189Y-116852380D02*
X139843189Y-115852380D01*
X139938428Y-115995238D01*
X140033666Y-116090476D01*
X140128904Y-116138095D01*
X138938428Y-115852380D02*
X138843189Y-115852380D01*
X138747951Y-115900000D01*
X138700332Y-115947619D01*
X138652713Y-116042857D01*
X138605094Y-116233333D01*
X138605094Y-116471428D01*
X138652713Y-116661904D01*
X138700332Y-116757142D01*
X138747951Y-116804761D01*
X138843189Y-116852380D01*
X138938428Y-116852380D01*
X139033666Y-116804761D01*
X139081285Y-116757142D01*
X139128904Y-116661904D01*
X139176523Y-116471428D01*
X139176523Y-116233333D01*
X139128904Y-116042857D01*
X139081285Y-115947619D01*
X139033666Y-115900000D01*
X138938428Y-115852380D01*
X137986047Y-115852380D02*
X137890808Y-115852380D01*
X137795570Y-115900000D01*
X137747951Y-115947619D01*
X137700332Y-116042857D01*
X137652713Y-116233333D01*
X137652713Y-116471428D01*
X137700332Y-116661904D01*
X137747951Y-116757142D01*
X137795570Y-116804761D01*
X137890808Y-116852380D01*
X137986047Y-116852380D01*
X138081285Y-116804761D01*
X138128904Y-116757142D01*
X138176523Y-116661904D01*
X138224142Y-116471428D01*
X138224142Y-116233333D01*
X138176523Y-116042857D01*
X138128904Y-115947619D01*
X138081285Y-115900000D01*
X137986047Y-115852380D01*
X137224142Y-116185714D02*
X137224142Y-116852380D01*
X137224142Y-116280952D02*
X137176523Y-116233333D01*
X137081285Y-116185714D01*
X136938428Y-116185714D01*
X136843189Y-116233333D01*
X136795570Y-116328571D01*
X136795570Y-116852380D01*
%TO.C,R7*%
X149866999Y-95302380D02*
X150200332Y-94826190D01*
X150438428Y-95302380D02*
X150438428Y-94302380D01*
X150057475Y-94302380D01*
X149962237Y-94350000D01*
X149914618Y-94397619D01*
X149866999Y-94492857D01*
X149866999Y-94635714D01*
X149914618Y-94730952D01*
X149962237Y-94778571D01*
X150057475Y-94826190D01*
X150438428Y-94826190D01*
X149676523Y-95397619D02*
X148914618Y-95397619D01*
X148200332Y-95302380D02*
X148676523Y-95302380D01*
X148676523Y-94302380D01*
X147866999Y-94778571D02*
X147533666Y-94778571D01*
X147390808Y-95302380D02*
X147866999Y-95302380D01*
X147866999Y-94302380D01*
X147390808Y-94302380D01*
X146962237Y-95302380D02*
X146962237Y-94302380D01*
X146724142Y-94302380D01*
X146581285Y-94350000D01*
X146486047Y-94445238D01*
X146438428Y-94540476D01*
X146390808Y-94730952D01*
X146390808Y-94873809D01*
X146438428Y-95064285D01*
X146486047Y-95159523D01*
X146581285Y-95254761D01*
X146724142Y-95302380D01*
X146962237Y-95302380D01*
%TO.C,R3*%
X162769181Y-151419385D02*
X162769181Y-150847956D01*
X162769181Y-151133671D02*
X161769181Y-151133671D01*
X161912039Y-151038432D01*
X162007277Y-150943194D01*
X162054896Y-150847956D01*
X161769181Y-152038432D02*
X161769181Y-152133671D01*
X161816801Y-152228909D01*
X161864420Y-152276528D01*
X161959658Y-152324147D01*
X162150134Y-152371766D01*
X162388229Y-152371766D01*
X162578705Y-152324147D01*
X162673943Y-152276528D01*
X162721562Y-152228909D01*
X162769181Y-152133671D01*
X162769181Y-152038432D01*
X162721562Y-151943194D01*
X162673943Y-151895575D01*
X162578705Y-151847956D01*
X162388229Y-151800337D01*
X162150134Y-151800337D01*
X161959658Y-151847956D01*
X161864420Y-151895575D01*
X161816801Y-151943194D01*
X161769181Y-152038432D01*
X161769181Y-152990813D02*
X161769181Y-153086052D01*
X161816801Y-153181290D01*
X161864420Y-153228909D01*
X161959658Y-153276528D01*
X162150134Y-153324147D01*
X162388229Y-153324147D01*
X162578705Y-153276528D01*
X162673943Y-153228909D01*
X162721562Y-153181290D01*
X162769181Y-153086052D01*
X162769181Y-152990813D01*
X162721562Y-152895575D01*
X162673943Y-152847956D01*
X162578705Y-152800337D01*
X162388229Y-152752718D01*
X162150134Y-152752718D01*
X161959658Y-152800337D01*
X161864420Y-152847956D01*
X161816801Y-152895575D01*
X161769181Y-152990813D01*
X162769181Y-153752718D02*
X161769181Y-153752718D01*
X162769181Y-154324147D02*
X162197753Y-153895575D01*
X161769181Y-154324147D02*
X162340610Y-153752718D01*
%TO.C,R15*%
X156366999Y-99302380D02*
X156700332Y-98826190D01*
X156938428Y-99302380D02*
X156938428Y-98302380D01*
X156557475Y-98302380D01*
X156462237Y-98350000D01*
X156414618Y-98397619D01*
X156366999Y-98492857D01*
X156366999Y-98635714D01*
X156414618Y-98730952D01*
X156462237Y-98778571D01*
X156557475Y-98826190D01*
X156938428Y-98826190D01*
X156176523Y-99397619D02*
X155414618Y-99397619D01*
X154700332Y-99302380D02*
X155176523Y-99302380D01*
X155176523Y-98302380D01*
X154366999Y-98778571D02*
X154033666Y-98778571D01*
X153890808Y-99302380D02*
X154366999Y-99302380D01*
X154366999Y-98302380D01*
X153890808Y-98302380D01*
X153462237Y-99302380D02*
X153462237Y-98302380D01*
X153224142Y-98302380D01*
X153081285Y-98350000D01*
X152986047Y-98445238D01*
X152938428Y-98540476D01*
X152890808Y-98730952D01*
X152890808Y-98873809D01*
X152938428Y-99064285D01*
X152986047Y-99159523D01*
X153081285Y-99254761D01*
X153224142Y-99302380D01*
X153462237Y-99302380D01*
%TO.C,R6*%
X154228904Y-121352380D02*
X154800332Y-121352380D01*
X154514618Y-121352380D02*
X154514618Y-120352380D01*
X154609856Y-120495238D01*
X154705094Y-120590476D01*
X154800332Y-120638095D01*
X153609856Y-120352380D02*
X153514618Y-120352380D01*
X153419380Y-120400000D01*
X153371761Y-120447619D01*
X153324142Y-120542857D01*
X153276523Y-120733333D01*
X153276523Y-120971428D01*
X153324142Y-121161904D01*
X153371761Y-121257142D01*
X153419380Y-121304761D01*
X153514618Y-121352380D01*
X153609856Y-121352380D01*
X153705094Y-121304761D01*
X153752713Y-121257142D01*
X153800332Y-121161904D01*
X153847951Y-120971428D01*
X153847951Y-120733333D01*
X153800332Y-120542857D01*
X153752713Y-120447619D01*
X153705094Y-120400000D01*
X153609856Y-120352380D01*
X152847951Y-121352380D02*
X152847951Y-120352380D01*
X152276523Y-121352380D02*
X152705094Y-120780952D01*
X152276523Y-120352380D02*
X152847951Y-120923809D01*
%TO.C,C19*%
X108386047Y-163285714D02*
X108338428Y-163333333D01*
X108290808Y-163428571D01*
X108290808Y-163666666D01*
X108338428Y-163761904D01*
X108386047Y-163809523D01*
X108481285Y-163857142D01*
X108576523Y-163857142D01*
X108719380Y-163809523D01*
X109290808Y-163238095D01*
X109290808Y-163857142D01*
X108386047Y-164238095D02*
X108338428Y-164285714D01*
X108290808Y-164380952D01*
X108290808Y-164619047D01*
X108338428Y-164714285D01*
X108386047Y-164761904D01*
X108481285Y-164809523D01*
X108576523Y-164809523D01*
X108719380Y-164761904D01*
X109290808Y-164190476D01*
X109290808Y-164809523D01*
X108624142Y-165238095D02*
X109290808Y-165238095D01*
X108719380Y-165238095D02*
X108671761Y-165285714D01*
X108624142Y-165380952D01*
X108624142Y-165523809D01*
X108671761Y-165619047D01*
X108766999Y-165666666D01*
X109290808Y-165666666D01*
%TO.C,U5*%
X122011999Y-103373333D02*
X122011999Y-103706666D01*
X122535808Y-103849523D02*
X122535808Y-103373333D01*
X121535808Y-103373333D01*
X121535808Y-103849523D01*
X122488189Y-104230476D02*
X122535808Y-104373333D01*
X122535808Y-104611428D01*
X122488189Y-104706666D01*
X122440570Y-104754285D01*
X122345332Y-104801904D01*
X122250094Y-104801904D01*
X122154856Y-104754285D01*
X122107237Y-104706666D01*
X122059618Y-104611428D01*
X122011999Y-104420952D01*
X121964380Y-104325714D01*
X121916761Y-104278095D01*
X121821523Y-104230476D01*
X121726285Y-104230476D01*
X121631047Y-104278095D01*
X121583428Y-104325714D01*
X121535808Y-104420952D01*
X121535808Y-104659047D01*
X121583428Y-104801904D01*
X122535808Y-105230476D02*
X121535808Y-105230476D01*
X121535808Y-105611428D01*
X121583428Y-105706666D01*
X121631047Y-105754285D01*
X121726285Y-105801904D01*
X121869142Y-105801904D01*
X121964380Y-105754285D01*
X122011999Y-105706666D01*
X122059618Y-105611428D01*
X122059618Y-105230476D01*
X121535808Y-106135238D02*
X121535808Y-106754285D01*
X121916761Y-106420952D01*
X121916761Y-106563809D01*
X121964380Y-106659047D01*
X122011999Y-106706666D01*
X122107237Y-106754285D01*
X122345332Y-106754285D01*
X122440570Y-106706666D01*
X122488189Y-106659047D01*
X122535808Y-106563809D01*
X122535808Y-106278095D01*
X122488189Y-106182857D01*
X122440570Y-106135238D01*
X121631047Y-107135238D02*
X121583428Y-107182857D01*
X121535808Y-107278095D01*
X121535808Y-107516190D01*
X121583428Y-107611428D01*
X121631047Y-107659047D01*
X121726285Y-107706666D01*
X121821523Y-107706666D01*
X121964380Y-107659047D01*
X122535808Y-107087619D01*
X122535808Y-107706666D01*
X122154856Y-108135238D02*
X122154856Y-108897142D01*
X122488189Y-109325714D02*
X122535808Y-109468571D01*
X122535808Y-109706666D01*
X122488189Y-109801904D01*
X122440570Y-109849523D01*
X122345332Y-109897142D01*
X122250094Y-109897142D01*
X122154856Y-109849523D01*
X122107237Y-109801904D01*
X122059618Y-109706666D01*
X122011999Y-109516190D01*
X121964380Y-109420952D01*
X121916761Y-109373333D01*
X121821523Y-109325714D01*
X121726285Y-109325714D01*
X121631047Y-109373333D01*
X121583428Y-109420952D01*
X121535808Y-109516190D01*
X121535808Y-109754285D01*
X121583428Y-109897142D01*
X121631047Y-110278095D02*
X121583428Y-110325714D01*
X121535808Y-110420952D01*
X121535808Y-110659047D01*
X121583428Y-110754285D01*
X121631047Y-110801904D01*
X121726285Y-110849523D01*
X121821523Y-110849523D01*
X121964380Y-110801904D01*
X122535808Y-110230476D01*
X122535808Y-110849523D01*
X122154856Y-111278095D02*
X122154856Y-112040000D01*
X121535808Y-112420952D02*
X122535808Y-112659047D01*
X121821523Y-112849523D01*
X122535808Y-113040000D01*
X121535808Y-113278095D01*
X122535808Y-114230476D02*
X122059618Y-113897142D01*
X122535808Y-113659047D02*
X121535808Y-113659047D01*
X121535808Y-114040000D01*
X121583428Y-114135238D01*
X121631047Y-114182857D01*
X121726285Y-114230476D01*
X121869142Y-114230476D01*
X121964380Y-114182857D01*
X122011999Y-114135238D01*
X122059618Y-114040000D01*
X122059618Y-113659047D01*
X121535808Y-114849523D02*
X121535808Y-115040000D01*
X121583428Y-115135238D01*
X121678666Y-115230476D01*
X121869142Y-115278095D01*
X122202475Y-115278095D01*
X122392951Y-115230476D01*
X122488189Y-115135238D01*
X122535808Y-115040000D01*
X122535808Y-114849523D01*
X122488189Y-114754285D01*
X122392951Y-114659047D01*
X122202475Y-114611428D01*
X121869142Y-114611428D01*
X121678666Y-114659047D01*
X121583428Y-114754285D01*
X121535808Y-114849523D01*
X121535808Y-115563809D02*
X122535808Y-115897142D01*
X121535808Y-116230476D01*
X122011999Y-116563809D02*
X122011999Y-116897142D01*
X122535808Y-117040000D02*
X122535808Y-116563809D01*
X121535808Y-116563809D01*
X121535808Y-117040000D01*
X122535808Y-118040000D02*
X122059618Y-117706666D01*
X122535808Y-117468571D02*
X121535808Y-117468571D01*
X121535808Y-117849523D01*
X121583428Y-117944761D01*
X121631047Y-117992380D01*
X121726285Y-118040000D01*
X121869142Y-118040000D01*
X121964380Y-117992380D01*
X122011999Y-117944761D01*
X122059618Y-117849523D01*
X122059618Y-117468571D01*
X122154856Y-118468571D02*
X122154856Y-119230476D01*
X122535808Y-119706666D02*
X121535808Y-119706666D01*
%TO.C,C2*%
X166465585Y-147639586D02*
X167037014Y-147639586D01*
X166751299Y-147639586D02*
X166751299Y-146639586D01*
X166846537Y-146782444D01*
X166941776Y-146877682D01*
X167037014Y-146925301D01*
X165846537Y-146639586D02*
X165751299Y-146639586D01*
X165656061Y-146687206D01*
X165608442Y-146734825D01*
X165560823Y-146830063D01*
X165513204Y-147020539D01*
X165513204Y-147258634D01*
X165560823Y-147449110D01*
X165608442Y-147544348D01*
X165656061Y-147591967D01*
X165751299Y-147639586D01*
X165846537Y-147639586D01*
X165941776Y-147591967D01*
X165989395Y-147544348D01*
X166037014Y-147449110D01*
X166084633Y-147258634D01*
X166084633Y-147020539D01*
X166037014Y-146830063D01*
X165989395Y-146734825D01*
X165941776Y-146687206D01*
X165846537Y-146639586D01*
X164656061Y-146972920D02*
X164656061Y-147639586D01*
X165084633Y-146972920D02*
X165084633Y-147496729D01*
X165037014Y-147591967D01*
X164941776Y-147639586D01*
X164798918Y-147639586D01*
X164703680Y-147591967D01*
X164656061Y-147544348D01*
X163846537Y-147115777D02*
X164179871Y-147115777D01*
X164179871Y-147639586D02*
X164179871Y-146639586D01*
X163703680Y-146639586D01*
%TO.C,O1*%
X133224142Y-73452380D02*
X133795570Y-73452380D01*
X133509856Y-73452380D02*
X133509856Y-72452380D01*
X133605094Y-72595238D01*
X133700332Y-72690476D01*
X133795570Y-72738095D01*
X132843189Y-72547619D02*
X132795570Y-72500000D01*
X132700332Y-72452380D01*
X132462237Y-72452380D01*
X132366999Y-72500000D01*
X132319380Y-72547619D01*
X132271761Y-72642857D01*
X132271761Y-72738095D01*
X132319380Y-72880952D01*
X132890808Y-73452380D01*
X132271761Y-73452380D01*
X131700332Y-72880952D02*
X131795570Y-72833333D01*
X131843189Y-72785714D01*
X131890808Y-72690476D01*
X131890808Y-72642857D01*
X131843189Y-72547619D01*
X131795570Y-72500000D01*
X131700332Y-72452380D01*
X131509856Y-72452380D01*
X131414618Y-72500000D01*
X131366999Y-72547619D01*
X131319380Y-72642857D01*
X131319380Y-72690476D01*
X131366999Y-72785714D01*
X131414618Y-72833333D01*
X131509856Y-72880952D01*
X131700332Y-72880952D01*
X131795570Y-72928571D01*
X131843189Y-72976190D01*
X131890808Y-73071428D01*
X131890808Y-73261904D01*
X131843189Y-73357142D01*
X131795570Y-73404761D01*
X131700332Y-73452380D01*
X131509856Y-73452380D01*
X131414618Y-73404761D01*
X131366999Y-73357142D01*
X131319380Y-73261904D01*
X131319380Y-73071428D01*
X131366999Y-72976190D01*
X131414618Y-72928571D01*
X131509856Y-72880952D01*
X130986047Y-73452380D02*
X130462237Y-72785714D01*
X130986047Y-72785714D02*
X130462237Y-73452380D01*
X129652713Y-72452380D02*
X129843189Y-72452380D01*
X129938428Y-72500000D01*
X129986047Y-72547619D01*
X130081285Y-72690476D01*
X130128904Y-72880952D01*
X130128904Y-73261904D01*
X130081285Y-73357142D01*
X130033666Y-73404761D01*
X129938428Y-73452380D01*
X129747951Y-73452380D01*
X129652713Y-73404761D01*
X129605094Y-73357142D01*
X129557475Y-73261904D01*
X129557475Y-73023809D01*
X129605094Y-72928571D01*
X129652713Y-72880952D01*
X129747951Y-72833333D01*
X129938428Y-72833333D01*
X130033666Y-72880952D01*
X130081285Y-72928571D01*
X130128904Y-73023809D01*
X128700332Y-72785714D02*
X128700332Y-73452380D01*
X128938428Y-72404761D02*
X129176523Y-73119047D01*
X128557475Y-73119047D01*
X128414618Y-73547619D02*
X127652713Y-73547619D01*
X127224142Y-72452380D02*
X127033666Y-72452380D01*
X126938428Y-72500000D01*
X126843189Y-72595238D01*
X126795570Y-72785714D01*
X126795570Y-73119047D01*
X126843189Y-73309523D01*
X126938428Y-73404761D01*
X127033666Y-73452380D01*
X127224142Y-73452380D01*
X127319380Y-73404761D01*
X127414618Y-73309523D01*
X127462237Y-73119047D01*
X127462237Y-72785714D01*
X127414618Y-72595238D01*
X127319380Y-72500000D01*
X127224142Y-72452380D01*
X125890808Y-73452380D02*
X126366999Y-73452380D01*
X126366999Y-72452380D01*
X125557475Y-72928571D02*
X125224142Y-72928571D01*
X125081285Y-73452380D02*
X125557475Y-73452380D01*
X125557475Y-72452380D01*
X125081285Y-72452380D01*
X124652713Y-73452380D02*
X124652713Y-72452380D01*
X124414618Y-72452380D01*
X124271761Y-72500000D01*
X124176523Y-72595238D01*
X124128904Y-72690476D01*
X124081285Y-72880952D01*
X124081285Y-73023809D01*
X124128904Y-73214285D01*
X124176523Y-73309523D01*
X124271761Y-73404761D01*
X124414618Y-73452380D01*
X124652713Y-73452380D01*
%TO.C,C3*%
X153040808Y-149928571D02*
X153040808Y-149357142D01*
X153040808Y-149642857D02*
X152040808Y-149642857D01*
X152183666Y-149547619D01*
X152278904Y-149452380D01*
X152326523Y-149357142D01*
X152040808Y-150547619D02*
X152040808Y-150642857D01*
X152088428Y-150738095D01*
X152136047Y-150785714D01*
X152231285Y-150833333D01*
X152421761Y-150880952D01*
X152659856Y-150880952D01*
X152850332Y-150833333D01*
X152945570Y-150785714D01*
X152993189Y-150738095D01*
X153040808Y-150642857D01*
X153040808Y-150547619D01*
X152993189Y-150452380D01*
X152945570Y-150404761D01*
X152850332Y-150357142D01*
X152659856Y-150309523D01*
X152421761Y-150309523D01*
X152231285Y-150357142D01*
X152136047Y-150404761D01*
X152088428Y-150452380D01*
X152040808Y-150547619D01*
X152374142Y-151738095D02*
X153040808Y-151738095D01*
X152374142Y-151309523D02*
X152897951Y-151309523D01*
X152993189Y-151357142D01*
X153040808Y-151452380D01*
X153040808Y-151595238D01*
X152993189Y-151690476D01*
X152945570Y-151738095D01*
X152516999Y-152547619D02*
X152516999Y-152214285D01*
X153040808Y-152214285D02*
X152040808Y-152214285D01*
X152040808Y-152690476D01*
%TO.C,U2*%
X153990808Y-155880952D02*
X153990808Y-156452380D01*
X154990808Y-156166666D02*
X153990808Y-156166666D01*
X154990808Y-157261904D02*
X154990808Y-156785714D01*
X153990808Y-156785714D01*
X153990808Y-157785714D02*
X153990808Y-157880952D01*
X154038428Y-157976190D01*
X154086047Y-158023809D01*
X154181285Y-158071428D01*
X154371761Y-158119047D01*
X154609856Y-158119047D01*
X154800332Y-158071428D01*
X154895570Y-158023809D01*
X154943189Y-157976190D01*
X154990808Y-157880952D01*
X154990808Y-157785714D01*
X154943189Y-157690476D01*
X154895570Y-157642857D01*
X154800332Y-157595238D01*
X154609856Y-157547619D01*
X154371761Y-157547619D01*
X154181285Y-157595238D01*
X154086047Y-157642857D01*
X154038428Y-157690476D01*
X153990808Y-157785714D01*
X153990808Y-158452380D02*
X153990808Y-159119047D01*
X154990808Y-158690476D01*
X154990808Y-160023809D02*
X154990808Y-159452380D01*
X154990808Y-159738095D02*
X153990808Y-159738095D01*
X154133666Y-159642857D01*
X154228904Y-159547619D01*
X154276523Y-159452380D01*
%TO.C,C20*%
X158210808Y-149880952D02*
X158210808Y-149309523D01*
X158210808Y-149595238D02*
X157210808Y-149595238D01*
X157353666Y-149500000D01*
X157448904Y-149404761D01*
X157496523Y-149309523D01*
X157210808Y-150500000D02*
X157210808Y-150595238D01*
X157258428Y-150690476D01*
X157306047Y-150738095D01*
X157401285Y-150785714D01*
X157591761Y-150833333D01*
X157829856Y-150833333D01*
X158020332Y-150785714D01*
X158115570Y-150738095D01*
X158163189Y-150690476D01*
X158210808Y-150595238D01*
X158210808Y-150500000D01*
X158163189Y-150404761D01*
X158115570Y-150357142D01*
X158020332Y-150309523D01*
X157829856Y-150261904D01*
X157591761Y-150261904D01*
X157401285Y-150309523D01*
X157306047Y-150357142D01*
X157258428Y-150404761D01*
X157210808Y-150500000D01*
X157210808Y-151452380D02*
X157210808Y-151547619D01*
X157258428Y-151642857D01*
X157306047Y-151690476D01*
X157401285Y-151738095D01*
X157591761Y-151785714D01*
X157829856Y-151785714D01*
X158020332Y-151738095D01*
X158115570Y-151690476D01*
X158163189Y-151642857D01*
X158210808Y-151547619D01*
X158210808Y-151452380D01*
X158163189Y-151357142D01*
X158115570Y-151309523D01*
X158020332Y-151261904D01*
X157829856Y-151214285D01*
X157591761Y-151214285D01*
X157401285Y-151261904D01*
X157306047Y-151309523D01*
X157258428Y-151357142D01*
X157210808Y-151452380D01*
X157544142Y-152214285D02*
X158210808Y-152214285D01*
X157639380Y-152214285D02*
X157591761Y-152261904D01*
X157544142Y-152357142D01*
X157544142Y-152500000D01*
X157591761Y-152595238D01*
X157686999Y-152642857D01*
X158210808Y-152642857D01*
%TO.C,C12*%
X104557475Y-122852380D02*
X105128904Y-122852380D01*
X104843189Y-122852380D02*
X104843189Y-121852380D01*
X104938427Y-121995238D01*
X105033666Y-122090476D01*
X105128904Y-122138095D01*
X103938427Y-121852380D02*
X103843189Y-121852380D01*
X103747951Y-121900000D01*
X103700332Y-121947619D01*
X103652713Y-122042857D01*
X103605094Y-122233333D01*
X103605094Y-122471428D01*
X103652713Y-122661904D01*
X103700332Y-122757142D01*
X103747951Y-122804761D01*
X103843189Y-122852380D01*
X103938427Y-122852380D01*
X104033666Y-122804761D01*
X104081285Y-122757142D01*
X104128904Y-122661904D01*
X104176523Y-122471428D01*
X104176523Y-122233333D01*
X104128904Y-122042857D01*
X104081285Y-121947619D01*
X104033666Y-121900000D01*
X103938427Y-121852380D01*
X102986047Y-121852380D02*
X102890808Y-121852380D01*
X102795570Y-121900000D01*
X102747951Y-121947619D01*
X102700332Y-122042857D01*
X102652713Y-122233333D01*
X102652713Y-122471428D01*
X102700332Y-122661904D01*
X102747951Y-122757142D01*
X102795570Y-122804761D01*
X102890808Y-122852380D01*
X102986047Y-122852380D01*
X103081285Y-122804761D01*
X103128904Y-122757142D01*
X103176523Y-122661904D01*
X103224142Y-122471428D01*
X103224142Y-122233333D01*
X103176523Y-122042857D01*
X103128904Y-121947619D01*
X103081285Y-121900000D01*
X102986047Y-121852380D01*
X102224142Y-122185714D02*
X102224142Y-122852380D01*
X102224142Y-122280952D02*
X102176523Y-122233333D01*
X102081285Y-122185714D01*
X101938427Y-122185714D01*
X101843189Y-122233333D01*
X101795570Y-122328571D01*
X101795570Y-122852380D01*
%TO.C,U8*%
X109866999Y-135452380D02*
X109676523Y-135452380D01*
X109581285Y-135500000D01*
X109486047Y-135595238D01*
X109438428Y-135785714D01*
X109438428Y-136119047D01*
X109486047Y-136309523D01*
X109581285Y-136404761D01*
X109676523Y-136452380D01*
X109866999Y-136452380D01*
X109962237Y-136404761D01*
X110057475Y-136309523D01*
X110105094Y-136119047D01*
X110105094Y-135785714D01*
X110057475Y-135595238D01*
X109962237Y-135500000D01*
X109866999Y-135452380D01*
X108581285Y-135785714D02*
X108581285Y-136452380D01*
X109009856Y-135785714D02*
X109009856Y-136309523D01*
X108962237Y-136404761D01*
X108866999Y-136452380D01*
X108724142Y-136452380D01*
X108628904Y-136404761D01*
X108581285Y-136357142D01*
X108247951Y-135785714D02*
X107866999Y-135785714D01*
X108105094Y-135452380D02*
X108105094Y-136309523D01*
X108057475Y-136404761D01*
X107962237Y-136452380D01*
X107866999Y-136452380D01*
X107533666Y-135785714D02*
X107533666Y-136785714D01*
X107533666Y-135833333D02*
X107438428Y-135785714D01*
X107247951Y-135785714D01*
X107152713Y-135833333D01*
X107105094Y-135880952D01*
X107057475Y-135976190D01*
X107057475Y-136261904D01*
X107105094Y-136357142D01*
X107152713Y-136404761D01*
X107247951Y-136452380D01*
X107438428Y-136452380D01*
X107533666Y-136404761D01*
X106200332Y-135785714D02*
X106200332Y-136452380D01*
X106628904Y-135785714D02*
X106628904Y-136309523D01*
X106581285Y-136404761D01*
X106486047Y-136452380D01*
X106343189Y-136452380D01*
X106247951Y-136404761D01*
X106200332Y-136357142D01*
X105866999Y-135785714D02*
X105486047Y-135785714D01*
X105724142Y-135452380D02*
X105724142Y-136309523D01*
X105676523Y-136404761D01*
X105581285Y-136452380D01*
X105486047Y-136452380D01*
X105390808Y-136547619D02*
X104628904Y-136547619D01*
X104390808Y-135785714D02*
X104390808Y-136642857D01*
X104438428Y-136738095D01*
X104533666Y-136785714D01*
X104581285Y-136785714D01*
X104390808Y-135452380D02*
X104438428Y-135500000D01*
X104390808Y-135547619D01*
X104343189Y-135500000D01*
X104390808Y-135452380D01*
X104390808Y-135547619D01*
X103486047Y-136452380D02*
X103486047Y-135928571D01*
X103533666Y-135833333D01*
X103628904Y-135785714D01*
X103819380Y-135785714D01*
X103914618Y-135833333D01*
X103486047Y-136404761D02*
X103581285Y-136452380D01*
X103819380Y-136452380D01*
X103914618Y-136404761D01*
X103962237Y-136309523D01*
X103962237Y-136214285D01*
X103914618Y-136119047D01*
X103819380Y-136071428D01*
X103581285Y-136071428D01*
X103486047Y-136023809D01*
X102581285Y-136404761D02*
X102676523Y-136452380D01*
X102866999Y-136452380D01*
X102962237Y-136404761D01*
X103009856Y-136357142D01*
X103057475Y-136261904D01*
X103057475Y-135976190D01*
X103009856Y-135880952D01*
X102962237Y-135833333D01*
X102866999Y-135785714D01*
X102676523Y-135785714D01*
X102581285Y-135833333D01*
X102152713Y-136452380D02*
X102152713Y-135452380D01*
X102057475Y-136071428D02*
X101771761Y-136452380D01*
X101771761Y-135785714D02*
X102152713Y-136166666D01*
X116538369Y-130278892D02*
X116395512Y-130326511D01*
X116157417Y-130326511D01*
X116062178Y-130278892D01*
X116014559Y-130231273D01*
X115966940Y-130136035D01*
X115966940Y-130040797D01*
X116014559Y-129945559D01*
X116062178Y-129897940D01*
X116157417Y-129850321D01*
X116347893Y-129802702D01*
X116443131Y-129755083D01*
X116490750Y-129707464D01*
X116538369Y-129612226D01*
X116538369Y-129516988D01*
X116490750Y-129421750D01*
X116443131Y-129374131D01*
X116347893Y-129326511D01*
X116109797Y-129326511D01*
X115966940Y-129374131D01*
X115538369Y-130326511D02*
X115538369Y-129326511D01*
X114538369Y-129374131D02*
X114633607Y-129326511D01*
X114776464Y-129326511D01*
X114919321Y-129374131D01*
X115014559Y-129469369D01*
X115062178Y-129564607D01*
X115109797Y-129755083D01*
X115109797Y-129897940D01*
X115062178Y-130088416D01*
X115014559Y-130183654D01*
X114919321Y-130278892D01*
X114776464Y-130326511D01*
X114681226Y-130326511D01*
X114538369Y-130278892D01*
X114490750Y-130231273D01*
X114490750Y-129897940D01*
X114681226Y-129897940D01*
X114062178Y-130326511D02*
X114062178Y-129326511D01*
X113490750Y-130326511D01*
X113490750Y-129326511D01*
X113062178Y-130040797D02*
X112585988Y-130040797D01*
X113157417Y-130326511D02*
X112824083Y-129326511D01*
X112490750Y-130326511D01*
X111681226Y-130326511D02*
X112157417Y-130326511D01*
X112157417Y-129326511D01*
X116768600Y-142404761D02*
X116625743Y-142452380D01*
X116387648Y-142452380D01*
X116292409Y-142404761D01*
X116244790Y-142357142D01*
X116197171Y-142261904D01*
X116197171Y-142166666D01*
X116244790Y-142071428D01*
X116292409Y-142023809D01*
X116387648Y-141976190D01*
X116578124Y-141928571D01*
X116673362Y-141880952D01*
X116720981Y-141833333D01*
X116768600Y-141738095D01*
X116768600Y-141642857D01*
X116720981Y-141547619D01*
X116673362Y-141500000D01*
X116578124Y-141452380D01*
X116340028Y-141452380D01*
X116197171Y-141500000D01*
X115768600Y-142452380D02*
X115768600Y-141452380D01*
X114768600Y-141500000D02*
X114863838Y-141452380D01*
X115006695Y-141452380D01*
X115149552Y-141500000D01*
X115244790Y-141595238D01*
X115292409Y-141690476D01*
X115340028Y-141880952D01*
X115340028Y-142023809D01*
X115292409Y-142214285D01*
X115244790Y-142309523D01*
X115149552Y-142404761D01*
X115006695Y-142452380D01*
X114911457Y-142452380D01*
X114768600Y-142404761D01*
X114720981Y-142357142D01*
X114720981Y-142023809D01*
X114911457Y-142023809D01*
X114292409Y-142452380D02*
X114292409Y-141452380D01*
X113720981Y-142452380D01*
X113720981Y-141452380D01*
X113292409Y-142166666D02*
X112816219Y-142166666D01*
X113387648Y-142452380D02*
X113054314Y-141452380D01*
X112720981Y-142452380D01*
X111911457Y-142452380D02*
X112387648Y-142452380D01*
X112387648Y-141452380D01*
X102486824Y-141576396D02*
X102582062Y-141528776D01*
X102724920Y-141528776D01*
X102867777Y-141576396D01*
X102963015Y-141671634D01*
X103010634Y-141766872D01*
X103058253Y-141957348D01*
X103058253Y-142100205D01*
X103010634Y-142290681D01*
X102963015Y-142385919D01*
X102867777Y-142481157D01*
X102724920Y-142528776D01*
X102629681Y-142528776D01*
X102486824Y-142481157D01*
X102439205Y-142433538D01*
X102439205Y-142100205D01*
X102629681Y-142100205D01*
X102010634Y-142528776D02*
X102010634Y-141528776D01*
X101439205Y-142528776D01*
X101439205Y-141528776D01*
X100963015Y-142528776D02*
X100963015Y-141528776D01*
X100724920Y-141528776D01*
X100582062Y-141576396D01*
X100486824Y-141671634D01*
X100439205Y-141766872D01*
X100391586Y-141957348D01*
X100391586Y-142100205D01*
X100439205Y-142290681D01*
X100486824Y-142385919D01*
X100582062Y-142481157D01*
X100724920Y-142528776D01*
X100963015Y-142528776D01*
X102371708Y-129287794D02*
X102466946Y-129240174D01*
X102609804Y-129240174D01*
X102752661Y-129287794D01*
X102847899Y-129383032D01*
X102895518Y-129478270D01*
X102943137Y-129668746D01*
X102943137Y-129811603D01*
X102895518Y-130002079D01*
X102847899Y-130097317D01*
X102752661Y-130192555D01*
X102609804Y-130240174D01*
X102514565Y-130240174D01*
X102371708Y-130192555D01*
X102324089Y-130144936D01*
X102324089Y-129811603D01*
X102514565Y-129811603D01*
X101895518Y-130240174D02*
X101895518Y-129240174D01*
X101324089Y-130240174D01*
X101324089Y-129240174D01*
X100847899Y-130240174D02*
X100847899Y-129240174D01*
X100609804Y-129240174D01*
X100466946Y-129287794D01*
X100371708Y-129383032D01*
X100324089Y-129478270D01*
X100276470Y-129668746D01*
X100276470Y-129811603D01*
X100324089Y-130002079D01*
X100371708Y-130097317D01*
X100466946Y-130192555D01*
X100609804Y-130240174D01*
X100847899Y-130240174D01*
D13*
%TO.C,SW4*%
X138938428Y-166500000D02*
X118938428Y-166500000D01*
X118938428Y-166500000D02*
X118938428Y-146500000D01*
X118938428Y-146500000D02*
X138938428Y-146500000D01*
X138938428Y-146500000D02*
X138938428Y-166500000D01*
%TO.C,R2*%
X163203428Y-161772936D02*
X163203428Y-162227064D01*
X164673428Y-161772936D02*
X164673428Y-162227064D01*
%TO.C,R4*%
X164673428Y-157227064D02*
X164673428Y-156772936D01*
X163203428Y-157227064D02*
X163203428Y-156772936D01*
%TO.C,R12*%
X155165492Y-110765000D02*
X154711364Y-110765000D01*
X155165492Y-112235000D02*
X154711364Y-112235000D01*
%TO.C,U7*%
X101053428Y-157000000D02*
X101053428Y-154800000D01*
X107823428Y-157000000D02*
X107823428Y-154800000D01*
X101053428Y-157000000D02*
X101053428Y-159200000D01*
X107823428Y-157000000D02*
X107823428Y-160600000D01*
%TO.C,R10*%
X101703428Y-164272936D02*
X101703428Y-164727064D01*
X103173428Y-164272936D02*
X103173428Y-164727064D01*
%TO.C,C13*%
X98699680Y-98765000D02*
X98177176Y-98765000D01*
X98699680Y-100235000D02*
X98177176Y-100235000D01*
%TO.C,C11*%
X100703428Y-149761252D02*
X100703428Y-149238748D01*
X102173428Y-149761252D02*
X102173428Y-149238748D01*
%TO.C,U6*%
X145348428Y-38910000D02*
X145348428Y-37650000D01*
X139338428Y-38910000D02*
X145348428Y-38910000D01*
X141588428Y-32090000D02*
X145348428Y-32090000D01*
X145348428Y-32090000D02*
X145348428Y-33350000D01*
%TO.C,C14*%
X111673428Y-158761252D02*
X111673428Y-158238748D01*
X110203428Y-158761252D02*
X110203428Y-158238748D01*
D14*
%TO.C,U3*%
X144238428Y-114500000D02*
X148638428Y-114500000D01*
X144238428Y-119500000D02*
X148638428Y-119500000D01*
D15*
X142298428Y-119260000D02*
G75*
G03*
X142298428Y-119260000I-100000J0D01*
G01*
D13*
%TO.C,U1*%
X160438428Y-133500000D02*
X168938428Y-133500000D01*
X143585337Y-134387362D02*
X141438428Y-136000000D01*
X139438428Y-131500000D02*
X136438428Y-131500000D01*
X160438428Y-138500000D02*
X168938428Y-138500000D01*
X136438428Y-131500000D02*
X136438428Y-140500000D01*
X136438428Y-140500000D02*
X139438428Y-140500000D01*
X143585337Y-137612638D02*
X141438428Y-136000000D01*
X160438428Y-126000000D02*
X139438428Y-126000000D01*
X139438428Y-126000000D02*
X139438428Y-146000000D01*
X139438428Y-146000000D02*
X160438428Y-146000000D01*
X160438428Y-146000000D02*
X160438428Y-126000000D01*
X156938428Y-134500000D02*
X147438428Y-134500000D01*
X147438428Y-134500000D02*
X147438428Y-137500000D01*
X147438428Y-137500000D02*
X156938428Y-137500000D01*
X156938428Y-137500000D02*
X156938428Y-134500000D01*
X160438428Y-130500000D02*
X168938428Y-130500000D01*
X168938428Y-130500000D02*
X168938428Y-141500000D01*
X168938428Y-141500000D02*
X160438428Y-141500000D01*
X160438428Y-141500000D02*
X160438428Y-130500000D01*
X147438428Y-134500000D02*
X146438428Y-134500000D01*
X146438428Y-134500000D02*
X146438428Y-137500000D01*
X146438428Y-137500000D02*
X147438428Y-137500000D01*
X147438428Y-137500000D02*
X147438428Y-134500000D01*
X160438428Y-133500000D02*
X156938428Y-133500000D01*
X156938428Y-133500000D02*
X156938428Y-138500000D01*
X156938428Y-138500000D02*
X160438428Y-138500000D01*
X160438428Y-138500000D02*
X160438428Y-133500000D01*
X144438428Y-134500000D02*
G75*
G03*
X146438428Y-134500000I1000000J999999D01*
G01*
X146438428Y-137500000D02*
G75*
G03*
X144438428Y-137500000I-1000000J-999999D01*
G01*
X144438427Y-134500001D02*
G75*
G03*
X143585337Y-134387362I-499999J-499996D01*
G01*
X143585337Y-137612638D02*
G75*
G03*
X144438427Y-137499999I353090J612640D01*
G01*
%TO.C,SW2*%
X167668428Y-123230000D02*
X167668428Y-116770000D01*
X161208428Y-123230000D02*
X161208428Y-116770000D01*
X161208428Y-116770000D02*
X161238428Y-116770000D01*
X167668428Y-116770000D02*
X167638428Y-116770000D01*
X161208428Y-123230000D02*
X161238428Y-123230000D01*
X167638428Y-123230000D02*
X167668428Y-123230000D01*
X165738428Y-116770000D02*
X163138428Y-116770000D01*
X165738428Y-123230000D02*
X163138428Y-123230000D01*
%TO.C,C15*%
X96528428Y-151288748D02*
X96528428Y-152711252D01*
X98348428Y-151288748D02*
X98348428Y-152711252D01*
%TO.C,C6*%
X138177176Y-123235000D02*
X138699680Y-123235000D01*
X138177176Y-121765000D02*
X138699680Y-121765000D01*
%TO.C,C7*%
X113227176Y-29410000D02*
X114649680Y-29410000D01*
X113227176Y-27590000D02*
X114649680Y-27590000D01*
%TO.C,R9*%
X105703428Y-164272936D02*
X105703428Y-164727064D01*
X107173428Y-164272936D02*
X107173428Y-164727064D01*
%TO.C,C8*%
X111727176Y-41590000D02*
X113149680Y-41590000D01*
X111727176Y-43410000D02*
X113149680Y-43410000D01*
%TO.C,C10*%
X142702176Y-42910000D02*
X144124680Y-42910000D01*
X142702176Y-41090000D02*
X144124680Y-41090000D01*
%TO.C,R14*%
X118211364Y-90735000D02*
X118665492Y-90735000D01*
X118211364Y-89265000D02*
X118665492Y-89265000D01*
%TO.C,U4*%
X109468428Y-38680000D02*
X106638428Y-38680000D01*
X110968428Y-32050000D02*
X109468428Y-32050000D01*
X109468428Y-38950000D02*
X109468428Y-38680000D01*
X110968428Y-38950000D02*
X109468428Y-38950000D01*
X109468428Y-32050000D02*
X109468428Y-32320000D01*
X109468428Y-32320000D02*
X108368428Y-32320000D01*
%TO.C,JP1*%
X91938428Y-164625000D02*
X91938428Y-161825000D01*
X89938428Y-161825000D02*
X89938428Y-164625000D01*
X89938428Y-164625000D02*
X91938428Y-164625000D01*
X91938428Y-161825000D02*
X89938428Y-161825000D01*
%TO.C,C16*%
X98348428Y-157288748D02*
X98348428Y-158711252D01*
X96528428Y-157288748D02*
X96528428Y-158711252D01*
%TO.C,C9*%
X142727176Y-27590000D02*
X144149680Y-27590000D01*
X142727176Y-29410000D02*
X144149680Y-29410000D01*
%TO.C,C18*%
X107227176Y-150410000D02*
X108649680Y-150410000D01*
X107227176Y-148590000D02*
X108649680Y-148590000D01*
%TO.C,J2*%
X103838428Y-60400000D02*
X101938428Y-60400000D01*
X102988428Y-69800000D02*
X104038428Y-69800000D01*
X104038428Y-68750000D02*
X104038428Y-69800000D01*
X103838428Y-69600000D02*
X103838428Y-67000000D01*
X97938428Y-60400000D02*
X89138428Y-60400000D01*
X89138428Y-60400000D02*
X89138428Y-69600000D01*
X89138428Y-69600000D02*
X103838428Y-69600000D01*
X103838428Y-63100000D02*
X103838428Y-60400000D01*
%TO.C,D5*%
X153078428Y-97460000D02*
X153078428Y-95540000D01*
X155938428Y-97460000D02*
X153078428Y-97460000D01*
X153078428Y-95540000D02*
X155938428Y-95540000D01*
%TO.C,R13*%
X139211364Y-90735000D02*
X139665492Y-90735000D01*
X139211364Y-89265000D02*
X139665492Y-89265000D01*
%TO.C,C23*%
X147173428Y-71261252D02*
X147173428Y-70738748D01*
X145703428Y-71261252D02*
X145703428Y-70738748D01*
%TO.C,C5*%
X138699680Y-114735000D02*
X138177176Y-114735000D01*
X138699680Y-113265000D02*
X138177176Y-113265000D01*
%TO.C,R1*%
X160173428Y-165227064D02*
X160173428Y-164772936D01*
X158703428Y-165227064D02*
X158703428Y-164772936D01*
%TO.C,R11*%
X155165492Y-105235000D02*
X154711364Y-105235000D01*
X155165492Y-103765000D02*
X154711364Y-103765000D01*
%TO.C,C22*%
X112173428Y-71261252D02*
X112173428Y-70738748D01*
X110703428Y-71261252D02*
X110703428Y-70738748D01*
%TO.C,C1*%
X153703428Y-165261252D02*
X153703428Y-164738748D01*
X155173428Y-165261252D02*
X155173428Y-164738748D01*
%TO.C,SW1*%
X167668428Y-99230000D02*
X167668428Y-92770000D01*
X167668428Y-92770000D02*
X167638428Y-92770000D01*
X167638428Y-99230000D02*
X167668428Y-99230000D01*
X161208428Y-99230000D02*
X161238428Y-99230000D01*
X165738428Y-92770000D02*
X163138428Y-92770000D01*
X161208428Y-99230000D02*
X161208428Y-92770000D01*
X165738428Y-99230000D02*
X163138428Y-99230000D01*
X161208428Y-92770000D02*
X161238428Y-92770000D01*
%TO.C,C21*%
X144649680Y-121590000D02*
X143227176Y-121590000D01*
X144649680Y-123410000D02*
X143227176Y-123410000D01*
%TO.C,C17*%
X111673428Y-153761252D02*
X111673428Y-153238748D01*
X110203428Y-153761252D02*
X110203428Y-153238748D01*
%TO.C,R8*%
X98211364Y-124735000D02*
X98665492Y-124735000D01*
X98211364Y-123265000D02*
X98665492Y-123265000D01*
%TO.C,J1*%
X162538428Y-112700000D02*
X164538428Y-112700000D01*
X166438428Y-103300000D02*
X168338428Y-103300000D01*
X168338428Y-103300000D02*
X168338428Y-112700000D01*
X166438428Y-112700000D02*
X168338428Y-112700000D01*
X162538428Y-103300000D02*
X164538428Y-103300000D01*
%TO.C,R5*%
X148211364Y-101235000D02*
X148665492Y-101235000D01*
X148211364Y-99765000D02*
X148665492Y-99765000D01*
%TO.C,C4*%
X138699680Y-118735000D02*
X138177176Y-118735000D01*
X138699680Y-117265000D02*
X138177176Y-117265000D01*
%TO.C,R7*%
X148211364Y-97235000D02*
X148665492Y-97235000D01*
X148211364Y-95765000D02*
X148665492Y-95765000D01*
%TO.C,R3*%
X163217726Y-152358988D02*
X163217726Y-152813116D01*
X164687726Y-152358988D02*
X164687726Y-152813116D01*
%TO.C,R15*%
X154711364Y-101235000D02*
X155165492Y-101235000D01*
X154711364Y-99765000D02*
X155165492Y-99765000D01*
%TO.C,R6*%
X153665492Y-121765000D02*
X153211364Y-121765000D01*
X153665492Y-123235000D02*
X153211364Y-123235000D01*
%TO.C,C19*%
X111173428Y-164238748D02*
X111173428Y-164761252D01*
X109703428Y-164238748D02*
X109703428Y-164761252D01*
%TO.C,U5*%
X96568428Y-102390000D02*
X89488428Y-102375000D01*
X120738428Y-120620000D02*
X120738428Y-118960000D01*
X96568428Y-102390000D02*
X96568428Y-102000000D01*
X95908428Y-120630000D02*
X89488428Y-120630000D01*
X89488428Y-102375000D02*
X89488428Y-120630000D01*
X120378428Y-102380000D02*
X120738428Y-102380000D01*
X120478428Y-120620000D02*
X120738428Y-120620000D01*
X120738428Y-102380000D02*
X120738428Y-104040000D01*
%TO.C,C2*%
X166105409Y-148077206D02*
X164682905Y-148077206D01*
X166105409Y-149897206D02*
X164682905Y-149897206D01*
%TO.C,O1*%
X141438428Y-53500000D02*
X116438428Y-53500000D01*
X116438428Y-53500000D02*
X116438428Y-79500000D01*
X116438428Y-79500000D02*
X141438428Y-79500000D01*
X141438428Y-79500000D02*
X141438428Y-53500000D01*
%TO.C,C3*%
X155348428Y-151711252D02*
X155348428Y-150288748D01*
X153528428Y-151711252D02*
X153528428Y-150288748D01*
%TO.C,U2*%
X160498428Y-158000000D02*
X160498428Y-156050000D01*
X160498428Y-158000000D02*
X160498428Y-161450000D01*
X155378428Y-158000000D02*
X155378428Y-159950000D01*
X155378428Y-158000000D02*
X155378428Y-156050000D01*
%TO.C,C20*%
X158703428Y-151261252D02*
X158703428Y-150738748D01*
X160173428Y-151261252D02*
X160173428Y-150738748D01*
%TO.C,C12*%
X103699680Y-124735000D02*
X103177176Y-124735000D01*
X103699680Y-123265000D02*
X103177176Y-123265000D01*
%TO.C,U8*%
X97438428Y-133500000D02*
X88938428Y-133500000D01*
X97438428Y-138500000D02*
X88938428Y-138500000D01*
X114291519Y-134387362D02*
X116438428Y-136000000D01*
X121438428Y-140500000D02*
X121438428Y-131500000D01*
X114291519Y-137612638D02*
X116438428Y-136000000D01*
X118438428Y-140500000D02*
X121438428Y-140500000D01*
X121438428Y-131500000D02*
X118438428Y-131500000D01*
X110438428Y-137500000D02*
X111438428Y-137500000D01*
X111438428Y-137500000D02*
X111438428Y-134500000D01*
X111438428Y-134500000D02*
X110438428Y-134500000D01*
X110438428Y-134500000D02*
X110438428Y-137500000D01*
X100938428Y-137500000D02*
X110438428Y-137500000D01*
X110438428Y-137500000D02*
X110438428Y-134500000D01*
X110438428Y-134500000D02*
X100938428Y-134500000D01*
X100938428Y-134500000D02*
X100938428Y-137500000D01*
X97438428Y-141500000D02*
X88938428Y-141500000D01*
X88938428Y-141500000D02*
X88938428Y-130500000D01*
X88938428Y-130500000D02*
X97438428Y-130500000D01*
X97438428Y-130500000D02*
X97438428Y-141500000D01*
X97438428Y-138500000D02*
X100938428Y-138500000D01*
X100938428Y-138500000D02*
X100938428Y-133500000D01*
X100938428Y-133500000D02*
X97438428Y-133500000D01*
X97438428Y-133500000D02*
X97438428Y-138500000D01*
X97438428Y-146000000D02*
X118438428Y-146000000D01*
X118438428Y-146000000D02*
X118438428Y-126000000D01*
X118438428Y-126000000D02*
X97438428Y-126000000D01*
X97438428Y-126000000D02*
X97438428Y-146000000D01*
X113438428Y-137500000D02*
G75*
G03*
X111438428Y-137500000I-1000000J-999999D01*
G01*
X111438428Y-134500000D02*
G75*
G03*
X113438428Y-134500000I1000000J999999D01*
G01*
X114291519Y-134387362D02*
G75*
G03*
X113438429Y-134500001I-353090J-612640D01*
G01*
X113438429Y-137499999D02*
G75*
G03*
X114291519Y-137612638I499999J499996D01*
G01*
%TD*%
M02*
