M48
; DRILL file {KiCad (6.0.0)} date Fri Nov  4 15:31:45 2022
; FORMAT={-:-/ absolute / inch / decimal}
; #@! TF.CreationDate,2022-11-04T15:31:45+01:00
; #@! TF.GenerationSoftware,Kicad,Pcbnew,(6.0.0)
; #@! TF.FileFunction,Plated,1,2,PTH
FMAT,2
INCH
; #@! TA.AperFunction,Plated,PTH,ViaDrill
T1C0.0157
; #@! TA.AperFunction,Plated,PTH,ComponentDrill
T2C0.0197
; #@! TA.AperFunction,Plated,PTH,ComponentDrill
T3C0.0236
; #@! TA.AperFunction,Plated,PTH,ComponentDrill
T4C0.0300
; #@! TA.AperFunction,Plated,PTH,ComponentDrill
T5C0.0394
; #@! TA.AperFunction,Plated,PTH,ComponentDrill
T6C0.0787
; #@! TA.AperFunction,Plated,PTH,ComponentDrill
T7C0.1260
%
G90
G05
T1
X3.5606Y-1.5748
X3.5606Y-3.4055
X3.5606Y-5.3937
X3.5803Y-1.2598
X3.5803Y-6.3386
X3.6196Y-1.7126
X3.6196Y-2.0669
X3.6393Y-3.4055
X3.659Y-5.3937
X3.6984Y-5.9843
X3.718Y-3.4055
X3.718Y-5.3937
X3.718Y-5.6693
X3.7574Y-2.3031
X3.8362Y-4.1142
X3.8362Y-4.1929
X3.8362Y-4.2913
X3.8362Y-4.4685
X3.8362Y-4.6063
X3.8362Y-5.0197
X3.8362Y-5.1772
X3.8362Y-5.5118
X3.8362Y-5.7677
X3.8362Y-6.7323
X3.8558Y-0.9843
X3.8755Y-3.5236
X3.8755Y-3.7205
X3.8755Y-4.6457
X3.8755Y-4.9606
X3.9159Y-6.2411
X3.9346Y-1.3976
X3.9346Y-3.9764
X3.9346Y-4.4488
X3.9346Y-4.5472
X3.9543Y-6.3583
X3.974Y-3.5433
X3.974Y-3.7992
X3.9936Y-5.9843
X4.0133Y-4.1339
X4.0527Y-6.1417
X4.0724Y-4.6063
X4.1117Y-1.4173
X4.1117Y-2.8937
X4.1314Y-2.3031
X4.1314Y-3.9567
X4.1314Y-6.0039
X4.1511Y-3.4843
X4.1511Y-4.2126
X4.1511Y-4.5079
X4.1669Y-4.8595
X4.1708Y-2.5591
X4.1905Y-6.378
X4.1993Y-4.8819
X4.2102Y-2.4016
X4.2299Y-1.6142
X4.2299Y-3.0709
X4.2299Y-4.6063
X4.2495Y-3.878
X4.2495Y-4.8622
X4.2615Y-2.5394
X4.2697Y-4.6068
X4.2889Y-6.1417
X4.3099Y-4.6069
X4.3283Y-1.1417
X4.3283Y-4.1339
X4.3283Y-4.3307
X4.348Y-2.3228
X4.3873Y-2.5394
X4.3873Y-2.9528
X4.407Y-5.1575
X4.407Y-5.2756
X4.407Y-5.4331
X4.407Y-5.5512
X4.4464Y-2.126
X4.4464Y-2.4606
X4.4464Y-3.0512
X4.4464Y-4.6063
X4.4655Y-2.6726
X4.4661Y-2.7756
X4.4661Y-3.4252
X4.4661Y-4.4882
X4.5054Y-6.7323
X4.5251Y-2.7165
X4.5448Y-2.5591
X4.5645Y-1.2205
X4.5645Y-5.1575
X4.5645Y-5.2756
X4.5645Y-5.4331
X4.5645Y-5.5512
X4.5842Y-3.8583
X4.5842Y-4.5276
X4.5842Y-6.4961
X4.6039Y-1.6339
X4.6039Y-2.9134
X4.6236Y-4.6742
X4.6236Y-5.9252
X4.6432Y-3.6614
X4.6432Y-4.1339
X4.6432Y-4.2323
X4.6432Y-4.5472
X4.6629Y-3.937
X4.6629Y-4.4488
X4.6826Y-1.3583
X4.6826Y-2.2244
X4.6826Y-3.4449
X4.7023Y-5.8465
X4.722Y-6.0433
X4.7417Y-3.6614
X4.7614Y-1.811
X4.7614Y-3.8386
X4.7614Y-4.7145
X4.8007Y-2.9134
X4.8007Y-5.748
X4.8401Y-4.6063
X4.8401Y-5.315
X4.8401Y-5.9055
X4.8598Y-4.7835
X4.8992Y-5.748
X4.9582Y-3.3268
X4.9927Y-1.8463
X5.0369Y-2.9134
X5.0369Y-3.1102
X5.0369Y-5.748
X5.0763Y-5.8661
X5.0763Y-6.5157
X5.096Y-2.2638
X5.1157Y-1.8701
X5.1747Y-5.748
X5.2338Y-5.374
X5.2338Y-5.8661
X5.2535Y-1.5157
X5.2732Y-2.9134
X5.2732Y-5.0394
X5.3125Y-5.748
X5.3322Y-4.7835
X5.3519Y-5.9449
X5.3716Y-1.0039
X5.4095Y-4.5684
X5.4306Y-1.5551
X5.4306Y-4.9016
X5.4306Y-5.7874
X5.4503Y-6.063
X5.4503Y-6.2008
X5.4503Y-6.3386
X5.47Y-1.811
X5.47Y-2.1654
X5.5094Y-5.8858
X5.5291Y-2.9921
X5.5488Y-3.4449
X5.5488Y-4.3691
X5.5488Y-6.5157
X5.5684Y-4.7047
X5.5684Y-6.7323
X5.5846Y-2.7508
X5.5881Y-1.2205
X5.5881Y-4.0748
X5.5881Y-4.5669
X5.5881Y-5.1378
X5.5881Y-5.2165
X5.5881Y-5.2953
X5.5881Y-5.3937
X5.5881Y-5.4724
X5.5881Y-5.5512
X5.5881Y-5.7874
X5.5881Y-5.8661
X5.5881Y-5.9449
X5.595Y-4.4063
X5.6078Y-3.6024
X5.6446Y-4.21
X5.6451Y-4.3036
X5.6472Y-2.8937
X5.659Y-2.8238
X5.6627Y-4.4157
X5.6669Y-3.0118
X5.6669Y-6.3189
X5.6743Y-4.3328
X5.6866Y-2.185
X5.6866Y-2.4803
X5.6866Y-2.6378
X5.6866Y-3.0906
X5.6866Y-4.1339
X5.6866Y-6.1614
X5.7062Y-1.752
X5.7062Y-3.2874
X5.7062Y-4.5477
X5.7062Y-4.7441
X5.7206Y-4.4157
X5.7259Y-5.1378
X5.7259Y-5.2165
X5.7259Y-5.2953
X5.7259Y-5.3937
X5.7259Y-5.4724
X5.7259Y-5.5512
X5.7259Y-5.7874
X5.7259Y-5.8661
X5.7259Y-5.9449
X5.7259Y-6.0433
X5.7653Y-3.7008
X5.7653Y-4.311
X5.7653Y-6.4567
X5.785Y-3.3858
X5.785Y-4.6457
X5.8047Y-4.8031
X5.8047Y-4.9606
X5.8243Y-1.2008
X5.8243Y-1.5945
X5.8243Y-2.2244
X5.8243Y-2.4016
X5.8243Y-4.4882
X5.8243Y-4.8819
X5.844Y-2.6378
X5.8834Y-1.0039
X5.8834Y-6.2795
X5.9228Y-4.8819
X5.9425Y-5.0
X5.9425Y-5.315
X5.9621Y-2.5
X5.9621Y-3.189
X5.9621Y-3.6811
X5.9621Y-6.1024
X5.9818Y-5.9449
X5.9818Y-6.4567
X6.0015Y-2.0276
X6.0409Y-1.5551
X6.0606Y-4.1732
X6.0606Y-4.3307
X6.0803Y-5.315
X6.0999Y-3.6614
X6.0999Y-6.378
X6.1393Y-1.3583
X6.159Y-2.4409
X6.159Y-4.8228
X6.159Y-6.2205
X6.1984Y-5.374
X6.2574Y-3.7992
X6.2771Y-4.5669
X6.2968Y-0.9843
X6.2968Y-3.4449
X6.2968Y-5.4331
X6.3165Y-3.2283
X6.3165Y-6.7323
X6.3362Y-1.8504
X6.3362Y-5.5906
X6.3952Y-6.4173
X6.4543Y-2.4803
X6.4936Y-3.5236
X6.4936Y-3.7795
X6.4936Y-5.0
X6.5133Y-1.7913
X6.5133Y-5.5906
X6.533Y-2.6575
X6.533Y-4.252
X6.5527Y-5.4528
X6.5724Y-1.2598
X6.5724Y-1.5354
X6.5724Y-2.2441
X6.5724Y-5.3543
X6.5724Y-5.7087
X6.5921Y-6.0827
X6.5921Y-6.4961
X6.6117Y-3.1693
T2
X3.5645Y-1.063
X3.5645Y-6.6535
X3.5922Y-0.9962
X3.5922Y-1.1298
X3.5922Y-6.5867
X3.5922Y-6.7204
X3.659Y-0.9685
X3.659Y-1.1575
X3.659Y-6.5591
X3.659Y-6.748
X3.7258Y-0.9962
X3.7258Y-1.1298
X3.7258Y-6.5867
X3.7258Y-6.7204
X3.7535Y-1.063
X3.7535Y-6.6535
X6.3992Y-1.063
X6.3992Y-6.6535
X6.4268Y-0.9962
X6.4268Y-1.1298
X6.4268Y-6.5867
X6.4268Y-6.7204
X6.4936Y-0.9685
X6.4936Y-1.1575
X6.4936Y-6.5591
X6.4936Y-6.748
X6.5605Y-0.9962
X6.5605Y-1.1298
X6.5605Y-6.5867
X6.5605Y-6.7204
X6.5881Y-1.063
X6.5881Y-6.6535
T4
X4.5842Y-6.063
X4.5842Y-6.1614
X4.5842Y-6.2598
X4.9263Y-2.185
X5.0263Y-2.185
X5.1263Y-2.185
X5.2263Y-2.185
X5.5684Y-6.063
X5.5684Y-6.1614
X5.5684Y-6.2598
T5
X4.2281Y-2.2342
X4.2281Y-2.884
X4.3019Y-2.1063
X4.3019Y-3.0118
X4.3757Y-1.9784
X4.3757Y-3.1397
X4.9287Y-1.6602
X4.9287Y-3.4646
X4.9779Y-3.561
X4.9779Y-4.1319
X5.0264Y-5.5615
X5.0266Y-5.0565
X5.0266Y-5.1565
X5.0266Y-5.2565
X5.0266Y-5.3565
X5.0266Y-5.4565
X5.0763Y-1.6602
X5.0763Y-3.4646
X5.0763Y-3.561
X5.1264Y-5.5615
X5.1266Y-5.0565
X5.1266Y-5.1565
X5.1266Y-5.2565
X5.1266Y-5.3565
X5.1266Y-5.4565
X5.1747Y-3.561
X5.1747Y-4.1319
X5.224Y-1.6602
X5.224Y-3.4646
X5.7769Y-1.9784
X5.7769Y-3.1397
X5.8507Y-2.1063
X5.8507Y-3.0118
X5.9245Y-2.2342
X5.9245Y-2.884
T7
X3.659Y-1.063
X3.659Y-6.6535
X6.4936Y-1.063
X6.4936Y-6.6535
T2
G00X3.6098Y-2.1654
M15
G01X3.6295Y-2.1654
M16
G05
G00X3.6098Y-2.9528
M15
G01X3.6295Y-2.9528
M16
G05
G00X6.5232Y-2.1654
M15
G01X6.5429Y-2.1654
M16
G05
G00X6.5232Y-2.9528
M15
G01X6.5429Y-2.9528
M16
G05
T3
G00X6.3724Y-4.0819
M15
G01X6.3291Y-4.0819
M16
G05
G00X6.3724Y-4.422
M15
G01X6.3291Y-4.422
M16
G05
G00X6.5271Y-4.0819
M15
G01X6.5035Y-4.0819
M16
G05
G00X6.5271Y-4.422
M15
G01X6.5035Y-4.422
M16
G05
T4
G00X3.9496Y-5.0295
M15
G01X4.0574Y-5.0295
M16
G05
G00X3.9496Y-5.6791
M15
G01X4.0574Y-5.6791
M16
G05
G00X4.4417Y-5.0295
M15
G01X4.5495Y-5.0295
M16
G05
G00X4.4417Y-5.6791
M15
G01X4.5495Y-5.6791
M16
G05
G00X5.7109Y-5.0295
M15
G01X5.6031Y-5.0295
M16
G05
G00X5.7109Y-5.6791
M15
G01X5.6031Y-5.6791
M16
G05
G00X6.203Y-5.0295
M15
G01X6.0953Y-5.0295
M16
G05
G00X6.203Y-5.6791
M15
G01X6.0953Y-5.6791
M16
G05
T5
G00X3.8165Y-2.5197
M15
G01X3.8165Y-2.5984
M16
G05
G00X3.8952Y-2.374
M15
G01X3.974Y-2.374
M16
G05
G00X4.0527Y-2.5197
M15
G01X4.0527Y-2.5984
M16
G05
T6
G00X3.8871Y-2.0964
M15
G01X3.836Y-2.0669
M16
G05
G00X3.8871Y-3.0217
M15
G01X3.836Y-3.0512
M16
G05
G00X4.0859Y-1.752
M15
G01X4.0348Y-1.7225
M16
G05
G00X4.0859Y-3.3661
M15
G01X4.0348Y-3.3956
M16
G05
G00X4.8558Y-3.8465
M15
G01X4.8558Y-3.8661
M16
G05
G00X4.8775Y-1.2961
M15
G01X4.8775Y-1.237
M16
G05
G00X4.8775Y-3.8287
M15
G01X4.8775Y-3.8878
M16
G05
G00X5.2751Y-1.2961
M15
G01X5.2751Y-1.237
M16
G05
G00X5.2751Y-3.8287
M15
G01X5.2751Y-3.8878
M16
G05
G00X5.2968Y-3.8465
M15
G01X5.2968Y-3.8661
M16
G05
G00X6.0667Y-1.752
M15
G01X6.1178Y-1.7225
M16
G05
G00X6.0667Y-3.3661
M15
G01X6.1178Y-3.3956
M16
G05
G00X6.2655Y-2.0964
M15
G01X6.3167Y-2.0669
M16
G05
G00X6.2655Y-3.0217
M15
G01X6.3167Y-3.0512
M16
G05
T0
M30
