%TF.GenerationSoftware,KiCad,Pcbnew,7.0.8*%
%TF.CreationDate,2023-12-03T14:11:46+01:00*%
%TF.ProjectId,Supersonic Quantumbox,53757065-7273-46f6-9e69-63205175616e,rev?*%
%TF.SameCoordinates,Original*%
%TF.FileFunction,Profile,NP*%
%FSLAX46Y46*%
G04 Gerber Fmt 4.6, Leading zero omitted, Abs format (unit mm)*
G04 Created by KiCad (PCBNEW 7.0.8) date 2023-12-03 14:11:46*
%MOMM*%
%LPD*%
G01*
G04 APERTURE LIST*
%TA.AperFunction,Profile*%
%ADD10C,0.100000*%
%TD*%
G04 APERTURE END LIST*
D10*
X70000000Y-153000000D02*
G75*
G03*
X72000000Y-155000000I2000000J0D01*
G01*
X70000000Y-153000000D02*
X70000000Y-96000000D01*
X72000000Y-55000000D02*
X138000000Y-55000000D01*
X138000000Y-155000000D02*
X72000000Y-155000000D01*
X76000000Y-96000000D02*
X70000000Y-96000000D01*
X140000000Y-57000000D02*
X140000000Y-153000000D01*
X76000000Y-76000000D02*
X76000000Y-96000000D01*
X113000000Y-81000000D02*
G75*
G03*
X112000000Y-82000000I0J-1000000D01*
G01*
X112000000Y-102000000D02*
X112000000Y-82000000D01*
X70000000Y-76000000D02*
X70000000Y-57000000D01*
X140000000Y-57000000D02*
G75*
G03*
X138000000Y-55000000I-2000000J0D01*
G01*
X138000000Y-155000000D02*
G75*
G03*
X140000000Y-153000000I0J2000000D01*
G01*
X113000000Y-81000000D02*
X113000000Y-81000000D01*
X112000000Y-102000000D02*
G75*
G03*
X113000000Y-103000000I1000000J0D01*
G01*
X70000000Y-76000000D02*
X76000000Y-76000000D01*
X72000000Y-55000000D02*
G75*
G03*
X70000000Y-57000000I0J-2000000D01*
G01*
X114000000Y-82000000D02*
X114000000Y-102000000D01*
X113000000Y-103000000D02*
X113000000Y-103000000D01*
X114000000Y-82000000D02*
G75*
G03*
X113000000Y-81000000I-1000000J0D01*
G01*
X113000000Y-103000000D02*
G75*
G03*
X114000000Y-102000000I0J1000000D01*
G01*
M02*
